%TF.GenerationSoftware,KiCad,Pcbnew,10.0.3*%
%TF.CreationDate,2026-08-16T00:29:14+05:30*%
%TF.ProjectId,Positron,506f7369-7472-46f6-9e2e-6b696361645f,rev?*%
%TF.SameCoordinates,Original*%
%TF.FileFunction,Legend,Top*%
%TF.FilePolarity,Positive*%
%FSLAX46Y46*%
G04 Gerber Fmt 4.6, Leading zero omitted, Abs format (unit mm)*
G04 Created by KiCad (PCBNEW 10.0.3) date 2026-08-16 00:29:14*
%MOMM*%
%LPD*%
G01*
G04 APERTURE LIST*
%ADD10C,0.750000*%
%ADD11C,0.150000*%
%ADD12C,0.120000*%
%ADD13C,0.250000*%
%ADD14C,0.060000*%
%ADD15C,0.152400*%
%ADD16C,0.000000*%
G04 APERTURE END LIST*
D10*
X59593857Y-101125626D02*
X59593857Y-99601817D01*
X61593857Y-100554198D02*
X59022428Y-100554198D01*
X59022428Y-100554198D02*
X58736714Y-100363721D01*
X58736714Y-100363721D02*
X58593857Y-99982769D01*
X58593857Y-99982769D02*
X58593857Y-99601817D01*
X61451000Y-96744674D02*
X61593857Y-97125626D01*
X61593857Y-97125626D02*
X61593857Y-97887531D01*
X61593857Y-97887531D02*
X61451000Y-98268484D01*
X61451000Y-98268484D02*
X61165285Y-98458960D01*
X61165285Y-98458960D02*
X60022428Y-98458960D01*
X60022428Y-98458960D02*
X59736714Y-98268484D01*
X59736714Y-98268484D02*
X59593857Y-97887531D01*
X59593857Y-97887531D02*
X59593857Y-97125626D01*
X59593857Y-97125626D02*
X59736714Y-96744674D01*
X59736714Y-96744674D02*
X60022428Y-96554198D01*
X60022428Y-96554198D02*
X60308142Y-96554198D01*
X60308142Y-96554198D02*
X60593857Y-98458960D01*
X61593857Y-94839913D02*
X59593857Y-94839913D01*
X59879571Y-94839913D02*
X59736714Y-94649436D01*
X59736714Y-94649436D02*
X59593857Y-94268484D01*
X59593857Y-94268484D02*
X59593857Y-93697055D01*
X59593857Y-93697055D02*
X59736714Y-93316103D01*
X59736714Y-93316103D02*
X60022428Y-93125627D01*
X60022428Y-93125627D02*
X61593857Y-93125627D01*
X60022428Y-93125627D02*
X59736714Y-92935151D01*
X59736714Y-92935151D02*
X59593857Y-92554198D01*
X59593857Y-92554198D02*
X59593857Y-91982770D01*
X59593857Y-91982770D02*
X59736714Y-91601817D01*
X59736714Y-91601817D02*
X60022428Y-91411341D01*
X60022428Y-91411341D02*
X61593857Y-91411341D01*
X61593857Y-89506580D02*
X58593857Y-89506580D01*
X59736714Y-89506580D02*
X59593857Y-89125627D01*
X59593857Y-89125627D02*
X59593857Y-88363722D01*
X59593857Y-88363722D02*
X59736714Y-87982770D01*
X59736714Y-87982770D02*
X59879571Y-87792294D01*
X59879571Y-87792294D02*
X60165285Y-87601818D01*
X60165285Y-87601818D02*
X61022428Y-87601818D01*
X61022428Y-87601818D02*
X61308142Y-87792294D01*
X61308142Y-87792294D02*
X61451000Y-87982770D01*
X61451000Y-87982770D02*
X61593857Y-88363722D01*
X61593857Y-88363722D02*
X61593857Y-89125627D01*
X61593857Y-89125627D02*
X61451000Y-89506580D01*
X61593857Y-85316103D02*
X61451000Y-85697055D01*
X61451000Y-85697055D02*
X61308142Y-85887532D01*
X61308142Y-85887532D02*
X61022428Y-86078008D01*
X61022428Y-86078008D02*
X60165285Y-86078008D01*
X60165285Y-86078008D02*
X59879571Y-85887532D01*
X59879571Y-85887532D02*
X59736714Y-85697055D01*
X59736714Y-85697055D02*
X59593857Y-85316103D01*
X59593857Y-85316103D02*
X59593857Y-84744674D01*
X59593857Y-84744674D02*
X59736714Y-84363722D01*
X59736714Y-84363722D02*
X59879571Y-84173246D01*
X59879571Y-84173246D02*
X60165285Y-83982770D01*
X60165285Y-83982770D02*
X61022428Y-83982770D01*
X61022428Y-83982770D02*
X61308142Y-84173246D01*
X61308142Y-84173246D02*
X61451000Y-84363722D01*
X61451000Y-84363722D02*
X61593857Y-84744674D01*
X61593857Y-84744674D02*
X61593857Y-85316103D01*
X59593857Y-82649436D02*
X61593857Y-81697055D01*
X59593857Y-80744674D02*
X61593857Y-81697055D01*
X61593857Y-81697055D02*
X62308142Y-82078007D01*
X62308142Y-82078007D02*
X62451000Y-82268484D01*
X62451000Y-82268484D02*
X62593857Y-82649436D01*
X61451000Y-74458960D02*
X61593857Y-74839912D01*
X61593857Y-74839912D02*
X61593857Y-75601817D01*
X61593857Y-75601817D02*
X61451000Y-75982769D01*
X61451000Y-75982769D02*
X61308142Y-76173246D01*
X61308142Y-76173246D02*
X61022428Y-76363722D01*
X61022428Y-76363722D02*
X60165285Y-76363722D01*
X60165285Y-76363722D02*
X59879571Y-76173246D01*
X59879571Y-76173246D02*
X59736714Y-75982769D01*
X59736714Y-75982769D02*
X59593857Y-75601817D01*
X59593857Y-75601817D02*
X59593857Y-74839912D01*
X59593857Y-74839912D02*
X59736714Y-74458960D01*
X61593857Y-72744675D02*
X59593857Y-72744675D01*
X58593857Y-72744675D02*
X58736714Y-72935151D01*
X58736714Y-72935151D02*
X58879571Y-72744675D01*
X58879571Y-72744675D02*
X58736714Y-72554198D01*
X58736714Y-72554198D02*
X58593857Y-72744675D01*
X58593857Y-72744675D02*
X58879571Y-72744675D01*
X61593857Y-70839913D02*
X59593857Y-70839913D01*
X60165285Y-70839913D02*
X59879571Y-70649436D01*
X59879571Y-70649436D02*
X59736714Y-70458960D01*
X59736714Y-70458960D02*
X59593857Y-70078008D01*
X59593857Y-70078008D02*
X59593857Y-69697055D01*
X61451000Y-66649437D02*
X61593857Y-67030389D01*
X61593857Y-67030389D02*
X61593857Y-67792294D01*
X61593857Y-67792294D02*
X61451000Y-68173246D01*
X61451000Y-68173246D02*
X61308142Y-68363723D01*
X61308142Y-68363723D02*
X61022428Y-68554199D01*
X61022428Y-68554199D02*
X60165285Y-68554199D01*
X60165285Y-68554199D02*
X59879571Y-68363723D01*
X59879571Y-68363723D02*
X59736714Y-68173246D01*
X59736714Y-68173246D02*
X59593857Y-67792294D01*
X59593857Y-67792294D02*
X59593857Y-67030389D01*
X59593857Y-67030389D02*
X59736714Y-66649437D01*
X59593857Y-63220866D02*
X61593857Y-63220866D01*
X59593857Y-64935152D02*
X61165285Y-64935152D01*
X61165285Y-64935152D02*
X61451000Y-64744675D01*
X61451000Y-64744675D02*
X61593857Y-64363723D01*
X61593857Y-64363723D02*
X61593857Y-63792294D01*
X61593857Y-63792294D02*
X61451000Y-63411342D01*
X61451000Y-63411342D02*
X61308142Y-63220866D01*
X61593857Y-61316104D02*
X59593857Y-61316104D01*
X58593857Y-61316104D02*
X58736714Y-61506580D01*
X58736714Y-61506580D02*
X58879571Y-61316104D01*
X58879571Y-61316104D02*
X58736714Y-61125627D01*
X58736714Y-61125627D02*
X58593857Y-61316104D01*
X58593857Y-61316104D02*
X58879571Y-61316104D01*
X59593857Y-59982770D02*
X59593857Y-58458961D01*
X58593857Y-59411342D02*
X61165285Y-59411342D01*
X61165285Y-59411342D02*
X61451000Y-59220865D01*
X61451000Y-59220865D02*
X61593857Y-58839913D01*
X61593857Y-58839913D02*
X61593857Y-58458961D01*
D11*
X43166666Y-97154819D02*
X43166666Y-97869104D01*
X43166666Y-97869104D02*
X43119047Y-98011961D01*
X43119047Y-98011961D02*
X43023809Y-98107200D01*
X43023809Y-98107200D02*
X42880952Y-98154819D01*
X42880952Y-98154819D02*
X42785714Y-98154819D01*
X43547619Y-97154819D02*
X44166666Y-97154819D01*
X44166666Y-97154819D02*
X43833333Y-97535771D01*
X43833333Y-97535771D02*
X43976190Y-97535771D01*
X43976190Y-97535771D02*
X44071428Y-97583390D01*
X44071428Y-97583390D02*
X44119047Y-97631009D01*
X44119047Y-97631009D02*
X44166666Y-97726247D01*
X44166666Y-97726247D02*
X44166666Y-97964342D01*
X44166666Y-97964342D02*
X44119047Y-98059580D01*
X44119047Y-98059580D02*
X44071428Y-98107200D01*
X44071428Y-98107200D02*
X43976190Y-98154819D01*
X43976190Y-98154819D02*
X43690476Y-98154819D01*
X43690476Y-98154819D02*
X43595238Y-98107200D01*
X43595238Y-98107200D02*
X43547619Y-98059580D01*
X29773333Y-71882080D02*
X29725714Y-71929700D01*
X29725714Y-71929700D02*
X29582857Y-71977319D01*
X29582857Y-71977319D02*
X29487619Y-71977319D01*
X29487619Y-71977319D02*
X29344762Y-71929700D01*
X29344762Y-71929700D02*
X29249524Y-71834461D01*
X29249524Y-71834461D02*
X29201905Y-71739223D01*
X29201905Y-71739223D02*
X29154286Y-71548747D01*
X29154286Y-71548747D02*
X29154286Y-71405890D01*
X29154286Y-71405890D02*
X29201905Y-71215414D01*
X29201905Y-71215414D02*
X29249524Y-71120176D01*
X29249524Y-71120176D02*
X29344762Y-71024938D01*
X29344762Y-71024938D02*
X29487619Y-70977319D01*
X29487619Y-70977319D02*
X29582857Y-70977319D01*
X29582857Y-70977319D02*
X29725714Y-71024938D01*
X29725714Y-71024938D02*
X29773333Y-71072557D01*
X30678095Y-70977319D02*
X30201905Y-70977319D01*
X30201905Y-70977319D02*
X30154286Y-71453509D01*
X30154286Y-71453509D02*
X30201905Y-71405890D01*
X30201905Y-71405890D02*
X30297143Y-71358271D01*
X30297143Y-71358271D02*
X30535238Y-71358271D01*
X30535238Y-71358271D02*
X30630476Y-71405890D01*
X30630476Y-71405890D02*
X30678095Y-71453509D01*
X30678095Y-71453509D02*
X30725714Y-71548747D01*
X30725714Y-71548747D02*
X30725714Y-71786842D01*
X30725714Y-71786842D02*
X30678095Y-71882080D01*
X30678095Y-71882080D02*
X30630476Y-71929700D01*
X30630476Y-71929700D02*
X30535238Y-71977319D01*
X30535238Y-71977319D02*
X30297143Y-71977319D01*
X30297143Y-71977319D02*
X30201905Y-71929700D01*
X30201905Y-71929700D02*
X30154286Y-71882080D01*
X63539580Y-26692857D02*
X63587200Y-26740476D01*
X63587200Y-26740476D02*
X63634819Y-26883333D01*
X63634819Y-26883333D02*
X63634819Y-26978571D01*
X63634819Y-26978571D02*
X63587200Y-27121428D01*
X63587200Y-27121428D02*
X63491961Y-27216666D01*
X63491961Y-27216666D02*
X63396723Y-27264285D01*
X63396723Y-27264285D02*
X63206247Y-27311904D01*
X63206247Y-27311904D02*
X63063390Y-27311904D01*
X63063390Y-27311904D02*
X62872914Y-27264285D01*
X62872914Y-27264285D02*
X62777676Y-27216666D01*
X62777676Y-27216666D02*
X62682438Y-27121428D01*
X62682438Y-27121428D02*
X62634819Y-26978571D01*
X62634819Y-26978571D02*
X62634819Y-26883333D01*
X62634819Y-26883333D02*
X62682438Y-26740476D01*
X62682438Y-26740476D02*
X62730057Y-26692857D01*
X63634819Y-25740476D02*
X63634819Y-26311904D01*
X63634819Y-26026190D02*
X62634819Y-26026190D01*
X62634819Y-26026190D02*
X62777676Y-26121428D01*
X62777676Y-26121428D02*
X62872914Y-26216666D01*
X62872914Y-26216666D02*
X62920533Y-26311904D01*
X63063390Y-25169047D02*
X63015771Y-25264285D01*
X63015771Y-25264285D02*
X62968152Y-25311904D01*
X62968152Y-25311904D02*
X62872914Y-25359523D01*
X62872914Y-25359523D02*
X62825295Y-25359523D01*
X62825295Y-25359523D02*
X62730057Y-25311904D01*
X62730057Y-25311904D02*
X62682438Y-25264285D01*
X62682438Y-25264285D02*
X62634819Y-25169047D01*
X62634819Y-25169047D02*
X62634819Y-24978571D01*
X62634819Y-24978571D02*
X62682438Y-24883333D01*
X62682438Y-24883333D02*
X62730057Y-24835714D01*
X62730057Y-24835714D02*
X62825295Y-24788095D01*
X62825295Y-24788095D02*
X62872914Y-24788095D01*
X62872914Y-24788095D02*
X62968152Y-24835714D01*
X62968152Y-24835714D02*
X63015771Y-24883333D01*
X63015771Y-24883333D02*
X63063390Y-24978571D01*
X63063390Y-24978571D02*
X63063390Y-25169047D01*
X63063390Y-25169047D02*
X63111009Y-25264285D01*
X63111009Y-25264285D02*
X63158628Y-25311904D01*
X63158628Y-25311904D02*
X63253866Y-25359523D01*
X63253866Y-25359523D02*
X63444342Y-25359523D01*
X63444342Y-25359523D02*
X63539580Y-25311904D01*
X63539580Y-25311904D02*
X63587200Y-25264285D01*
X63587200Y-25264285D02*
X63634819Y-25169047D01*
X63634819Y-25169047D02*
X63634819Y-24978571D01*
X63634819Y-24978571D02*
X63587200Y-24883333D01*
X63587200Y-24883333D02*
X63539580Y-24835714D01*
X63539580Y-24835714D02*
X63444342Y-24788095D01*
X63444342Y-24788095D02*
X63253866Y-24788095D01*
X63253866Y-24788095D02*
X63158628Y-24835714D01*
X63158628Y-24835714D02*
X63111009Y-24883333D01*
X63111009Y-24883333D02*
X63063390Y-24978571D01*
X54479580Y-17345357D02*
X54527200Y-17392976D01*
X54527200Y-17392976D02*
X54574819Y-17535833D01*
X54574819Y-17535833D02*
X54574819Y-17631071D01*
X54574819Y-17631071D02*
X54527200Y-17773928D01*
X54527200Y-17773928D02*
X54431961Y-17869166D01*
X54431961Y-17869166D02*
X54336723Y-17916785D01*
X54336723Y-17916785D02*
X54146247Y-17964404D01*
X54146247Y-17964404D02*
X54003390Y-17964404D01*
X54003390Y-17964404D02*
X53812914Y-17916785D01*
X53812914Y-17916785D02*
X53717676Y-17869166D01*
X53717676Y-17869166D02*
X53622438Y-17773928D01*
X53622438Y-17773928D02*
X53574819Y-17631071D01*
X53574819Y-17631071D02*
X53574819Y-17535833D01*
X53574819Y-17535833D02*
X53622438Y-17392976D01*
X53622438Y-17392976D02*
X53670057Y-17345357D01*
X54574819Y-16392976D02*
X54574819Y-16964404D01*
X54574819Y-16678690D02*
X53574819Y-16678690D01*
X53574819Y-16678690D02*
X53717676Y-16773928D01*
X53717676Y-16773928D02*
X53812914Y-16869166D01*
X53812914Y-16869166D02*
X53860533Y-16964404D01*
X53574819Y-15488214D02*
X53574819Y-15964404D01*
X53574819Y-15964404D02*
X54051009Y-16012023D01*
X54051009Y-16012023D02*
X54003390Y-15964404D01*
X54003390Y-15964404D02*
X53955771Y-15869166D01*
X53955771Y-15869166D02*
X53955771Y-15631071D01*
X53955771Y-15631071D02*
X54003390Y-15535833D01*
X54003390Y-15535833D02*
X54051009Y-15488214D01*
X54051009Y-15488214D02*
X54146247Y-15440595D01*
X54146247Y-15440595D02*
X54384342Y-15440595D01*
X54384342Y-15440595D02*
X54479580Y-15488214D01*
X54479580Y-15488214D02*
X54527200Y-15535833D01*
X54527200Y-15535833D02*
X54574819Y-15631071D01*
X54574819Y-15631071D02*
X54574819Y-15869166D01*
X54574819Y-15869166D02*
X54527200Y-15964404D01*
X54527200Y-15964404D02*
X54479580Y-16012023D01*
X31773333Y-79382080D02*
X31725714Y-79429700D01*
X31725714Y-79429700D02*
X31582857Y-79477319D01*
X31582857Y-79477319D02*
X31487619Y-79477319D01*
X31487619Y-79477319D02*
X31344762Y-79429700D01*
X31344762Y-79429700D02*
X31249524Y-79334461D01*
X31249524Y-79334461D02*
X31201905Y-79239223D01*
X31201905Y-79239223D02*
X31154286Y-79048747D01*
X31154286Y-79048747D02*
X31154286Y-78905890D01*
X31154286Y-78905890D02*
X31201905Y-78715414D01*
X31201905Y-78715414D02*
X31249524Y-78620176D01*
X31249524Y-78620176D02*
X31344762Y-78524938D01*
X31344762Y-78524938D02*
X31487619Y-78477319D01*
X31487619Y-78477319D02*
X31582857Y-78477319D01*
X31582857Y-78477319D02*
X31725714Y-78524938D01*
X31725714Y-78524938D02*
X31773333Y-78572557D01*
X32106667Y-78477319D02*
X32725714Y-78477319D01*
X32725714Y-78477319D02*
X32392381Y-78858271D01*
X32392381Y-78858271D02*
X32535238Y-78858271D01*
X32535238Y-78858271D02*
X32630476Y-78905890D01*
X32630476Y-78905890D02*
X32678095Y-78953509D01*
X32678095Y-78953509D02*
X32725714Y-79048747D01*
X32725714Y-79048747D02*
X32725714Y-79286842D01*
X32725714Y-79286842D02*
X32678095Y-79382080D01*
X32678095Y-79382080D02*
X32630476Y-79429700D01*
X32630476Y-79429700D02*
X32535238Y-79477319D01*
X32535238Y-79477319D02*
X32249524Y-79477319D01*
X32249524Y-79477319D02*
X32154286Y-79429700D01*
X32154286Y-79429700D02*
X32106667Y-79382080D01*
X43747142Y-78382080D02*
X43699523Y-78429700D01*
X43699523Y-78429700D02*
X43556666Y-78477319D01*
X43556666Y-78477319D02*
X43461428Y-78477319D01*
X43461428Y-78477319D02*
X43318571Y-78429700D01*
X43318571Y-78429700D02*
X43223333Y-78334461D01*
X43223333Y-78334461D02*
X43175714Y-78239223D01*
X43175714Y-78239223D02*
X43128095Y-78048747D01*
X43128095Y-78048747D02*
X43128095Y-77905890D01*
X43128095Y-77905890D02*
X43175714Y-77715414D01*
X43175714Y-77715414D02*
X43223333Y-77620176D01*
X43223333Y-77620176D02*
X43318571Y-77524938D01*
X43318571Y-77524938D02*
X43461428Y-77477319D01*
X43461428Y-77477319D02*
X43556666Y-77477319D01*
X43556666Y-77477319D02*
X43699523Y-77524938D01*
X43699523Y-77524938D02*
X43747142Y-77572557D01*
X44699523Y-78477319D02*
X44128095Y-78477319D01*
X44413809Y-78477319D02*
X44413809Y-77477319D01*
X44413809Y-77477319D02*
X44318571Y-77620176D01*
X44318571Y-77620176D02*
X44223333Y-77715414D01*
X44223333Y-77715414D02*
X44128095Y-77763033D01*
X45318571Y-77477319D02*
X45413809Y-77477319D01*
X45413809Y-77477319D02*
X45509047Y-77524938D01*
X45509047Y-77524938D02*
X45556666Y-77572557D01*
X45556666Y-77572557D02*
X45604285Y-77667795D01*
X45604285Y-77667795D02*
X45651904Y-77858271D01*
X45651904Y-77858271D02*
X45651904Y-78096366D01*
X45651904Y-78096366D02*
X45604285Y-78286842D01*
X45604285Y-78286842D02*
X45556666Y-78382080D01*
X45556666Y-78382080D02*
X45509047Y-78429700D01*
X45509047Y-78429700D02*
X45413809Y-78477319D01*
X45413809Y-78477319D02*
X45318571Y-78477319D01*
X45318571Y-78477319D02*
X45223333Y-78429700D01*
X45223333Y-78429700D02*
X45175714Y-78382080D01*
X45175714Y-78382080D02*
X45128095Y-78286842D01*
X45128095Y-78286842D02*
X45080476Y-78096366D01*
X45080476Y-78096366D02*
X45080476Y-77858271D01*
X45080476Y-77858271D02*
X45128095Y-77667795D01*
X45128095Y-77667795D02*
X45175714Y-77572557D01*
X45175714Y-77572557D02*
X45223333Y-77524938D01*
X45223333Y-77524938D02*
X45318571Y-77477319D01*
X56238095Y-14054819D02*
X56238095Y-14864342D01*
X56238095Y-14864342D02*
X56285714Y-14959580D01*
X56285714Y-14959580D02*
X56333333Y-15007200D01*
X56333333Y-15007200D02*
X56428571Y-15054819D01*
X56428571Y-15054819D02*
X56619047Y-15054819D01*
X56619047Y-15054819D02*
X56714285Y-15007200D01*
X56714285Y-15007200D02*
X56761904Y-14959580D01*
X56761904Y-14959580D02*
X56809523Y-14864342D01*
X56809523Y-14864342D02*
X56809523Y-14054819D01*
X57238095Y-14150057D02*
X57285714Y-14102438D01*
X57285714Y-14102438D02*
X57380952Y-14054819D01*
X57380952Y-14054819D02*
X57619047Y-14054819D01*
X57619047Y-14054819D02*
X57714285Y-14102438D01*
X57714285Y-14102438D02*
X57761904Y-14150057D01*
X57761904Y-14150057D02*
X57809523Y-14245295D01*
X57809523Y-14245295D02*
X57809523Y-14340533D01*
X57809523Y-14340533D02*
X57761904Y-14483390D01*
X57761904Y-14483390D02*
X57190476Y-15054819D01*
X57190476Y-15054819D02*
X57809523Y-15054819D01*
X43747142Y-81882080D02*
X43699523Y-81929700D01*
X43699523Y-81929700D02*
X43556666Y-81977319D01*
X43556666Y-81977319D02*
X43461428Y-81977319D01*
X43461428Y-81977319D02*
X43318571Y-81929700D01*
X43318571Y-81929700D02*
X43223333Y-81834461D01*
X43223333Y-81834461D02*
X43175714Y-81739223D01*
X43175714Y-81739223D02*
X43128095Y-81548747D01*
X43128095Y-81548747D02*
X43128095Y-81405890D01*
X43128095Y-81405890D02*
X43175714Y-81215414D01*
X43175714Y-81215414D02*
X43223333Y-81120176D01*
X43223333Y-81120176D02*
X43318571Y-81024938D01*
X43318571Y-81024938D02*
X43461428Y-80977319D01*
X43461428Y-80977319D02*
X43556666Y-80977319D01*
X43556666Y-80977319D02*
X43699523Y-81024938D01*
X43699523Y-81024938D02*
X43747142Y-81072557D01*
X44699523Y-81977319D02*
X44128095Y-81977319D01*
X44413809Y-81977319D02*
X44413809Y-80977319D01*
X44413809Y-80977319D02*
X44318571Y-81120176D01*
X44318571Y-81120176D02*
X44223333Y-81215414D01*
X44223333Y-81215414D02*
X44128095Y-81263033D01*
X45651904Y-81977319D02*
X45080476Y-81977319D01*
X45366190Y-81977319D02*
X45366190Y-80977319D01*
X45366190Y-80977319D02*
X45270952Y-81120176D01*
X45270952Y-81120176D02*
X45175714Y-81215414D01*
X45175714Y-81215414D02*
X45080476Y-81263033D01*
X63539580Y-17642857D02*
X63587200Y-17690476D01*
X63587200Y-17690476D02*
X63634819Y-17833333D01*
X63634819Y-17833333D02*
X63634819Y-17928571D01*
X63634819Y-17928571D02*
X63587200Y-18071428D01*
X63587200Y-18071428D02*
X63491961Y-18166666D01*
X63491961Y-18166666D02*
X63396723Y-18214285D01*
X63396723Y-18214285D02*
X63206247Y-18261904D01*
X63206247Y-18261904D02*
X63063390Y-18261904D01*
X63063390Y-18261904D02*
X62872914Y-18214285D01*
X62872914Y-18214285D02*
X62777676Y-18166666D01*
X62777676Y-18166666D02*
X62682438Y-18071428D01*
X62682438Y-18071428D02*
X62634819Y-17928571D01*
X62634819Y-17928571D02*
X62634819Y-17833333D01*
X62634819Y-17833333D02*
X62682438Y-17690476D01*
X62682438Y-17690476D02*
X62730057Y-17642857D01*
X63634819Y-16690476D02*
X63634819Y-17261904D01*
X63634819Y-16976190D02*
X62634819Y-16976190D01*
X62634819Y-16976190D02*
X62777676Y-17071428D01*
X62777676Y-17071428D02*
X62872914Y-17166666D01*
X62872914Y-17166666D02*
X62920533Y-17261904D01*
X62634819Y-15833333D02*
X62634819Y-16023809D01*
X62634819Y-16023809D02*
X62682438Y-16119047D01*
X62682438Y-16119047D02*
X62730057Y-16166666D01*
X62730057Y-16166666D02*
X62872914Y-16261904D01*
X62872914Y-16261904D02*
X63063390Y-16309523D01*
X63063390Y-16309523D02*
X63444342Y-16309523D01*
X63444342Y-16309523D02*
X63539580Y-16261904D01*
X63539580Y-16261904D02*
X63587200Y-16214285D01*
X63587200Y-16214285D02*
X63634819Y-16119047D01*
X63634819Y-16119047D02*
X63634819Y-15928571D01*
X63634819Y-15928571D02*
X63587200Y-15833333D01*
X63587200Y-15833333D02*
X63539580Y-15785714D01*
X63539580Y-15785714D02*
X63444342Y-15738095D01*
X63444342Y-15738095D02*
X63206247Y-15738095D01*
X63206247Y-15738095D02*
X63111009Y-15785714D01*
X63111009Y-15785714D02*
X63063390Y-15833333D01*
X63063390Y-15833333D02*
X63015771Y-15928571D01*
X63015771Y-15928571D02*
X63015771Y-16119047D01*
X63015771Y-16119047D02*
X63063390Y-16214285D01*
X63063390Y-16214285D02*
X63111009Y-16261904D01*
X63111009Y-16261904D02*
X63206247Y-16309523D01*
X36747142Y-83882080D02*
X36699523Y-83929700D01*
X36699523Y-83929700D02*
X36556666Y-83977319D01*
X36556666Y-83977319D02*
X36461428Y-83977319D01*
X36461428Y-83977319D02*
X36318571Y-83929700D01*
X36318571Y-83929700D02*
X36223333Y-83834461D01*
X36223333Y-83834461D02*
X36175714Y-83739223D01*
X36175714Y-83739223D02*
X36128095Y-83548747D01*
X36128095Y-83548747D02*
X36128095Y-83405890D01*
X36128095Y-83405890D02*
X36175714Y-83215414D01*
X36175714Y-83215414D02*
X36223333Y-83120176D01*
X36223333Y-83120176D02*
X36318571Y-83024938D01*
X36318571Y-83024938D02*
X36461428Y-82977319D01*
X36461428Y-82977319D02*
X36556666Y-82977319D01*
X36556666Y-82977319D02*
X36699523Y-83024938D01*
X36699523Y-83024938D02*
X36747142Y-83072557D01*
X37699523Y-83977319D02*
X37128095Y-83977319D01*
X37413809Y-83977319D02*
X37413809Y-82977319D01*
X37413809Y-82977319D02*
X37318571Y-83120176D01*
X37318571Y-83120176D02*
X37223333Y-83215414D01*
X37223333Y-83215414D02*
X37128095Y-83263033D01*
X38080476Y-83072557D02*
X38128095Y-83024938D01*
X38128095Y-83024938D02*
X38223333Y-82977319D01*
X38223333Y-82977319D02*
X38461428Y-82977319D01*
X38461428Y-82977319D02*
X38556666Y-83024938D01*
X38556666Y-83024938D02*
X38604285Y-83072557D01*
X38604285Y-83072557D02*
X38651904Y-83167795D01*
X38651904Y-83167795D02*
X38651904Y-83263033D01*
X38651904Y-83263033D02*
X38604285Y-83405890D01*
X38604285Y-83405890D02*
X38032857Y-83977319D01*
X38032857Y-83977319D02*
X38651904Y-83977319D01*
X42559580Y-76919166D02*
X42607200Y-76966785D01*
X42607200Y-76966785D02*
X42654819Y-77109642D01*
X42654819Y-77109642D02*
X42654819Y-77204880D01*
X42654819Y-77204880D02*
X42607200Y-77347737D01*
X42607200Y-77347737D02*
X42511961Y-77442975D01*
X42511961Y-77442975D02*
X42416723Y-77490594D01*
X42416723Y-77490594D02*
X42226247Y-77538213D01*
X42226247Y-77538213D02*
X42083390Y-77538213D01*
X42083390Y-77538213D02*
X41892914Y-77490594D01*
X41892914Y-77490594D02*
X41797676Y-77442975D01*
X41797676Y-77442975D02*
X41702438Y-77347737D01*
X41702438Y-77347737D02*
X41654819Y-77204880D01*
X41654819Y-77204880D02*
X41654819Y-77109642D01*
X41654819Y-77109642D02*
X41702438Y-76966785D01*
X41702438Y-76966785D02*
X41750057Y-76919166D01*
X42654819Y-75966785D02*
X42654819Y-76538213D01*
X42654819Y-76252499D02*
X41654819Y-76252499D01*
X41654819Y-76252499D02*
X41797676Y-76347737D01*
X41797676Y-76347737D02*
X41892914Y-76442975D01*
X41892914Y-76442975D02*
X41940533Y-76538213D01*
X42929580Y-80845357D02*
X42977200Y-80892976D01*
X42977200Y-80892976D02*
X43024819Y-81035833D01*
X43024819Y-81035833D02*
X43024819Y-81131071D01*
X43024819Y-81131071D02*
X42977200Y-81273928D01*
X42977200Y-81273928D02*
X42881961Y-81369166D01*
X42881961Y-81369166D02*
X42786723Y-81416785D01*
X42786723Y-81416785D02*
X42596247Y-81464404D01*
X42596247Y-81464404D02*
X42453390Y-81464404D01*
X42453390Y-81464404D02*
X42262914Y-81416785D01*
X42262914Y-81416785D02*
X42167676Y-81369166D01*
X42167676Y-81369166D02*
X42072438Y-81273928D01*
X42072438Y-81273928D02*
X42024819Y-81131071D01*
X42024819Y-81131071D02*
X42024819Y-81035833D01*
X42024819Y-81035833D02*
X42072438Y-80892976D01*
X42072438Y-80892976D02*
X42120057Y-80845357D01*
X43024819Y-79892976D02*
X43024819Y-80464404D01*
X43024819Y-80178690D02*
X42024819Y-80178690D01*
X42024819Y-80178690D02*
X42167676Y-80273928D01*
X42167676Y-80273928D02*
X42262914Y-80369166D01*
X42262914Y-80369166D02*
X42310533Y-80464404D01*
X42358152Y-79035833D02*
X43024819Y-79035833D01*
X41977200Y-79273928D02*
X42691485Y-79512023D01*
X42691485Y-79512023D02*
X42691485Y-78892976D01*
X55738095Y-23054819D02*
X55738095Y-23864342D01*
X55738095Y-23864342D02*
X55785714Y-23959580D01*
X55785714Y-23959580D02*
X55833333Y-24007200D01*
X55833333Y-24007200D02*
X55928571Y-24054819D01*
X55928571Y-24054819D02*
X56119047Y-24054819D01*
X56119047Y-24054819D02*
X56214285Y-24007200D01*
X56214285Y-24007200D02*
X56261904Y-23959580D01*
X56261904Y-23959580D02*
X56309523Y-23864342D01*
X56309523Y-23864342D02*
X56309523Y-23054819D01*
X56690476Y-23054819D02*
X57309523Y-23054819D01*
X57309523Y-23054819D02*
X56976190Y-23435771D01*
X56976190Y-23435771D02*
X57119047Y-23435771D01*
X57119047Y-23435771D02*
X57214285Y-23483390D01*
X57214285Y-23483390D02*
X57261904Y-23531009D01*
X57261904Y-23531009D02*
X57309523Y-23626247D01*
X57309523Y-23626247D02*
X57309523Y-23864342D01*
X57309523Y-23864342D02*
X57261904Y-23959580D01*
X57261904Y-23959580D02*
X57214285Y-24007200D01*
X57214285Y-24007200D02*
X57119047Y-24054819D01*
X57119047Y-24054819D02*
X56833333Y-24054819D01*
X56833333Y-24054819D02*
X56738095Y-24007200D01*
X56738095Y-24007200D02*
X56690476Y-23959580D01*
X26273333Y-73382080D02*
X26225714Y-73429700D01*
X26225714Y-73429700D02*
X26082857Y-73477319D01*
X26082857Y-73477319D02*
X25987619Y-73477319D01*
X25987619Y-73477319D02*
X25844762Y-73429700D01*
X25844762Y-73429700D02*
X25749524Y-73334461D01*
X25749524Y-73334461D02*
X25701905Y-73239223D01*
X25701905Y-73239223D02*
X25654286Y-73048747D01*
X25654286Y-73048747D02*
X25654286Y-72905890D01*
X25654286Y-72905890D02*
X25701905Y-72715414D01*
X25701905Y-72715414D02*
X25749524Y-72620176D01*
X25749524Y-72620176D02*
X25844762Y-72524938D01*
X25844762Y-72524938D02*
X25987619Y-72477319D01*
X25987619Y-72477319D02*
X26082857Y-72477319D01*
X26082857Y-72477319D02*
X26225714Y-72524938D01*
X26225714Y-72524938D02*
X26273333Y-72572557D01*
X26749524Y-73477319D02*
X26940000Y-73477319D01*
X26940000Y-73477319D02*
X27035238Y-73429700D01*
X27035238Y-73429700D02*
X27082857Y-73382080D01*
X27082857Y-73382080D02*
X27178095Y-73239223D01*
X27178095Y-73239223D02*
X27225714Y-73048747D01*
X27225714Y-73048747D02*
X27225714Y-72667795D01*
X27225714Y-72667795D02*
X27178095Y-72572557D01*
X27178095Y-72572557D02*
X27130476Y-72524938D01*
X27130476Y-72524938D02*
X27035238Y-72477319D01*
X27035238Y-72477319D02*
X26844762Y-72477319D01*
X26844762Y-72477319D02*
X26749524Y-72524938D01*
X26749524Y-72524938D02*
X26701905Y-72572557D01*
X26701905Y-72572557D02*
X26654286Y-72667795D01*
X26654286Y-72667795D02*
X26654286Y-72905890D01*
X26654286Y-72905890D02*
X26701905Y-73001128D01*
X26701905Y-73001128D02*
X26749524Y-73048747D01*
X26749524Y-73048747D02*
X26844762Y-73096366D01*
X26844762Y-73096366D02*
X27035238Y-73096366D01*
X27035238Y-73096366D02*
X27130476Y-73048747D01*
X27130476Y-73048747D02*
X27178095Y-73001128D01*
X27178095Y-73001128D02*
X27225714Y-72905890D01*
X27773333Y-79882080D02*
X27725714Y-79929700D01*
X27725714Y-79929700D02*
X27582857Y-79977319D01*
X27582857Y-79977319D02*
X27487619Y-79977319D01*
X27487619Y-79977319D02*
X27344762Y-79929700D01*
X27344762Y-79929700D02*
X27249524Y-79834461D01*
X27249524Y-79834461D02*
X27201905Y-79739223D01*
X27201905Y-79739223D02*
X27154286Y-79548747D01*
X27154286Y-79548747D02*
X27154286Y-79405890D01*
X27154286Y-79405890D02*
X27201905Y-79215414D01*
X27201905Y-79215414D02*
X27249524Y-79120176D01*
X27249524Y-79120176D02*
X27344762Y-79024938D01*
X27344762Y-79024938D02*
X27487619Y-78977319D01*
X27487619Y-78977319D02*
X27582857Y-78977319D01*
X27582857Y-78977319D02*
X27725714Y-79024938D01*
X27725714Y-79024938D02*
X27773333Y-79072557D01*
X28106667Y-78977319D02*
X28773333Y-78977319D01*
X28773333Y-78977319D02*
X28344762Y-79977319D01*
X13738095Y-105804819D02*
X13738095Y-104804819D01*
X13738095Y-105281009D02*
X14309523Y-105281009D01*
X14309523Y-105804819D02*
X14309523Y-104804819D01*
X14690476Y-104804819D02*
X15309523Y-104804819D01*
X15309523Y-104804819D02*
X14976190Y-105185771D01*
X14976190Y-105185771D02*
X15119047Y-105185771D01*
X15119047Y-105185771D02*
X15214285Y-105233390D01*
X15214285Y-105233390D02*
X15261904Y-105281009D01*
X15261904Y-105281009D02*
X15309523Y-105376247D01*
X15309523Y-105376247D02*
X15309523Y-105614342D01*
X15309523Y-105614342D02*
X15261904Y-105709580D01*
X15261904Y-105709580D02*
X15214285Y-105757200D01*
X15214285Y-105757200D02*
X15119047Y-105804819D01*
X15119047Y-105804819D02*
X14833333Y-105804819D01*
X14833333Y-105804819D02*
X14738095Y-105757200D01*
X14738095Y-105757200D02*
X14690476Y-105709580D01*
X39223333Y-69882080D02*
X39175714Y-69929700D01*
X39175714Y-69929700D02*
X39032857Y-69977319D01*
X39032857Y-69977319D02*
X38937619Y-69977319D01*
X38937619Y-69977319D02*
X38794762Y-69929700D01*
X38794762Y-69929700D02*
X38699524Y-69834461D01*
X38699524Y-69834461D02*
X38651905Y-69739223D01*
X38651905Y-69739223D02*
X38604286Y-69548747D01*
X38604286Y-69548747D02*
X38604286Y-69405890D01*
X38604286Y-69405890D02*
X38651905Y-69215414D01*
X38651905Y-69215414D02*
X38699524Y-69120176D01*
X38699524Y-69120176D02*
X38794762Y-69024938D01*
X38794762Y-69024938D02*
X38937619Y-68977319D01*
X38937619Y-68977319D02*
X39032857Y-68977319D01*
X39032857Y-68977319D02*
X39175714Y-69024938D01*
X39175714Y-69024938D02*
X39223333Y-69072557D01*
X40080476Y-69310652D02*
X40080476Y-69977319D01*
X39842381Y-68929700D02*
X39604286Y-69643985D01*
X39604286Y-69643985D02*
X40223333Y-69643985D01*
X45569580Y-76919166D02*
X45617200Y-76966785D01*
X45617200Y-76966785D02*
X45664819Y-77109642D01*
X45664819Y-77109642D02*
X45664819Y-77204880D01*
X45664819Y-77204880D02*
X45617200Y-77347737D01*
X45617200Y-77347737D02*
X45521961Y-77442975D01*
X45521961Y-77442975D02*
X45426723Y-77490594D01*
X45426723Y-77490594D02*
X45236247Y-77538213D01*
X45236247Y-77538213D02*
X45093390Y-77538213D01*
X45093390Y-77538213D02*
X44902914Y-77490594D01*
X44902914Y-77490594D02*
X44807676Y-77442975D01*
X44807676Y-77442975D02*
X44712438Y-77347737D01*
X44712438Y-77347737D02*
X44664819Y-77204880D01*
X44664819Y-77204880D02*
X44664819Y-77109642D01*
X44664819Y-77109642D02*
X44712438Y-76966785D01*
X44712438Y-76966785D02*
X44760057Y-76919166D01*
X44760057Y-76538213D02*
X44712438Y-76490594D01*
X44712438Y-76490594D02*
X44664819Y-76395356D01*
X44664819Y-76395356D02*
X44664819Y-76157261D01*
X44664819Y-76157261D02*
X44712438Y-76062023D01*
X44712438Y-76062023D02*
X44760057Y-76014404D01*
X44760057Y-76014404D02*
X44855295Y-75966785D01*
X44855295Y-75966785D02*
X44950533Y-75966785D01*
X44950533Y-75966785D02*
X45093390Y-76014404D01*
X45093390Y-76014404D02*
X45664819Y-76585832D01*
X45664819Y-76585832D02*
X45664819Y-75966785D01*
X27723333Y-82382080D02*
X27675714Y-82429700D01*
X27675714Y-82429700D02*
X27532857Y-82477319D01*
X27532857Y-82477319D02*
X27437619Y-82477319D01*
X27437619Y-82477319D02*
X27294762Y-82429700D01*
X27294762Y-82429700D02*
X27199524Y-82334461D01*
X27199524Y-82334461D02*
X27151905Y-82239223D01*
X27151905Y-82239223D02*
X27104286Y-82048747D01*
X27104286Y-82048747D02*
X27104286Y-81905890D01*
X27104286Y-81905890D02*
X27151905Y-81715414D01*
X27151905Y-81715414D02*
X27199524Y-81620176D01*
X27199524Y-81620176D02*
X27294762Y-81524938D01*
X27294762Y-81524938D02*
X27437619Y-81477319D01*
X27437619Y-81477319D02*
X27532857Y-81477319D01*
X27532857Y-81477319D02*
X27675714Y-81524938D01*
X27675714Y-81524938D02*
X27723333Y-81572557D01*
X28294762Y-81905890D02*
X28199524Y-81858271D01*
X28199524Y-81858271D02*
X28151905Y-81810652D01*
X28151905Y-81810652D02*
X28104286Y-81715414D01*
X28104286Y-81715414D02*
X28104286Y-81667795D01*
X28104286Y-81667795D02*
X28151905Y-81572557D01*
X28151905Y-81572557D02*
X28199524Y-81524938D01*
X28199524Y-81524938D02*
X28294762Y-81477319D01*
X28294762Y-81477319D02*
X28485238Y-81477319D01*
X28485238Y-81477319D02*
X28580476Y-81524938D01*
X28580476Y-81524938D02*
X28628095Y-81572557D01*
X28628095Y-81572557D02*
X28675714Y-81667795D01*
X28675714Y-81667795D02*
X28675714Y-81715414D01*
X28675714Y-81715414D02*
X28628095Y-81810652D01*
X28628095Y-81810652D02*
X28580476Y-81858271D01*
X28580476Y-81858271D02*
X28485238Y-81905890D01*
X28485238Y-81905890D02*
X28294762Y-81905890D01*
X28294762Y-81905890D02*
X28199524Y-81953509D01*
X28199524Y-81953509D02*
X28151905Y-82001128D01*
X28151905Y-82001128D02*
X28104286Y-82096366D01*
X28104286Y-82096366D02*
X28104286Y-82286842D01*
X28104286Y-82286842D02*
X28151905Y-82382080D01*
X28151905Y-82382080D02*
X28199524Y-82429700D01*
X28199524Y-82429700D02*
X28294762Y-82477319D01*
X28294762Y-82477319D02*
X28485238Y-82477319D01*
X28485238Y-82477319D02*
X28580476Y-82429700D01*
X28580476Y-82429700D02*
X28628095Y-82382080D01*
X28628095Y-82382080D02*
X28675714Y-82286842D01*
X28675714Y-82286842D02*
X28675714Y-82096366D01*
X28675714Y-82096366D02*
X28628095Y-82001128D01*
X28628095Y-82001128D02*
X28580476Y-81953509D01*
X28580476Y-81953509D02*
X28485238Y-81905890D01*
X66738095Y-18104819D02*
X66738095Y-17104819D01*
X66738095Y-17581009D02*
X67309523Y-17581009D01*
X67309523Y-18104819D02*
X67309523Y-17104819D01*
X67738095Y-17200057D02*
X67785714Y-17152438D01*
X67785714Y-17152438D02*
X67880952Y-17104819D01*
X67880952Y-17104819D02*
X68119047Y-17104819D01*
X68119047Y-17104819D02*
X68214285Y-17152438D01*
X68214285Y-17152438D02*
X68261904Y-17200057D01*
X68261904Y-17200057D02*
X68309523Y-17295295D01*
X68309523Y-17295295D02*
X68309523Y-17390533D01*
X68309523Y-17390533D02*
X68261904Y-17533390D01*
X68261904Y-17533390D02*
X67690476Y-18104819D01*
X67690476Y-18104819D02*
X68309523Y-18104819D01*
X47536660Y-63246604D02*
X48012850Y-63246604D01*
X47441422Y-63532319D02*
X47774755Y-62532319D01*
X47774755Y-62532319D02*
X48108088Y-63532319D01*
X48965231Y-63532319D02*
X48393803Y-63532319D01*
X48679517Y-63532319D02*
X48679517Y-62532319D01*
X48679517Y-62532319D02*
X48584279Y-62675176D01*
X48584279Y-62675176D02*
X48489041Y-62770414D01*
X48489041Y-62770414D02*
X48393803Y-62818033D01*
X66738095Y-105804819D02*
X66738095Y-104804819D01*
X66738095Y-105281009D02*
X67309523Y-105281009D01*
X67309523Y-105804819D02*
X67309523Y-104804819D01*
X68214285Y-105138152D02*
X68214285Y-105804819D01*
X67976190Y-104757200D02*
X67738095Y-105471485D01*
X67738095Y-105471485D02*
X68357142Y-105471485D01*
X25559580Y-101992976D02*
X25607200Y-102040595D01*
X25607200Y-102040595D02*
X25654819Y-102183452D01*
X25654819Y-102183452D02*
X25654819Y-102278690D01*
X25654819Y-102278690D02*
X25607200Y-102421547D01*
X25607200Y-102421547D02*
X25511961Y-102516785D01*
X25511961Y-102516785D02*
X25416723Y-102564404D01*
X25416723Y-102564404D02*
X25226247Y-102612023D01*
X25226247Y-102612023D02*
X25083390Y-102612023D01*
X25083390Y-102612023D02*
X24892914Y-102564404D01*
X24892914Y-102564404D02*
X24797676Y-102516785D01*
X24797676Y-102516785D02*
X24702438Y-102421547D01*
X24702438Y-102421547D02*
X24654819Y-102278690D01*
X24654819Y-102278690D02*
X24654819Y-102183452D01*
X24654819Y-102183452D02*
X24702438Y-102040595D01*
X24702438Y-102040595D02*
X24750057Y-101992976D01*
X25654819Y-101564404D02*
X24654819Y-101564404D01*
X24654819Y-101564404D02*
X25654819Y-100992976D01*
X25654819Y-100992976D02*
X24654819Y-100992976D01*
X25654819Y-99992976D02*
X25654819Y-100564404D01*
X25654819Y-100278690D02*
X24654819Y-100278690D01*
X24654819Y-100278690D02*
X24797676Y-100373928D01*
X24797676Y-100373928D02*
X24892914Y-100469166D01*
X24892914Y-100469166D02*
X24940533Y-100564404D01*
X26569580Y-77819166D02*
X26617200Y-77866785D01*
X26617200Y-77866785D02*
X26664819Y-78009642D01*
X26664819Y-78009642D02*
X26664819Y-78104880D01*
X26664819Y-78104880D02*
X26617200Y-78247737D01*
X26617200Y-78247737D02*
X26521961Y-78342975D01*
X26521961Y-78342975D02*
X26426723Y-78390594D01*
X26426723Y-78390594D02*
X26236247Y-78438213D01*
X26236247Y-78438213D02*
X26093390Y-78438213D01*
X26093390Y-78438213D02*
X25902914Y-78390594D01*
X25902914Y-78390594D02*
X25807676Y-78342975D01*
X25807676Y-78342975D02*
X25712438Y-78247737D01*
X25712438Y-78247737D02*
X25664819Y-78104880D01*
X25664819Y-78104880D02*
X25664819Y-78009642D01*
X25664819Y-78009642D02*
X25712438Y-77866785D01*
X25712438Y-77866785D02*
X25760057Y-77819166D01*
X25664819Y-76962023D02*
X25664819Y-77152499D01*
X25664819Y-77152499D02*
X25712438Y-77247737D01*
X25712438Y-77247737D02*
X25760057Y-77295356D01*
X25760057Y-77295356D02*
X25902914Y-77390594D01*
X25902914Y-77390594D02*
X26093390Y-77438213D01*
X26093390Y-77438213D02*
X26474342Y-77438213D01*
X26474342Y-77438213D02*
X26569580Y-77390594D01*
X26569580Y-77390594D02*
X26617200Y-77342975D01*
X26617200Y-77342975D02*
X26664819Y-77247737D01*
X26664819Y-77247737D02*
X26664819Y-77057261D01*
X26664819Y-77057261D02*
X26617200Y-76962023D01*
X26617200Y-76962023D02*
X26569580Y-76914404D01*
X26569580Y-76914404D02*
X26474342Y-76866785D01*
X26474342Y-76866785D02*
X26236247Y-76866785D01*
X26236247Y-76866785D02*
X26141009Y-76914404D01*
X26141009Y-76914404D02*
X26093390Y-76962023D01*
X26093390Y-76962023D02*
X26045771Y-77057261D01*
X26045771Y-77057261D02*
X26045771Y-77247737D01*
X26045771Y-77247737D02*
X26093390Y-77342975D01*
X26093390Y-77342975D02*
X26141009Y-77390594D01*
X26141009Y-77390594D02*
X26236247Y-77438213D01*
X13738095Y-18104819D02*
X13738095Y-17104819D01*
X13738095Y-17581009D02*
X14309523Y-17581009D01*
X14309523Y-18104819D02*
X14309523Y-17104819D01*
X15309523Y-18104819D02*
X14738095Y-18104819D01*
X15023809Y-18104819D02*
X15023809Y-17104819D01*
X15023809Y-17104819D02*
X14928571Y-17247676D01*
X14928571Y-17247676D02*
X14833333Y-17342914D01*
X14833333Y-17342914D02*
X14738095Y-17390533D01*
X53929580Y-26845357D02*
X53977200Y-26892976D01*
X53977200Y-26892976D02*
X54024819Y-27035833D01*
X54024819Y-27035833D02*
X54024819Y-27131071D01*
X54024819Y-27131071D02*
X53977200Y-27273928D01*
X53977200Y-27273928D02*
X53881961Y-27369166D01*
X53881961Y-27369166D02*
X53786723Y-27416785D01*
X53786723Y-27416785D02*
X53596247Y-27464404D01*
X53596247Y-27464404D02*
X53453390Y-27464404D01*
X53453390Y-27464404D02*
X53262914Y-27416785D01*
X53262914Y-27416785D02*
X53167676Y-27369166D01*
X53167676Y-27369166D02*
X53072438Y-27273928D01*
X53072438Y-27273928D02*
X53024819Y-27131071D01*
X53024819Y-27131071D02*
X53024819Y-27035833D01*
X53024819Y-27035833D02*
X53072438Y-26892976D01*
X53072438Y-26892976D02*
X53120057Y-26845357D01*
X54024819Y-25892976D02*
X54024819Y-26464404D01*
X54024819Y-26178690D02*
X53024819Y-26178690D01*
X53024819Y-26178690D02*
X53167676Y-26273928D01*
X53167676Y-26273928D02*
X53262914Y-26369166D01*
X53262914Y-26369166D02*
X53310533Y-26464404D01*
X53024819Y-25559642D02*
X53024819Y-24892976D01*
X53024819Y-24892976D02*
X54024819Y-25321547D01*
X35128095Y-76157319D02*
X35128095Y-76966842D01*
X35128095Y-76966842D02*
X35175714Y-77062080D01*
X35175714Y-77062080D02*
X35223333Y-77109700D01*
X35223333Y-77109700D02*
X35318571Y-77157319D01*
X35318571Y-77157319D02*
X35509047Y-77157319D01*
X35509047Y-77157319D02*
X35604285Y-77109700D01*
X35604285Y-77109700D02*
X35651904Y-77062080D01*
X35651904Y-77062080D02*
X35699523Y-76966842D01*
X35699523Y-76966842D02*
X35699523Y-76157319D01*
X36699523Y-77157319D02*
X36128095Y-77157319D01*
X36413809Y-77157319D02*
X36413809Y-76157319D01*
X36413809Y-76157319D02*
X36318571Y-76300176D01*
X36318571Y-76300176D02*
X36223333Y-76395414D01*
X36223333Y-76395414D02*
X36128095Y-76443033D01*
X32448300Y-74157319D02*
X32448300Y-74395414D01*
X32210205Y-74300176D02*
X32448300Y-74395414D01*
X32448300Y-74395414D02*
X32686395Y-74300176D01*
X32305443Y-74585890D02*
X32448300Y-74395414D01*
X32448300Y-74395414D02*
X32591157Y-74585890D01*
X32448300Y-74157319D02*
X32448300Y-74395414D01*
X32210205Y-74300176D02*
X32448300Y-74395414D01*
X32448300Y-74395414D02*
X32686395Y-74300176D01*
X32305443Y-74585890D02*
X32448300Y-74395414D01*
X32448300Y-74395414D02*
X32591157Y-74585890D01*
X39747142Y-81882080D02*
X39699523Y-81929700D01*
X39699523Y-81929700D02*
X39556666Y-81977319D01*
X39556666Y-81977319D02*
X39461428Y-81977319D01*
X39461428Y-81977319D02*
X39318571Y-81929700D01*
X39318571Y-81929700D02*
X39223333Y-81834461D01*
X39223333Y-81834461D02*
X39175714Y-81739223D01*
X39175714Y-81739223D02*
X39128095Y-81548747D01*
X39128095Y-81548747D02*
X39128095Y-81405890D01*
X39128095Y-81405890D02*
X39175714Y-81215414D01*
X39175714Y-81215414D02*
X39223333Y-81120176D01*
X39223333Y-81120176D02*
X39318571Y-81024938D01*
X39318571Y-81024938D02*
X39461428Y-80977319D01*
X39461428Y-80977319D02*
X39556666Y-80977319D01*
X39556666Y-80977319D02*
X39699523Y-81024938D01*
X39699523Y-81024938D02*
X39747142Y-81072557D01*
X40699523Y-81977319D02*
X40128095Y-81977319D01*
X40413809Y-81977319D02*
X40413809Y-80977319D01*
X40413809Y-80977319D02*
X40318571Y-81120176D01*
X40318571Y-81120176D02*
X40223333Y-81215414D01*
X40223333Y-81215414D02*
X40128095Y-81263033D01*
X41032857Y-80977319D02*
X41651904Y-80977319D01*
X41651904Y-80977319D02*
X41318571Y-81358271D01*
X41318571Y-81358271D02*
X41461428Y-81358271D01*
X41461428Y-81358271D02*
X41556666Y-81405890D01*
X41556666Y-81405890D02*
X41604285Y-81453509D01*
X41604285Y-81453509D02*
X41651904Y-81548747D01*
X41651904Y-81548747D02*
X41651904Y-81786842D01*
X41651904Y-81786842D02*
X41604285Y-81882080D01*
X41604285Y-81882080D02*
X41556666Y-81929700D01*
X41556666Y-81929700D02*
X41461428Y-81977319D01*
X41461428Y-81977319D02*
X41175714Y-81977319D01*
X41175714Y-81977319D02*
X41080476Y-81929700D01*
X41080476Y-81929700D02*
X41032857Y-81882080D01*
%TO.C,J3*%
D12*
X37500000Y-98800000D02*
X49500000Y-98800000D01*
X37500000Y-109800000D02*
X37500000Y-98800000D01*
X39000000Y-109800000D02*
X37500000Y-109800000D01*
X39000000Y-111000000D02*
X39000000Y-109800000D01*
X40500000Y-111000000D02*
X39000000Y-111000000D01*
X40500000Y-112800000D02*
X40500000Y-111000000D01*
X41500000Y-109800000D02*
X41500000Y-112800000D01*
X45500000Y-109800000D02*
X41500000Y-109800000D01*
X45500000Y-112800000D02*
X45500000Y-109800000D01*
X46500000Y-111000000D02*
X46500000Y-112800000D01*
X46500000Y-112800000D02*
X40500000Y-112800000D01*
X48000000Y-109800000D02*
X48000000Y-111000000D01*
X48000000Y-111000000D02*
X46500000Y-111000000D01*
X49500000Y-98800000D02*
X49500000Y-109800000D01*
X49500000Y-109800000D02*
X48000000Y-109800000D01*
%TO.C,C5*%
X29678748Y-72467500D02*
X30201252Y-72467500D01*
X29678748Y-73937500D02*
X30201252Y-73937500D01*
%TO.C,C18*%
X60765000Y-25788748D02*
X60765000Y-26311252D01*
X62235000Y-25788748D02*
X62235000Y-26311252D01*
%TO.C,C15*%
X51705000Y-16441248D02*
X51705000Y-16963752D01*
X53175000Y-16441248D02*
X53175000Y-16963752D01*
%TO.C,C3*%
X31678748Y-79967500D02*
X32201252Y-79967500D01*
X31678748Y-81437500D02*
X32201252Y-81437500D01*
%TO.C,C10*%
X44128748Y-78967500D02*
X44651252Y-78967500D01*
X44128748Y-80437500D02*
X44651252Y-80437500D01*
%TO.C,U2*%
X56090000Y-15440000D02*
X57910000Y-15440000D01*
X56090000Y-15490000D02*
X56090000Y-15440000D01*
X56090000Y-18560000D02*
X56090000Y-18510000D01*
X57910000Y-15440000D02*
X57910000Y-15490000D01*
X57910000Y-16610000D02*
X57910000Y-17390000D01*
X57910000Y-18510000D02*
X57910000Y-18560000D01*
X57910000Y-18560000D02*
X56090000Y-18560000D01*
X55550000Y-15490000D02*
X55310000Y-15160000D01*
X55790000Y-15160000D01*
X55550000Y-15490000D01*
G36*
X55550000Y-15490000D02*
G01*
X55310000Y-15160000D01*
X55790000Y-15160000D01*
X55550000Y-15490000D01*
G37*
%TO.C,C11*%
X44128748Y-82467500D02*
X44651252Y-82467500D01*
X44128748Y-83937500D02*
X44651252Y-83937500D01*
%TO.C,C16*%
X60765000Y-16738748D02*
X60765000Y-17261252D01*
X62235000Y-16738748D02*
X62235000Y-17261252D01*
%TO.C,C12*%
X37128748Y-84467500D02*
X37651252Y-84467500D01*
X37128748Y-85937500D02*
X37651252Y-85937500D01*
%TO.C,C1*%
X43145000Y-77013752D02*
X43145000Y-76491248D01*
X44615000Y-77013752D02*
X44615000Y-76491248D01*
%TO.C,C14*%
X40155000Y-79941248D02*
X40155000Y-80463752D01*
X41625000Y-79941248D02*
X41625000Y-80463752D01*
%TO.C,U3*%
X55590000Y-24440000D02*
X57410000Y-24440000D01*
X55590000Y-24490000D02*
X55590000Y-24440000D01*
X55590000Y-27560000D02*
X55590000Y-27510000D01*
X57410000Y-24440000D02*
X57410000Y-24490000D01*
X57410000Y-25610000D02*
X57410000Y-26390000D01*
X57410000Y-27510000D02*
X57410000Y-27560000D01*
X57410000Y-27560000D02*
X55590000Y-27560000D01*
X55050000Y-24490000D02*
X54810000Y-24160000D01*
X55290000Y-24160000D01*
X55050000Y-24490000D01*
G36*
X55050000Y-24490000D02*
G01*
X54810000Y-24160000D01*
X55290000Y-24160000D01*
X55050000Y-24490000D01*
G37*
%TO.C,C9*%
X26178748Y-73967500D02*
X26701252Y-73967500D01*
X26178748Y-75437500D02*
X26701252Y-75437500D01*
%TO.C,C7*%
X27678748Y-80467500D02*
X28201252Y-80467500D01*
X27678748Y-81937500D02*
X28201252Y-81937500D01*
%TO.C,C4*%
X39128748Y-70467500D02*
X39651252Y-70467500D01*
X39128748Y-71937500D02*
X39651252Y-71937500D01*
%TO.C,C2*%
X46155000Y-77013752D02*
X46155000Y-76491248D01*
X47625000Y-77013752D02*
X47625000Y-76491248D01*
%TO.C,C8*%
X27628748Y-82967500D02*
X28151252Y-82967500D01*
X27628748Y-84437500D02*
X28151252Y-84437500D01*
%TO.C,A1*%
X24570000Y-14982500D02*
X24570000Y-13382500D01*
X24890000Y-13312500D02*
X24890000Y-63312500D01*
X25230000Y-12765500D02*
X25230000Y-63859500D01*
X25500000Y-12702500D02*
X27990000Y-12702500D01*
X25500000Y-63922500D02*
X29337939Y-63922500D01*
X27990000Y-12702500D02*
X27990000Y-13616020D01*
X27990000Y-12702500D02*
X29337940Y-12702500D01*
X27990000Y-16008980D02*
X27990000Y-60616020D01*
X27990000Y-63008980D02*
X27990000Y-63922500D01*
X30262061Y-12702500D02*
X31265000Y-12702500D01*
X31265000Y-12702500D02*
X39735000Y-12702500D01*
X31390000Y-11402500D02*
X31390000Y-12222500D01*
X31390000Y-11402500D02*
X39610000Y-11402500D01*
X31390000Y-12222500D02*
X31600000Y-12222500D01*
X31600000Y-12222500D02*
X31600000Y-13618500D01*
X31600000Y-16006500D02*
X31600000Y-17222500D01*
X31900000Y-63922500D02*
X30262061Y-63922500D01*
X39100000Y-63922500D02*
X31900000Y-63922500D01*
X39400000Y-12222500D02*
X39400000Y-13618500D01*
X39400000Y-16006500D02*
X39400000Y-17222500D01*
X39400000Y-17222500D02*
X31600000Y-17222500D01*
X39610000Y-11402500D02*
X39610000Y-12222500D01*
X39610000Y-12222500D02*
X39400000Y-12222500D01*
X39735000Y-12702500D02*
X40737939Y-12702500D01*
X40737939Y-63922500D02*
X39100000Y-63922500D01*
X41662061Y-12702500D02*
X43010000Y-12702500D01*
X41662061Y-63922500D02*
X45500000Y-63922500D01*
X43010000Y-12702500D02*
X43010000Y-13616020D01*
X43010000Y-16008980D02*
X43010000Y-60616020D01*
X43010000Y-63008980D02*
X43010000Y-63922500D01*
X45500000Y-12702500D02*
X43010000Y-12702500D01*
X45770000Y-63859500D02*
X45770000Y-12765500D01*
X46110000Y-13312500D02*
X46110000Y-63312500D01*
X24890000Y-13312500D02*
G75*
G02*
X25500000Y-12702500I610000J0D01*
G01*
X25500000Y-63922500D02*
G75*
G02*
X24890000Y-63312500I-99J609901D01*
G01*
X45500000Y-12702500D02*
G75*
G02*
X46110000Y-13312500I0J-610000D01*
G01*
X46110000Y-63312500D02*
G75*
G02*
X45500000Y-63922500I-610000J0D01*
G01*
%TO.C,CN1*%
D13*
X21060000Y-97832500D02*
X21060000Y-95122500D01*
X21060000Y-110772500D02*
X21060000Y-100272500D01*
X21060000Y-110772500D02*
X29440000Y-110772500D01*
X22000000Y-110802500D02*
X28500000Y-110802500D01*
X22000000Y-114302500D02*
X22000000Y-110802500D01*
X24160000Y-93762500D02*
X25990000Y-93762500D01*
X28500000Y-110802500D02*
X28500000Y-114302500D01*
X28500000Y-114302500D02*
X22000000Y-114302500D01*
X29440000Y-97832500D02*
X29440000Y-95122500D01*
X29440000Y-110772500D02*
X29440000Y-100272500D01*
D14*
X20530000Y-114432500D02*
G75*
G02*
X20470000Y-114432500I-30000J0D01*
G01*
X20470000Y-114432500D02*
G75*
G02*
X20530000Y-114432500I30000J0D01*
G01*
%TO.C,C6*%
D12*
X27155000Y-77913752D02*
X27155000Y-77391248D01*
X28625000Y-77913752D02*
X28625000Y-77391248D01*
%TO.C,C17*%
X51155000Y-25941248D02*
X51155000Y-26463752D01*
X52625000Y-25941248D02*
X52625000Y-26463752D01*
%TO.C,U1*%
D15*
X33261100Y-74073600D02*
X33261100Y-74468161D01*
X33261100Y-78936839D02*
X33261100Y-79331400D01*
X33261100Y-79331400D02*
X33655661Y-79331400D01*
X33655661Y-74073600D02*
X33261100Y-74073600D01*
X38124339Y-79331400D02*
X38518900Y-79331400D01*
X38518900Y-74073600D02*
X38124339Y-74073600D01*
X38518900Y-74468161D02*
X38518900Y-74073600D01*
X38518900Y-79331400D02*
X38518900Y-78936839D01*
D16*
G36*
X32829300Y-78692999D02*
G01*
X32575300Y-78692999D01*
X32575300Y-78311999D01*
X32829300Y-78311999D01*
X32829300Y-78692999D01*
G37*
G36*
X34280501Y-73641800D02*
G01*
X33899501Y-73641800D01*
X33899501Y-73387800D01*
X34280501Y-73387800D01*
X34280501Y-73641800D01*
G37*
G36*
X37880499Y-80017200D02*
G01*
X37499499Y-80017200D01*
X37499499Y-79763200D01*
X37880499Y-79763200D01*
X37880499Y-80017200D01*
G37*
G36*
X39204700Y-75093001D02*
G01*
X38950700Y-75093001D01*
X38950700Y-74712001D01*
X39204700Y-74712001D01*
X39204700Y-75093001D01*
G37*
%TO.C,C13*%
D12*
X40128748Y-82467500D02*
X40651252Y-82467500D01*
X40128748Y-83937500D02*
X40651252Y-83937500D01*
%TD*%
M02*
