%TF.GenerationSoftware,KiCad,Pcbnew,10.0.3*%
%TF.CreationDate,2026-08-16T00:29:14+05:30*%
%TF.ProjectId,Positron,506f7369-7472-46f6-9e2e-6b696361645f,rev?*%
%TF.SameCoordinates,Original*%
%TF.FileFunction,Paste,Top*%
%TF.FilePolarity,Positive*%
%FSLAX46Y46*%
G04 Gerber Fmt 4.6, Leading zero omitted, Abs format (unit mm)*
G04 Created by KiCad (PCBNEW 10.0.3) date 2026-08-16 00:29:14*
%MOMM*%
%LPD*%
G01*
G04 APERTURE LIST*
G04 Aperture macros list*
%AMRoundRect*
0 Rectangle with rounded corners*
0 $1 Rounding radius*
0 $2 $3 $4 $5 $6 $7 $8 $9 X,Y pos of 4 corners*
0 Add a 4 corners polygon primitive as box body*
4,1,4,$2,$3,$4,$5,$6,$7,$8,$9,$2,$3,0*
0 Add four circle primitives for the rounded corners*
1,1,$1+$1,$2,$3*
1,1,$1+$1,$4,$5*
1,1,$1+$1,$6,$7*
1,1,$1+$1,$8,$9*
0 Add four rect primitives between the rounded corners*
20,1,$1+$1,$2,$3,$4,$5,0*
20,1,$1+$1,$4,$5,$6,$7,0*
20,1,$1+$1,$6,$7,$8,$9,0*
20,1,$1+$1,$8,$9,$2,$3,0*%
G04 Aperture macros list end*
%ADD10C,0.000000*%
%ADD11RoundRect,0.250000X-0.250000X-0.475000X0.250000X-0.475000X0.250000X0.475000X-0.250000X0.475000X0*%
%ADD12RoundRect,0.250000X-0.475000X0.250000X-0.475000X-0.250000X0.475000X-0.250000X0.475000X0.250000X0*%
%ADD13RoundRect,0.150000X-0.512500X-0.150000X0.512500X-0.150000X0.512500X0.150000X-0.512500X0.150000X0*%
%ADD14RoundRect,0.250000X0.475000X-0.250000X0.475000X0.250000X-0.475000X0.250000X-0.475000X-0.250000X0*%
%ADD15R,0.762000X0.203200*%
%ADD16R,0.203200X0.762000*%
%ADD17R,3.606800X3.606800*%
G04 APERTURE END LIST*
D10*
%TO.C,U1*%
G36*
X35790000Y-76602500D02*
G01*
X34186600Y-76602500D01*
X34186600Y-74999100D01*
X35790000Y-74999100D01*
X35790000Y-76602500D01*
G37*
G36*
X35790000Y-78405900D02*
G01*
X34186600Y-78405900D01*
X34186600Y-76802500D01*
X35790000Y-76802500D01*
X35790000Y-78405900D01*
G37*
G36*
X37593400Y-76602500D02*
G01*
X35990000Y-76602500D01*
X35990000Y-74999100D01*
X37593400Y-74999100D01*
X37593400Y-76602500D01*
G37*
G36*
X37593400Y-78405900D02*
G01*
X35990000Y-78405900D01*
X35990000Y-76802500D01*
X37593400Y-76802500D01*
X37593400Y-78405900D01*
G37*
%TD*%
D11*
%TO.C,C5*%
X28990000Y-73202500D03*
X30890000Y-73202500D03*
%TD*%
D12*
%TO.C,C18*%
X61500000Y-25100000D03*
X61500000Y-27000000D03*
%TD*%
%TO.C,C15*%
X52440000Y-15752500D03*
X52440000Y-17652500D03*
%TD*%
D11*
%TO.C,C3*%
X30990000Y-80702500D03*
X32890000Y-80702500D03*
%TD*%
%TO.C,C10*%
X43440000Y-79702500D03*
X45340000Y-79702500D03*
%TD*%
D13*
%TO.C,U2*%
X55862500Y-16050000D03*
X55862500Y-17000000D03*
X55862500Y-17950000D03*
X58137500Y-17950000D03*
X58137500Y-16050000D03*
%TD*%
D11*
%TO.C,C11*%
X43440000Y-83202500D03*
X45340000Y-83202500D03*
%TD*%
D12*
%TO.C,C16*%
X61500000Y-16050000D03*
X61500000Y-17950000D03*
%TD*%
D11*
%TO.C,C12*%
X36440000Y-85202500D03*
X38340000Y-85202500D03*
%TD*%
D14*
%TO.C,C1*%
X43880000Y-77702500D03*
X43880000Y-75802500D03*
%TD*%
D12*
%TO.C,C14*%
X40890000Y-79252500D03*
X40890000Y-81152500D03*
%TD*%
D13*
%TO.C,U3*%
X55362500Y-25050000D03*
X55362500Y-26000000D03*
X55362500Y-26950000D03*
X57637500Y-26950000D03*
X57637500Y-25050000D03*
%TD*%
D11*
%TO.C,C9*%
X25490000Y-74702500D03*
X27390000Y-74702500D03*
%TD*%
%TO.C,C7*%
X26990000Y-81202500D03*
X28890000Y-81202500D03*
%TD*%
%TO.C,C4*%
X38440000Y-71202500D03*
X40340000Y-71202500D03*
%TD*%
D14*
%TO.C,C2*%
X46890000Y-77702500D03*
X46890000Y-75802500D03*
%TD*%
D11*
%TO.C,C8*%
X26940000Y-83702500D03*
X28840000Y-83702500D03*
%TD*%
D14*
%TO.C,C6*%
X27890000Y-78602500D03*
X27890000Y-76702500D03*
%TD*%
D12*
%TO.C,C17*%
X51890000Y-25252500D03*
X51890000Y-27152500D03*
%TD*%
D15*
%TO.C,U1*%
X33464300Y-74902501D03*
X33464300Y-75302500D03*
X33464300Y-75702499D03*
X33464300Y-76102501D03*
X33464300Y-76502500D03*
X33464300Y-76902500D03*
X33464300Y-77302499D03*
X33464300Y-77702501D03*
X33464300Y-78102500D03*
X33464300Y-78502499D03*
D16*
X34090001Y-79128200D03*
X34490000Y-79128200D03*
X34889999Y-79128200D03*
X35290001Y-79128200D03*
X35690000Y-79128200D03*
X36090000Y-79128200D03*
X36489999Y-79128200D03*
X36890001Y-79128200D03*
X37290000Y-79128200D03*
X37689999Y-79128200D03*
D15*
X38315700Y-78502499D03*
X38315700Y-78102500D03*
X38315700Y-77702501D03*
X38315700Y-77302499D03*
X38315700Y-76902500D03*
X38315700Y-76502500D03*
X38315700Y-76102501D03*
X38315700Y-75702499D03*
X38315700Y-75302500D03*
X38315700Y-74902501D03*
D16*
X37689999Y-74276800D03*
X37290000Y-74276800D03*
X36890001Y-74276800D03*
X36489999Y-74276800D03*
X36090000Y-74276800D03*
X35690000Y-74276800D03*
X35290001Y-74276800D03*
X34889999Y-74276800D03*
X34490000Y-74276800D03*
X34090001Y-74276800D03*
D17*
X35890000Y-76702500D03*
%TD*%
D11*
%TO.C,C13*%
X39440000Y-83202500D03*
X41340000Y-83202500D03*
%TD*%
M02*
