%TF.GenerationSoftware,KiCad,Pcbnew,10.0.3*%
%TF.CreationDate,2026-08-16T00:29:13+05:30*%
%TF.ProjectId,Positron,506f7369-7472-46f6-9e2e-6b696361645f,rev?*%
%TF.SameCoordinates,Original*%
%TF.FileFunction,Copper,L3,Inr*%
%TF.FilePolarity,Positive*%
%FSLAX46Y46*%
G04 Gerber Fmt 4.6, Leading zero omitted, Abs format (unit mm)*
G04 Created by KiCad (PCBNEW 10.0.3) date 2026-08-16 00:29:13*
%MOMM*%
%LPD*%
G01*
G04 APERTURE LIST*
G04 Aperture macros list*
%AMRoundRect*
0 Rectangle with rounded corners*
0 $1 Rounding radius*
0 $2 $3 $4 $5 $6 $7 $8 $9 X,Y pos of 4 corners*
0 Add a 4 corners polygon primitive as box body*
4,1,4,$2,$3,$4,$5,$6,$7,$8,$9,$2,$3,0*
0 Add four circle primitives for the rounded corners*
1,1,$1+$1,$2,$3*
1,1,$1+$1,$4,$5*
1,1,$1+$1,$6,$7*
1,1,$1+$1,$8,$9*
0 Add four rect primitives between the rounded corners*
20,1,$1+$1,$2,$3,$4,$5,0*
20,1,$1+$1,$4,$5,$6,$7,0*
20,1,$1+$1,$6,$7,$8,$9,0*
20,1,$1+$1,$8,$9,$2,$3,0*%
%AMFreePoly0*
4,1,37,0.603843,0.796157,0.639018,0.796157,0.711114,0.766294,0.766294,0.711114,0.796157,0.639018,0.796157,0.603843,0.800000,0.600000,0.800000,-0.600000,0.796157,-0.603843,0.796157,-0.639018,0.766294,-0.711114,0.711114,-0.766294,0.639018,-0.796157,0.603843,-0.796157,0.600000,-0.800000,0.000000,-0.800000,0.000000,-0.796148,-0.078414,-0.796148,-0.232228,-0.765552,-0.377117,-0.705537,
-0.507515,-0.618408,-0.618408,-0.507515,-0.705537,-0.377117,-0.765552,-0.232228,-0.796148,-0.078414,-0.796148,0.078414,-0.765552,0.232228,-0.705537,0.377117,-0.618408,0.507515,-0.507515,0.618408,-0.377117,0.705537,-0.232228,0.765552,-0.078414,0.796148,0.000000,0.796148,0.000000,0.800000,0.600000,0.800000,0.603843,0.796157,0.603843,0.796157,$1*%
%AMFreePoly1*
4,1,37,0.000000,0.796148,0.078414,0.796148,0.232228,0.765552,0.377117,0.705537,0.507515,0.618408,0.618408,0.507515,0.705537,0.377117,0.765552,0.232228,0.796148,0.078414,0.796148,-0.078414,0.765552,-0.232228,0.705537,-0.377117,0.618408,-0.507515,0.507515,-0.618408,0.377117,-0.705537,0.232228,-0.765552,0.078414,-0.796148,0.000000,-0.796148,0.000000,-0.800000,-0.600000,-0.800000,
-0.603843,-0.796157,-0.639018,-0.796157,-0.711114,-0.766294,-0.766294,-0.711114,-0.796157,-0.639018,-0.796157,-0.603843,-0.800000,-0.600000,-0.800000,0.600000,-0.796157,0.603843,-0.796157,0.639018,-0.766294,0.711114,-0.711114,0.766294,-0.639018,0.796157,-0.603843,0.796157,-0.600000,0.800000,0.000000,0.800000,0.000000,0.796148,0.000000,0.796148,$1*%
G04 Aperture macros list end*
%TA.AperFunction,ComponentPad*%
%ADD10O,1.200000X2.200000*%
%TD*%
%TA.AperFunction,ComponentPad*%
%ADD11O,1.600000X2.300000*%
%TD*%
%TA.AperFunction,ComponentPad*%
%ADD12O,2.200000X1.200000*%
%TD*%
%TA.AperFunction,ComponentPad*%
%ADD13O,1.600000X2.500000*%
%TD*%
%TA.AperFunction,ComponentPad*%
%ADD14RoundRect,0.200000X-0.600000X-0.600000X0.600000X-0.600000X0.600000X0.600000X-0.600000X0.600000X0*%
%TD*%
%TA.AperFunction,ComponentPad*%
%ADD15C,1.600000*%
%TD*%
%TA.AperFunction,ComponentPad*%
%ADD16FreePoly0,0.000000*%
%TD*%
%TA.AperFunction,ComponentPad*%
%ADD17FreePoly1,0.000000*%
%TD*%
%TA.AperFunction,ComponentPad*%
%ADD18C,1.200000*%
%TD*%
%TA.AperFunction,ComponentPad*%
%ADD19O,1.400000X2.000000*%
%TD*%
%TA.AperFunction,ComponentPad*%
%ADD20O,1.300000X2.000000*%
%TD*%
%TA.AperFunction,ViaPad*%
%ADD21C,0.400000*%
%TD*%
%TA.AperFunction,Conductor*%
%ADD22C,0.200000*%
%TD*%
G04 APERTURE END LIST*
D10*
%TO.N,Net-(U1-HPOUTB)*%
%TO.C,J3*%
X38500000Y-101500000D03*
D11*
%TO.N,unconnected-(J3-PadRN)*%
X41000000Y-101500000D03*
D12*
%TO.N,GND*%
X43500000Y-106500000D03*
D10*
%TO.N,Net-(U1-HPOUTA)*%
X48500000Y-101500000D03*
D13*
%TO.N,unconnected-(J3-PadTN)*%
X46000000Y-101500000D03*
%TD*%
D14*
%TO.N,unconnected-(A1-GPIO0-Pad1)*%
%TO.C,A1*%
X26610000Y-14182500D03*
D15*
%TO.N,unconnected-(A1-GPIO1-Pad2)*%
X26610000Y-16722500D03*
D16*
%TO.N,GND*%
X26610000Y-19262500D03*
D15*
%TO.N,unconnected-(A1-GPIO2-Pad4)*%
X26610000Y-21802500D03*
%TO.N,unconnected-(A1-GPIO3-Pad5)*%
X26610000Y-24342500D03*
%TO.N,unconnected-(A1-GPIO4-Pad6)*%
X26610000Y-26882500D03*
%TO.N,unconnected-(A1-GPIO5-Pad7)*%
X26610000Y-29422500D03*
D16*
%TO.N,GND*%
X26610000Y-31962500D03*
D15*
%TO.N,unconnected-(A1-GPIO6-Pad9)*%
X26610000Y-34502500D03*
%TO.N,unconnected-(A1-GPIO7-Pad10)*%
X26610000Y-37042500D03*
%TO.N,unconnected-(A1-GPIO8-Pad11)*%
X26610000Y-39582500D03*
%TO.N,unconnected-(A1-GPIO9-Pad12)*%
X26610000Y-42122500D03*
D16*
%TO.N,GND*%
X26610000Y-44662500D03*
D15*
%TO.N,unconnected-(A1-GPIO10-Pad14)*%
X26610000Y-47202500D03*
%TO.N,Net-(A1-GPIO11)*%
X26610000Y-49742500D03*
%TO.N,unconnected-(A1-GPIO12-Pad16)*%
X26610000Y-52282500D03*
%TO.N,Net-(A1-GPIO13)*%
X26610000Y-54822500D03*
D16*
%TO.N,GND*%
X26610000Y-57362500D03*
D15*
%TO.N,Net-(A1-GPIO14)*%
X26610000Y-59902500D03*
%TO.N,Net-(A1-GPIO15)*%
X26610000Y-62442500D03*
%TO.N,unconnected-(A1-GPIO16-Pad21)*%
X44390000Y-62442500D03*
%TO.N,Net-(A1-GPIO17)*%
X44390000Y-59902500D03*
D17*
%TO.N,GND*%
X44390000Y-57362500D03*
D15*
%TO.N,Net-(A1-GPIO18)*%
X44390000Y-54822500D03*
%TO.N,unconnected-(A1-GPIO19-Pad25)*%
X44390000Y-52282500D03*
%TO.N,Net-(A1-GPIO20)*%
X44390000Y-49742500D03*
%TO.N,Net-(A1-GPIO21)*%
X44390000Y-47202500D03*
D17*
%TO.N,GND*%
X44390000Y-44662500D03*
D15*
%TO.N,unconnected-(A1-GPIO22-Pad29)*%
X44390000Y-42122500D03*
%TO.N,unconnected-(A1-RUN-Pad30)*%
X44390000Y-39582500D03*
%TO.N,unconnected-(A1-GPIO26_ADC0-Pad31)*%
X44390000Y-37042500D03*
%TO.N,unconnected-(A1-GPIO27_ADC1-Pad32)*%
X44390000Y-34502500D03*
D17*
%TO.N,unconnected-(A1-AGND-Pad33)*%
X44390000Y-31962500D03*
D15*
%TO.N,unconnected-(A1-GPIO28_ADC2-Pad34)*%
X44390000Y-29422500D03*
%TO.N,unconnected-(A1-ADC_VREF-Pad35)*%
X44390000Y-26882500D03*
%TO.N,Net-(A1-3V3)*%
X44390000Y-24342500D03*
%TO.N,unconnected-(A1-3V3_EN-Pad37)*%
X44390000Y-21802500D03*
D17*
%TO.N,GND*%
X44390000Y-19262500D03*
D15*
%TO.N,unconnected-(A1-VSYS-Pad39)*%
X44390000Y-16722500D03*
%TO.N,Net-(A1-VBUS)*%
X44390000Y-14182500D03*
%TD*%
D18*
%TO.N,*%
%TO.C,CN1*%
X25250000Y-104802500D03*
X23700000Y-97302500D03*
D19*
%TO.N,GND*%
X22000000Y-108202500D03*
%TO.N,Net-(U1-HPREFB)*%
X28500000Y-107702500D03*
X22000000Y-105502500D03*
%TO.N,Net-(U1-HPOUTB)*%
X28500000Y-105002500D03*
X22000000Y-102802500D03*
%TO.N,Net-(CN1-L-)*%
X28500000Y-102302500D03*
D20*
%TO.N,Net-(U1-HPOUTA)*%
X21800000Y-94302500D03*
X28700000Y-94302500D03*
%TO.N,GND*%
X26850000Y-94302500D03*
%TO.N,Net-(A1-GPIO11)*%
X23300000Y-94302500D03*
D19*
%TO.N,GND*%
X21200000Y-99052500D03*
X29300000Y-99052500D03*
%TD*%
D21*
%TO.N,Net-(U1-VA)*%
X32390000Y-77202500D03*
X28890000Y-78702500D03*
X40390000Y-77202500D03*
X31390000Y-75202500D03*
X59000000Y-25500000D03*
%TO.N,Net-(U1-VCP_FILT+)*%
X38890000Y-80202500D03*
X43390000Y-84702500D03*
%TO.N,Net-(U1-HPOUTB)*%
X36000000Y-80500000D03*
%TO.N,Net-(U1-HPOUTA)*%
X35390000Y-80202500D03*
%TO.N,Net-(A1-GPIO20)*%
X34390000Y-73202500D03*
%TO.N,Net-(A1-GPIO21)*%
X32390000Y-74202500D03*
%TO.N,Net-(U1-HPREFB)*%
X30390000Y-83702500D03*
%TO.N,Net-(CN1-L-)*%
X34296250Y-82296250D03*
%TD*%
%TO.N,Net-(U1-VA)*%
D22*
X32390000Y-77202500D02*
X30390000Y-77202500D01*
X31390000Y-75202500D02*
X31390000Y-76202500D01*
X31390000Y-76202500D02*
X32390000Y-77202500D01*
X59000000Y-58592500D02*
X40390000Y-77202500D01*
X30390000Y-77202500D02*
X28890000Y-78702500D01*
X59000000Y-25500000D02*
X59000000Y-58592500D01*
X32390000Y-77202500D02*
X40390000Y-77202500D01*
%TD*%
M02*
