%TF.GenerationSoftware,KiCad,Pcbnew,10.0.3*%
%TF.CreationDate,2026-08-16T00:29:13+05:30*%
%TF.ProjectId,Positron,506f7369-7472-46f6-9e2e-6b696361645f,rev?*%
%TF.SameCoordinates,Original*%
%TF.FileFunction,Copper,L1,Top*%
%TF.FilePolarity,Positive*%
%FSLAX46Y46*%
G04 Gerber Fmt 4.6, Leading zero omitted, Abs format (unit mm)*
G04 Created by KiCad (PCBNEW 10.0.3) date 2026-08-16 00:29:13*
%MOMM*%
%LPD*%
G01*
G04 APERTURE LIST*
G04 Aperture macros list*
%AMRoundRect*
0 Rectangle with rounded corners*
0 $1 Rounding radius*
0 $2 $3 $4 $5 $6 $7 $8 $9 X,Y pos of 4 corners*
0 Add a 4 corners polygon primitive as box body*
4,1,4,$2,$3,$4,$5,$6,$7,$8,$9,$2,$3,0*
0 Add four circle primitives for the rounded corners*
1,1,$1+$1,$2,$3*
1,1,$1+$1,$4,$5*
1,1,$1+$1,$6,$7*
1,1,$1+$1,$8,$9*
0 Add four rect primitives between the rounded corners*
20,1,$1+$1,$2,$3,$4,$5,0*
20,1,$1+$1,$4,$5,$6,$7,0*
20,1,$1+$1,$6,$7,$8,$9,0*
20,1,$1+$1,$8,$9,$2,$3,0*%
%AMFreePoly0*
4,1,37,0.603843,0.796157,0.639018,0.796157,0.711114,0.766294,0.766294,0.711114,0.796157,0.639018,0.796157,0.603843,0.800000,0.600000,0.800000,-0.600000,0.796157,-0.603843,0.796157,-0.639018,0.766294,-0.711114,0.711114,-0.766294,0.639018,-0.796157,0.603843,-0.796157,0.600000,-0.800000,0.000000,-0.800000,0.000000,-0.796148,-0.078414,-0.796148,-0.232228,-0.765552,-0.377117,-0.705537,
-0.507515,-0.618408,-0.618408,-0.507515,-0.705537,-0.377117,-0.765552,-0.232228,-0.796148,-0.078414,-0.796148,0.078414,-0.765552,0.232228,-0.705537,0.377117,-0.618408,0.507515,-0.507515,0.618408,-0.377117,0.705537,-0.232228,0.765552,-0.078414,0.796148,0.000000,0.796148,0.000000,0.800000,0.600000,0.800000,0.603843,0.796157,0.603843,0.796157,$1*%
%AMFreePoly1*
4,1,37,0.000000,0.796148,0.078414,0.796148,0.232228,0.765552,0.377117,0.705537,0.507515,0.618408,0.618408,0.507515,0.705537,0.377117,0.765552,0.232228,0.796148,0.078414,0.796148,-0.078414,0.765552,-0.232228,0.705537,-0.377117,0.618408,-0.507515,0.507515,-0.618408,0.377117,-0.705537,0.232228,-0.765552,0.078414,-0.796148,0.000000,-0.796148,0.000000,-0.800000,-0.600000,-0.800000,
-0.603843,-0.796157,-0.639018,-0.796157,-0.711114,-0.766294,-0.766294,-0.711114,-0.796157,-0.639018,-0.796157,-0.603843,-0.800000,-0.600000,-0.800000,0.600000,-0.796157,0.603843,-0.796157,0.639018,-0.766294,0.711114,-0.711114,0.766294,-0.639018,0.796157,-0.603843,0.796157,-0.600000,0.800000,0.000000,0.800000,0.000000,0.796148,0.000000,0.796148,$1*%
G04 Aperture macros list end*
%TA.AperFunction,ComponentPad*%
%ADD10O,1.200000X2.200000*%
%TD*%
%TA.AperFunction,ComponentPad*%
%ADD11O,1.600000X2.300000*%
%TD*%
%TA.AperFunction,ComponentPad*%
%ADD12O,2.200000X1.200000*%
%TD*%
%TA.AperFunction,ComponentPad*%
%ADD13O,1.600000X2.500000*%
%TD*%
%TA.AperFunction,SMDPad,CuDef*%
%ADD14RoundRect,0.250000X-0.250000X-0.475000X0.250000X-0.475000X0.250000X0.475000X-0.250000X0.475000X0*%
%TD*%
%TA.AperFunction,SMDPad,CuDef*%
%ADD15RoundRect,0.250000X-0.475000X0.250000X-0.475000X-0.250000X0.475000X-0.250000X0.475000X0.250000X0*%
%TD*%
%TA.AperFunction,SMDPad,CuDef*%
%ADD16RoundRect,0.150000X-0.512500X-0.150000X0.512500X-0.150000X0.512500X0.150000X-0.512500X0.150000X0*%
%TD*%
%TA.AperFunction,SMDPad,CuDef*%
%ADD17RoundRect,0.250000X0.475000X-0.250000X0.475000X0.250000X-0.475000X0.250000X-0.475000X-0.250000X0*%
%TD*%
%TA.AperFunction,ComponentPad*%
%ADD18RoundRect,0.200000X-0.600000X-0.600000X0.600000X-0.600000X0.600000X0.600000X-0.600000X0.600000X0*%
%TD*%
%TA.AperFunction,ComponentPad*%
%ADD19C,1.600000*%
%TD*%
%TA.AperFunction,ComponentPad*%
%ADD20FreePoly0,0.000000*%
%TD*%
%TA.AperFunction,ComponentPad*%
%ADD21FreePoly1,0.000000*%
%TD*%
%TA.AperFunction,ComponentPad*%
%ADD22C,1.200000*%
%TD*%
%TA.AperFunction,ComponentPad*%
%ADD23O,1.400000X2.000000*%
%TD*%
%TA.AperFunction,ComponentPad*%
%ADD24O,1.300000X2.000000*%
%TD*%
%TA.AperFunction,SMDPad,CuDef*%
%ADD25R,0.762000X0.203200*%
%TD*%
%TA.AperFunction,SMDPad,CuDef*%
%ADD26R,0.203200X0.762000*%
%TD*%
%TA.AperFunction,SMDPad,CuDef*%
%ADD27R,3.606800X3.606800*%
%TD*%
%TA.AperFunction,ViaPad*%
%ADD28C,0.400000*%
%TD*%
%TA.AperFunction,ViaPad*%
%ADD29C,0.600000*%
%TD*%
%TA.AperFunction,Conductor*%
%ADD30C,0.200000*%
%TD*%
G04 APERTURE END LIST*
D10*
%TO.P,J3,R*%
%TO.N,Net-(U1-HPOUTB)*%
X38500000Y-101500000D03*
D11*
%TO.P,J3,RN*%
%TO.N,unconnected-(J3-PadRN)*%
X41000000Y-101500000D03*
D12*
%TO.P,J3,S*%
%TO.N,GND*%
X43500000Y-106500000D03*
D10*
%TO.P,J3,T*%
%TO.N,Net-(U1-HPOUTA)*%
X48500000Y-101500000D03*
D13*
%TO.P,J3,TN*%
%TO.N,unconnected-(J3-PadTN)*%
X46000000Y-101500000D03*
%TD*%
D14*
%TO.P,C5,1*%
%TO.N,GND*%
X28990000Y-73202500D03*
%TO.P,C5,2*%
%TO.N,Net-(U1-VA)*%
X30890000Y-73202500D03*
%TD*%
D15*
%TO.P,C18,1*%
%TO.N,Net-(U1-VA)*%
X61500000Y-25100000D03*
%TO.P,C18,2*%
%TO.N,GND*%
X61500000Y-27000000D03*
%TD*%
%TO.P,C15,1*%
%TO.N,Net-(A1-VBUS)*%
X52440000Y-15752500D03*
%TO.P,C15,2*%
%TO.N,GND*%
X52440000Y-17652500D03*
%TD*%
D14*
%TO.P,C3,1*%
%TO.N,Net-(U1-FLYP_VA)*%
X30990000Y-80702500D03*
%TO.P,C3,2*%
%TO.N,Net-(U1-FLYN_VA)*%
X32890000Y-80702500D03*
%TD*%
%TO.P,C10,1*%
%TO.N,Net-(U1-VA)*%
X43440000Y-79702500D03*
%TO.P,C10,2*%
%TO.N,GND*%
X45340000Y-79702500D03*
%TD*%
D16*
%TO.P,U2,1,IN_1*%
%TO.N,Net-(A1-VBUS)*%
X55862500Y-16050000D03*
%TO.P,U2,2,GND_2*%
%TO.N,GND*%
X55862500Y-17000000D03*
%TO.P,U2,3,EN_3*%
%TO.N,Net-(A1-VBUS)*%
X55862500Y-17950000D03*
%TO.P,U2,4,NC_4*%
%TO.N,unconnected-(U2-NC-Pad4)*%
X58137500Y-17950000D03*
%TO.P,U2,5,OUT_5*%
%TO.N,Net-(U1-VP)*%
X58137500Y-16050000D03*
%TD*%
D14*
%TO.P,C11,1*%
%TO.N,Net-(U1-VCP_FILT+)*%
X43440000Y-83202500D03*
%TO.P,C11,2*%
%TO.N,GND*%
X45340000Y-83202500D03*
%TD*%
D15*
%TO.P,C16,1*%
%TO.N,Net-(U1-VP)*%
X61500000Y-16050000D03*
%TO.P,C16,2*%
%TO.N,GND*%
X61500000Y-17950000D03*
%TD*%
D14*
%TO.P,C12,1*%
%TO.N,Net-(U1-VCP_FILT-)*%
X36440000Y-85202500D03*
%TO.P,C12,2*%
%TO.N,GND*%
X38340000Y-85202500D03*
%TD*%
D17*
%TO.P,C1,1*%
%TO.N,Net-(U1-VP)*%
X43880000Y-77702500D03*
%TO.P,C1,2*%
%TO.N,GND*%
X43880000Y-75802500D03*
%TD*%
D15*
%TO.P,C14,1*%
%TO.N,Net-(U1-FLYP_VCP)*%
X40890000Y-79252500D03*
%TO.P,C14,2*%
%TO.N,Net-(U1-FLYC_VCP)*%
X40890000Y-81152500D03*
%TD*%
D16*
%TO.P,U3,1,IN_1*%
%TO.N,Net-(A1-VBUS)*%
X55362500Y-25050000D03*
%TO.P,U3,2,GND_2*%
%TO.N,GND*%
X55362500Y-26000000D03*
%TO.P,U3,3,EN_3*%
%TO.N,Net-(A1-VBUS)*%
X55362500Y-26950000D03*
%TO.P,U3,4,NC_4*%
%TO.N,unconnected-(U3-NC-Pad4)*%
X57637500Y-26950000D03*
%TO.P,U3,5,OUT_5*%
%TO.N,Net-(U1-VA)*%
X57637500Y-25050000D03*
%TD*%
D14*
%TO.P,C9,1*%
%TO.N,GND*%
X25490000Y-74702500D03*
%TO.P,C9,2*%
%TO.N,Net-(U1-VA)*%
X27390000Y-74702500D03*
%TD*%
%TO.P,C7,1*%
%TO.N,Net-(U1-FILT-)*%
X26990000Y-81202500D03*
%TO.P,C7,2*%
%TO.N,Net-(U1--VA)*%
X28890000Y-81202500D03*
%TD*%
%TO.P,C4,1*%
%TO.N,Net-(A1-3V3)*%
X38440000Y-71202500D03*
%TO.P,C4,2*%
%TO.N,GND*%
X40340000Y-71202500D03*
%TD*%
D17*
%TO.P,C2,1*%
%TO.N,Net-(U1-VP)*%
X46890000Y-77702500D03*
%TO.P,C2,2*%
%TO.N,GND*%
X46890000Y-75802500D03*
%TD*%
D14*
%TO.P,C8,1*%
%TO.N,GND*%
X26940000Y-83702500D03*
%TO.P,C8,2*%
%TO.N,Net-(U1--VA)*%
X28840000Y-83702500D03*
%TD*%
D18*
%TO.P,A1,1,GPIO0_1*%
%TO.N,unconnected-(A1-GPIO0-Pad1)*%
X26610000Y-14182500D03*
D19*
%TO.P,A1,2,GPIO1_2*%
%TO.N,unconnected-(A1-GPIO1-Pad2)*%
X26610000Y-16722500D03*
D20*
%TO.P,A1,3,GND_3*%
%TO.N,GND*%
X26610000Y-19262500D03*
D19*
%TO.P,A1,4,GPIO2_4*%
%TO.N,unconnected-(A1-GPIO2-Pad4)*%
X26610000Y-21802500D03*
%TO.P,A1,5,GPIO3_5*%
%TO.N,unconnected-(A1-GPIO3-Pad5)*%
X26610000Y-24342500D03*
%TO.P,A1,6,GPIO4_6*%
%TO.N,unconnected-(A1-GPIO4-Pad6)*%
X26610000Y-26882500D03*
%TO.P,A1,7,GPIO5_7*%
%TO.N,unconnected-(A1-GPIO5-Pad7)*%
X26610000Y-29422500D03*
D20*
%TO.P,A1,8,GND_8*%
%TO.N,GND*%
X26610000Y-31962500D03*
D19*
%TO.P,A1,9,GPIO6_9*%
%TO.N,unconnected-(A1-GPIO6-Pad9)*%
X26610000Y-34502500D03*
%TO.P,A1,10,GPIO7_10*%
%TO.N,unconnected-(A1-GPIO7-Pad10)*%
X26610000Y-37042500D03*
%TO.P,A1,11,GPIO8_11*%
%TO.N,unconnected-(A1-GPIO8-Pad11)*%
X26610000Y-39582500D03*
%TO.P,A1,12,GPIO9_12*%
%TO.N,unconnected-(A1-GPIO9-Pad12)*%
X26610000Y-42122500D03*
D20*
%TO.P,A1,13,GND_13*%
%TO.N,GND*%
X26610000Y-44662500D03*
D19*
%TO.P,A1,14,GPIO10_14*%
%TO.N,unconnected-(A1-GPIO10-Pad14)*%
X26610000Y-47202500D03*
%TO.P,A1,15,GPIO11_15*%
%TO.N,Net-(A1-GPIO11)*%
X26610000Y-49742500D03*
%TO.P,A1,16,GPIO12_16*%
%TO.N,unconnected-(A1-GPIO12-Pad16)*%
X26610000Y-52282500D03*
%TO.P,A1,17,GPIO13_17*%
%TO.N,Net-(A1-GPIO13)*%
X26610000Y-54822500D03*
D20*
%TO.P,A1,18,GND_18*%
%TO.N,GND*%
X26610000Y-57362500D03*
D19*
%TO.P,A1,19,GPIO14_19*%
%TO.N,Net-(A1-GPIO14)*%
X26610000Y-59902500D03*
%TO.P,A1,20,GPIO15_20*%
%TO.N,Net-(A1-GPIO15)*%
X26610000Y-62442500D03*
%TO.P,A1,21,GPIO16_21*%
%TO.N,unconnected-(A1-GPIO16-Pad21)*%
X44390000Y-62442500D03*
%TO.P,A1,22,GPIO17_22*%
%TO.N,Net-(A1-GPIO17)*%
X44390000Y-59902500D03*
D21*
%TO.P,A1,23,GND_23*%
%TO.N,GND*%
X44390000Y-57362500D03*
D19*
%TO.P,A1,24,GPIO18_24*%
%TO.N,Net-(A1-GPIO18)*%
X44390000Y-54822500D03*
%TO.P,A1,25,GPIO19_25*%
%TO.N,unconnected-(A1-GPIO19-Pad25)*%
X44390000Y-52282500D03*
%TO.P,A1,26,GPIO20_26*%
%TO.N,Net-(A1-GPIO20)*%
X44390000Y-49742500D03*
%TO.P,A1,27,GPIO21_27*%
%TO.N,Net-(A1-GPIO21)*%
X44390000Y-47202500D03*
D21*
%TO.P,A1,28,GND_28*%
%TO.N,GND*%
X44390000Y-44662500D03*
D19*
%TO.P,A1,29,GPIO22_29*%
%TO.N,unconnected-(A1-GPIO22-Pad29)*%
X44390000Y-42122500D03*
%TO.P,A1,30,RUN_30*%
%TO.N,unconnected-(A1-RUN-Pad30)*%
X44390000Y-39582500D03*
%TO.P,A1,31,GPIO26_ADC0_31*%
%TO.N,unconnected-(A1-GPIO26_ADC0-Pad31)*%
X44390000Y-37042500D03*
%TO.P,A1,32,GPIO27_ADC1_32*%
%TO.N,unconnected-(A1-GPIO27_ADC1-Pad32)*%
X44390000Y-34502500D03*
D21*
%TO.P,A1,33,AGND_33*%
%TO.N,unconnected-(A1-AGND-Pad33)*%
X44390000Y-31962500D03*
D19*
%TO.P,A1,34,GPIO28_ADC2_34*%
%TO.N,unconnected-(A1-GPIO28_ADC2-Pad34)*%
X44390000Y-29422500D03*
%TO.P,A1,35,ADC_VREF_35*%
%TO.N,unconnected-(A1-ADC_VREF-Pad35)*%
X44390000Y-26882500D03*
%TO.P,A1,36,3V3_36*%
%TO.N,Net-(A1-3V3)*%
X44390000Y-24342500D03*
%TO.P,A1,37,3V3_EN_37*%
%TO.N,unconnected-(A1-3V3_EN-Pad37)*%
X44390000Y-21802500D03*
D21*
%TO.P,A1,38,GND_38*%
%TO.N,GND*%
X44390000Y-19262500D03*
D19*
%TO.P,A1,39,VSYS_39*%
%TO.N,unconnected-(A1-VSYS-Pad39)*%
X44390000Y-16722500D03*
%TO.P,A1,40,VBUS_40*%
%TO.N,Net-(A1-VBUS)*%
X44390000Y-14182500D03*
%TD*%
D22*
%TO.P,CN1,*%
%TO.N,*%
X25250000Y-104802500D03*
X23700000Y-97302500D03*
D23*
%TO.P,CN1,1,GND_1*%
%TO.N,GND*%
X22000000Y-108202500D03*
%TO.P,CN1,2,R-_2*%
%TO.N,Net-(U1-HPREFB)*%
X28500000Y-107702500D03*
%TO.P,CN1,3,R-_3*%
X22000000Y-105502500D03*
%TO.P,CN1,4,R+_4*%
%TO.N,Net-(U1-HPOUTB)*%
X28500000Y-105002500D03*
%TO.P,CN1,5,R+_5*%
X22000000Y-102802500D03*
%TO.P,CN1,6,L-_6*%
%TO.N,Net-(CN1-L-)*%
X28500000Y-102302500D03*
D24*
%TO.P,CN1,7,L+_7*%
%TO.N,Net-(U1-HPOUTA)*%
X21800000Y-94302500D03*
%TO.P,CN1,8,L+_8*%
X28700000Y-94302500D03*
%TO.P,CN1,9,SW_9*%
%TO.N,GND*%
X26850000Y-94302500D03*
%TO.P,CN1,10,DET_10*%
%TO.N,Net-(A1-GPIO11)*%
X23300000Y-94302500D03*
D23*
%TO.P,CN1,11,ep_11*%
%TO.N,GND*%
X21200000Y-99052500D03*
%TO.P,CN1,12,ep_12*%
X29300000Y-99052500D03*
%TD*%
D17*
%TO.P,C6,1*%
%TO.N,Net-(U1-VA)*%
X27890000Y-78602500D03*
%TO.P,C6,2*%
%TO.N,Net-(U1-FILT+)*%
X27890000Y-76702500D03*
%TD*%
D15*
%TO.P,C17,1*%
%TO.N,Net-(A1-VBUS)*%
X51890000Y-25252500D03*
%TO.P,C17,2*%
%TO.N,GND*%
X51890000Y-27152500D03*
%TD*%
D25*
%TO.P,U1,1,SCL_1*%
%TO.N,Net-(A1-GPIO21)*%
X33464300Y-74902501D03*
%TO.P,U1,2,SDIN1_2*%
%TO.N,unconnected-(U1-SDIN1-Pad2)*%
X33464300Y-75302500D03*
%TO.P,U1,3,TSO_3*%
%TO.N,unconnected-(U1-TSO-Pad3)*%
X33464300Y-75702499D03*
%TO.P,U1,4,VD_4*%
%TO.N,Net-(U1-VA)*%
X33464300Y-76102501D03*
%TO.P,U1,5,FILT+_5*%
%TO.N,Net-(U1-FILT+)*%
X33464300Y-76502500D03*
%TO.P,U1,6,FILT-_6*%
%TO.N,Net-(U1-FILT-)*%
X33464300Y-76902500D03*
%TO.P,U1,7,VA_7*%
%TO.N,Net-(U1-VA)*%
X33464300Y-77302499D03*
%TO.P,U1,8,GNDA_8*%
%TO.N,GND*%
X33464300Y-77702501D03*
%TO.P,U1,9,-VA_9*%
%TO.N,Net-(U1--VA)*%
X33464300Y-78102500D03*
%TO.P,U1,10,FLYP_VA_10*%
%TO.N,Net-(U1-FLYP_VA)*%
X33464300Y-78502499D03*
D26*
%TO.P,U1,11,FLYN_VA_11*%
%TO.N,Net-(U1-FLYN_VA)*%
X34090001Y-79128200D03*
%TO.P,U1,12,HPINA_12*%
%TO.N,unconnected-(U1-HPINA-Pad12)*%
X34490000Y-79128200D03*
%TO.P,U1,13,HPREFA_13*%
%TO.N,Net-(CN1-L-)*%
X34889999Y-79128200D03*
%TO.P,U1,14,HPOUTA_14*%
%TO.N,Net-(U1-HPOUTA)*%
X35290001Y-79128200D03*
%TO.P,U1,15,HPINB_15*%
%TO.N,unconnected-(U1-HPINB-Pad15)*%
X35690000Y-79128200D03*
%TO.P,U1,16,HPOUTB_16*%
%TO.N,Net-(U1-HPOUTB)*%
X36090000Y-79128200D03*
%TO.P,U1,17,HPREFB_17*%
%TO.N,Net-(U1-HPREFB)*%
X36489999Y-79128200D03*
%TO.P,U1,18,VCP_FILT-_18*%
%TO.N,Net-(U1-VCP_FILT-)*%
X36890001Y-79128200D03*
%TO.P,U1,19,GNDCP_19*%
%TO.N,GND*%
X37290000Y-79128200D03*
%TO.P,U1,20,FLYN_VCP_20*%
%TO.N,Net-(U1-FLYN_VCP)*%
X37689999Y-79128200D03*
D25*
%TO.P,U1,21,VCP_FILT+_21*%
%TO.N,Net-(U1-VCP_FILT+)*%
X38315700Y-78502499D03*
%TO.P,U1,22,HP_DETECT_22*%
%TO.N,GND*%
X38315700Y-78102500D03*
%TO.P,U1,23,FLYC_VCP_23*%
%TO.N,Net-(U1-FLYC_VCP)*%
X38315700Y-77702501D03*
%TO.P,U1,24,FLYP_VCP_24*%
%TO.N,Net-(U1-FLYP_VCP)*%
X38315700Y-77302499D03*
%TO.P,U1,25,VCP_25*%
%TO.N,Net-(U1-VA)*%
X38315700Y-76902500D03*
%TO.P,U1,26,VP_26*%
%TO.N,Net-(U1-VP)*%
X38315700Y-76502500D03*
%TO.P,U1,27,\u002AINT_27*%
%TO.N,Net-(A1-GPIO17)*%
X38315700Y-76102501D03*
%TO.P,U1,28,\u002ARESET_28*%
%TO.N,Net-(A1-GPIO18)*%
X38315700Y-75702499D03*
%TO.P,U1,29,DSDB/LRCK2_29*%
%TO.N,unconnected-(U1-DSDB{slash}LRCK2-Pad29)*%
X38315700Y-75302500D03*
%TO.P,U1,30,ADR_30*%
%TO.N,GND*%
X38315700Y-74902501D03*
D26*
%TO.P,U1,31,VL_31*%
%TO.N,Net-(A1-3V3)*%
X37689999Y-74276800D03*
%TO.P,U1,32,DSDCLK/SCLK2_32*%
%TO.N,unconnected-(U1-DSDCLK{slash}SCLK2-Pad32)*%
X37290000Y-74276800D03*
%TO.P,U1,33,CLKOUT_33*%
%TO.N,unconnected-(U1-CLKOUT-Pad33)*%
X36890001Y-74276800D03*
%TO.P,U1,34,SCLK1_34*%
%TO.N,Net-(A1-GPIO14)*%
X36489999Y-74276800D03*
%TO.P,U1,35,GNDD_35*%
%TO.N,GND*%
X36090000Y-74276800D03*
%TO.P,U1,36,XTO_36*%
X35690000Y-74276800D03*
%TO.P,U1,37,XTI/MCLK_37*%
%TO.N,Net-(A1-GPIO13)*%
X35290001Y-74276800D03*
%TO.P,U1,38,LRCK1_38*%
%TO.N,Net-(A1-GPIO15)*%
X34889999Y-74276800D03*
%TO.P,U1,39,SDA_39*%
%TO.N,Net-(A1-GPIO20)*%
X34490000Y-74276800D03*
%TO.P,U1,40,DSDA/SDIN2_40*%
%TO.N,unconnected-(U1-DSDA{slash}SDIN2-Pad40)*%
X34090001Y-74276800D03*
D27*
%TO.P,U1,41,EPAD_41*%
%TO.N,unconnected-(U1-EPAD-Pad41)*%
X35890000Y-76702500D03*
%TD*%
D14*
%TO.P,C13,1*%
%TO.N,Net-(U1-FLYN_VCP)*%
X39440000Y-83202500D03*
%TO.P,C13,2*%
%TO.N,Net-(U1-FLYC_VCP)*%
X41340000Y-83202500D03*
%TD*%
D28*
%TO.N,GND*%
X25890000Y-83202500D03*
X40890000Y-69702500D03*
X39390000Y-86202500D03*
X46390000Y-79702500D03*
D29*
X50890000Y-17702500D03*
D28*
X46890000Y-74702500D03*
X60000000Y-18000000D03*
X39390000Y-78202500D03*
X35890000Y-73202500D03*
X31390000Y-77702500D03*
X28390000Y-73202500D03*
X25890000Y-73202500D03*
X39390000Y-74202500D03*
D29*
X49890000Y-26702500D03*
D28*
X60000000Y-27000000D03*
%TO.N,Net-(U1-VA)*%
X32390000Y-77202500D03*
X28890000Y-78702500D03*
X40390000Y-77202500D03*
X31390000Y-75202500D03*
X59000000Y-25500000D03*
%TO.N,Net-(U1-VCP_FILT+)*%
X38890000Y-80202500D03*
X43390000Y-84702500D03*
%TO.N,Net-(U1-HPOUTB)*%
X36000000Y-80500000D03*
%TO.N,Net-(U1-HPOUTA)*%
X35390000Y-80202500D03*
%TO.N,Net-(A1-GPIO20)*%
X34390000Y-73202500D03*
%TO.N,Net-(A1-GPIO21)*%
X32390000Y-74202500D03*
%TO.N,Net-(U1-HPREFB)*%
X30390000Y-83702500D03*
%TO.N,Net-(CN1-L-)*%
X34296250Y-82296250D03*
%TD*%
%TO.N,GND*%
D30*
X35690000Y-73402500D02*
X35890000Y-73202500D01*
X39290000Y-78102500D02*
X39390000Y-78202500D01*
X25490000Y-74702500D02*
X25490000Y-73602500D01*
X61500000Y-17950000D02*
X60050000Y-17950000D01*
X38315700Y-78102500D02*
X39290000Y-78102500D01*
X43880000Y-75802500D02*
X46890000Y-75802500D01*
X37290000Y-79128200D02*
X37290000Y-79553974D01*
X38689999Y-74902501D02*
X39390000Y-74202500D01*
X45340000Y-79702500D02*
X46390000Y-79702500D01*
X38315700Y-74902501D02*
X38689999Y-74902501D01*
X50940000Y-17652500D02*
X50890000Y-17702500D01*
X40340000Y-70252500D02*
X40890000Y-69702500D01*
X53092500Y-17000000D02*
X52440000Y-17652500D01*
X35690000Y-74276800D02*
X36090000Y-74276800D01*
X26940000Y-83702500D02*
X26390000Y-83702500D01*
X37290000Y-79553974D02*
X37490000Y-79753974D01*
X25490000Y-73602500D02*
X25890000Y-73202500D01*
X55362500Y-26000000D02*
X53042500Y-26000000D01*
X55862500Y-17000000D02*
X53092500Y-17000000D01*
X38340000Y-85202500D02*
X38390000Y-85202500D01*
X28990000Y-73202500D02*
X28390000Y-73202500D01*
X50340000Y-27152500D02*
X49890000Y-26702500D01*
X46890000Y-75802500D02*
X46890000Y-74702500D01*
X37490000Y-84352500D02*
X38340000Y-85202500D01*
X26390000Y-83702500D02*
X25890000Y-83202500D01*
X52440000Y-17652500D02*
X50940000Y-17652500D01*
X45340000Y-83202500D02*
X45340000Y-79702500D01*
X35690000Y-74276800D02*
X35690000Y-73402500D01*
X51890000Y-27152500D02*
X50340000Y-27152500D01*
X53042500Y-26000000D02*
X51890000Y-27152500D01*
X60050000Y-17950000D02*
X60000000Y-18000000D01*
X61500000Y-27000000D02*
X60000000Y-27000000D01*
X37490000Y-79753974D02*
X37490000Y-84352500D01*
X40340000Y-71202500D02*
X40340000Y-70252500D01*
X33464300Y-77702501D02*
X31390000Y-77702500D01*
X38390000Y-85202500D02*
X39390000Y-86202500D01*
%TO.N,Net-(U1-VA)*%
X31890000Y-75202500D02*
X32790001Y-76102501D01*
X31390000Y-75202500D02*
X31890000Y-75202500D01*
X27890000Y-78602500D02*
X28790000Y-78602500D01*
X57637500Y-25050000D02*
X58500000Y-25050000D01*
X31390000Y-75202500D02*
X30890000Y-74702500D01*
X28790000Y-78602500D02*
X28890000Y-78702500D01*
X40940000Y-77202500D02*
X43440000Y-79702500D01*
X58500000Y-25050000D02*
X61450000Y-25050000D01*
X32390000Y-77202500D02*
X32489999Y-77302499D01*
X58500000Y-25050000D02*
X58550000Y-25050000D01*
X40390000Y-77202500D02*
X40090000Y-76902500D01*
X30890000Y-74702500D02*
X30890000Y-73202500D01*
X40390000Y-77202500D02*
X40940000Y-77202500D01*
X27890000Y-75202500D02*
X27390000Y-74702500D01*
X58550000Y-25050000D02*
X59000000Y-25500000D01*
X32790001Y-76102501D02*
X33464300Y-76102501D01*
X40090000Y-76902500D02*
X38315700Y-76902500D01*
X31390000Y-75202500D02*
X27890000Y-75202500D01*
X61450000Y-25050000D02*
X61500000Y-25100000D01*
X32489999Y-77302499D02*
X33464300Y-77302499D01*
%TO.N,Net-(A1-VBUS)*%
X56024999Y-25050000D02*
X56225000Y-25250001D01*
X52747500Y-15752500D02*
X53045000Y-16050000D01*
X56524999Y-16050000D02*
X57000000Y-16525001D01*
X52440000Y-15752500D02*
X52747500Y-15752500D01*
X44390000Y-14182500D02*
X50870000Y-14182500D01*
X51890000Y-21682500D02*
X51890000Y-25252500D01*
X53045000Y-16050000D02*
X55862500Y-16050000D01*
X44390000Y-14182500D02*
X51890000Y-21682500D01*
X56550000Y-17950000D02*
X55862500Y-17950000D01*
X50870000Y-14182500D02*
X52440000Y-15752500D01*
X51890000Y-25252500D02*
X55160000Y-25252500D01*
X55362500Y-25050000D02*
X56024999Y-25050000D01*
X56024999Y-26950000D02*
X55362500Y-26950000D01*
X55862500Y-16050000D02*
X56524999Y-16050000D01*
X56225000Y-26749999D02*
X56024999Y-26950000D01*
X56225000Y-25250001D02*
X56225000Y-26749999D01*
X57000000Y-16525001D02*
X57000000Y-17500000D01*
X44390000Y-14182500D02*
X46495000Y-14182500D01*
X57000000Y-17500000D02*
X56550000Y-17950000D01*
X55160000Y-25252500D02*
X55362500Y-25050000D01*
%TO.N,Net-(U1-FLYP_VA)*%
X33190001Y-78502499D02*
X33464300Y-78502499D01*
X30990000Y-80702500D02*
X33190001Y-78502499D01*
%TO.N,Net-(U1-FLYN_VA)*%
X32890000Y-80702500D02*
X34090001Y-79502499D01*
X34090001Y-79502499D02*
X34090001Y-79128200D01*
%TO.N,Net-(U1-VP)*%
X61500000Y-16050000D02*
X63000000Y-17550000D01*
X38315700Y-76502500D02*
X42680000Y-76502500D01*
X63000000Y-52399200D02*
X38896700Y-76502500D01*
X42680000Y-76502500D02*
X43880000Y-77702500D01*
X43880000Y-77702500D02*
X46890000Y-77702500D01*
X63000000Y-17550000D02*
X63000000Y-52399200D01*
X38896700Y-76502500D02*
X38315700Y-76502500D01*
X58137500Y-16050000D02*
X61500000Y-16050000D01*
%TO.N,Net-(U1-VCP_FILT+)*%
X43390000Y-84702500D02*
X43390000Y-83252500D01*
X43390000Y-83252500D02*
X43440000Y-83202500D01*
X38315700Y-78502499D02*
X38315700Y-79628200D01*
X38315700Y-79628200D02*
X38890000Y-80202500D01*
%TO.N,Net-(U1-VCP_FILT-)*%
X37190000Y-79878238D02*
X37190000Y-84452500D01*
X37190000Y-84452500D02*
X36440000Y-85202500D01*
X36890001Y-79578239D02*
X37190000Y-79878238D01*
X36890001Y-79128200D02*
X36890001Y-79578239D01*
%TO.N,Net-(U1-FLYP_VCP)*%
X38315700Y-77302499D02*
X39782892Y-77302499D01*
X40890000Y-78409607D02*
X40890000Y-79252500D01*
X39782892Y-77302499D02*
X40890000Y-78409607D01*
%TO.N,Net-(U1-FLYC_VCP)*%
X39597107Y-77702500D02*
X39965000Y-78070393D01*
X39965000Y-80227500D02*
X40890000Y-81152500D01*
X39965000Y-78070393D02*
X39965000Y-80227500D01*
X41340000Y-81602500D02*
X40890000Y-81152500D01*
X38315700Y-77702501D02*
X39597107Y-77702500D01*
X41340000Y-83202500D02*
X41340000Y-81602500D01*
%TO.N,Net-(U1-HPOUTB)*%
X36090000Y-80410000D02*
X36000000Y-80500000D01*
X36090000Y-79128200D02*
X36090000Y-80410000D01*
%TO.N,Net-(U1-HPOUTA)*%
X35290001Y-80102501D02*
X35390000Y-80202500D01*
X35290001Y-79128200D02*
X35290001Y-80102501D01*
%TO.N,Net-(U1-FILT-)*%
X31682893Y-76702500D02*
X27182893Y-81202500D01*
X32597107Y-76702500D02*
X31682893Y-76702500D01*
X32797107Y-76902500D02*
X32597107Y-76702500D01*
X33464300Y-76902500D02*
X32797107Y-76902500D01*
X27182893Y-81202500D02*
X26990000Y-81202500D01*
%TO.N,Net-(U1--VA)*%
X28840000Y-81252500D02*
X28890000Y-81202500D01*
X28890000Y-81202500D02*
X31990000Y-78102500D01*
X28840000Y-83702500D02*
X28840000Y-81252500D01*
X31990000Y-78102500D02*
X33464300Y-78102500D01*
%TO.N,Net-(A1-3V3)*%
X37689999Y-71952501D02*
X38440000Y-71202500D01*
X38440000Y-71202500D02*
X42700000Y-66942500D01*
X42700000Y-66942500D02*
X42700000Y-26032500D01*
X37689999Y-74276800D02*
X37689999Y-71952501D01*
X42700000Y-26032500D02*
X44390000Y-24342500D01*
%TO.N,Net-(A1-GPIO11)*%
X23300000Y-53052500D02*
X26610000Y-49742500D01*
X23300000Y-94302500D02*
X23300000Y-53052500D01*
%TO.N,Net-(A1-GPIO13)*%
X35290001Y-74276800D02*
X35290001Y-69168287D01*
X27024214Y-60902500D02*
X26195786Y-60902500D01*
X35290001Y-69168287D02*
X27024214Y-60902500D01*
X26195786Y-60902500D02*
X25605000Y-60311714D01*
X25605000Y-55827500D02*
X26610000Y-54822500D01*
X25605000Y-60311714D02*
X25605000Y-55827500D01*
%TO.N,Net-(A1-GPIO14)*%
X36489999Y-74276800D02*
X36489999Y-69782499D01*
X36489999Y-69782499D02*
X26610000Y-59902500D01*
%TO.N,Net-(A1-GPIO15)*%
X34889999Y-70722499D02*
X26610000Y-62442500D01*
X34889999Y-74276800D02*
X34889999Y-70722499D01*
%TO.N,Net-(A1-GPIO17)*%
X44390000Y-59902500D02*
X45395000Y-60907500D01*
X38822563Y-76102501D02*
X38315700Y-76102501D01*
X45395000Y-69530064D02*
X38822563Y-76102501D01*
X45395000Y-60907500D02*
X45395000Y-69530064D01*
%TO.N,Net-(A1-GPIO18)*%
X43385000Y-55827500D02*
X44390000Y-54822500D01*
X38798301Y-75702499D02*
X43385000Y-71115800D01*
X38315700Y-75702499D02*
X38798301Y-75702499D01*
X43385000Y-71115800D02*
X43385000Y-55827500D01*
%TO.N,Net-(A1-GPIO20)*%
X34490000Y-73302500D02*
X34390000Y-73202500D01*
X34490000Y-74276800D02*
X34490000Y-73302500D01*
%TO.N,Net-(A1-GPIO21)*%
X33464300Y-74902501D02*
X33090001Y-74902501D01*
X33090001Y-74902501D02*
X32390000Y-74202500D01*
%TO.N,Net-(U1-HPREFB)*%
X35597107Y-83702500D02*
X30390000Y-83702500D01*
X36890000Y-80002502D02*
X36890000Y-82409607D01*
X36890000Y-82409607D02*
X35597107Y-83702500D01*
X36489999Y-79602501D02*
X36890000Y-80002502D01*
X36489999Y-79128200D02*
X36489999Y-79602501D01*
%TO.N,Net-(CN1-L-)*%
X34296250Y-81296248D02*
X34889999Y-80702499D01*
X34889999Y-80702499D02*
X34889999Y-79128200D01*
X34296250Y-82296250D02*
X34296250Y-81296248D01*
%TO.N,Net-(U1-FILT+)*%
X33464300Y-76502500D02*
X32983299Y-76502500D01*
X32983299Y-76502500D02*
X32883300Y-76402501D01*
X28189999Y-76402501D02*
X27890000Y-76702500D01*
X32883300Y-76402501D02*
X28189999Y-76402501D01*
%TO.N,Net-(U1-FLYN_VCP)*%
X37790000Y-81552500D02*
X39440000Y-83202500D01*
X37790000Y-79228201D02*
X37790000Y-81552500D01*
X37689999Y-79128200D02*
X37790000Y-79228201D01*
%TD*%
M02*
