%TF.GenerationSoftware,KiCad,Pcbnew,10.0.3*%
%TF.CreationDate,2026-10-01T21:18:06+05:30*%
%TF.ProjectId,Resonance,5265736f-6e61-46e6-9365-2e6b69636164,rev?*%
%TF.SameCoordinates,Original*%
%TF.FileFunction,Copper,L2,Inr*%
%TF.FilePolarity,Positive*%
%FSLAX46Y46*%
G04 Gerber Fmt 4.6, Leading zero omitted, Abs format (unit mm)*
G04 Created by KiCad (PCBNEW 10.0.3) date 2026-10-01 21:18:06*
%MOMM*%
%LPD*%
G01*
G04 APERTURE LIST*
%TA.AperFunction,ComponentPad*%
%ADD10O,1.000000X2.100000*%
%TD*%
%TA.AperFunction,ComponentPad*%
%ADD11O,1.000000X1.800000*%
%TD*%
%TA.AperFunction,ComponentPad*%
%ADD12R,1.700000X1.700000*%
%TD*%
%TA.AperFunction,ComponentPad*%
%ADD13C,1.700000*%
%TD*%
%TA.AperFunction,ComponentPad*%
%ADD14C,1.200000*%
%TD*%
%TA.AperFunction,ComponentPad*%
%ADD15O,2.000000X1.400000*%
%TD*%
%TA.AperFunction,ComponentPad*%
%ADD16O,2.000000X1.300000*%
%TD*%
%TA.AperFunction,ComponentPad*%
%ADD17O,2.200000X1.200000*%
%TD*%
%TA.AperFunction,ComponentPad*%
%ADD18O,2.300000X1.600000*%
%TD*%
%TA.AperFunction,ComponentPad*%
%ADD19O,1.200000X2.200000*%
%TD*%
%TA.AperFunction,ComponentPad*%
%ADD20O,2.500000X1.600000*%
%TD*%
%TA.AperFunction,ViaPad*%
%ADD21C,0.400000*%
%TD*%
%TA.AperFunction,ViaPad*%
%ADD22C,0.600000*%
%TD*%
%TA.AperFunction,Conductor*%
%ADD23C,0.200000*%
%TD*%
G04 APERTURE END LIST*
D10*
%TO.N,GND*%
%TO.C,J1*%
X96570000Y-18855000D03*
D11*
X96570000Y-14675000D03*
D10*
X87930000Y-18855000D03*
D11*
X87930000Y-14675000D03*
%TD*%
D12*
%TO.N,+3V3*%
%TO.C,J2*%
X102580000Y-24250000D03*
D13*
%TO.N,SWDIO*%
X100040000Y-24250000D03*
%TO.N,SWCLK*%
X97500000Y-24250000D03*
%TO.N,GND*%
X94960000Y-24250000D03*
%TD*%
D14*
%TO.N,*%
%TO.C,CN1*%
X168550000Y-31750000D03*
X161050000Y-33300000D03*
D15*
%TO.N,GNDA*%
X171950000Y-35000000D03*
%TO.N,HPR-*%
X171450000Y-28500000D03*
X169250000Y-35000000D03*
%TO.N,HPR+*%
X168750000Y-28500000D03*
X166550000Y-35000000D03*
%TO.N,HPL-*%
X166050000Y-28500000D03*
D16*
%TO.N,HPL+*%
X158050000Y-35200000D03*
X158050000Y-28300000D03*
%TO.N,GNDA*%
X158050000Y-30150000D03*
%TO.N,DET*%
X158050000Y-33700000D03*
D15*
%TO.N,GNDA*%
X162800000Y-35800000D03*
X162800000Y-27700000D03*
%TD*%
D17*
%TO.N,HPR+*%
%TO.C,J3*%
X165000000Y-23250000D03*
D18*
%TO.N,unconnected-(J3-PadRN)*%
X165000000Y-20750000D03*
D19*
%TO.N,GNDA*%
X170000000Y-18250000D03*
D17*
%TO.N,HPL+*%
X165000000Y-13250000D03*
D20*
%TO.N,unconnected-(J3-PadTN)*%
X165000000Y-15750000D03*
%TD*%
D21*
%TO.N,GNDA*%
X110250000Y-18500000D03*
%TO.N,HPR-*%
X150250000Y-27750000D03*
%TO.N,HPR+*%
X148250000Y-24500000D03*
%TO.N,HPL-*%
X143750000Y-30500000D03*
%TO.N,HPL+*%
X140500000Y-32500000D03*
%TO.N,GNDA*%
X140000000Y-27750000D03*
%TO.N,-5V*%
X143005388Y-26136192D03*
X141750000Y-26750000D03*
%TO.N,GNDA*%
X143500000Y-27000000D03*
X141500000Y-23750000D03*
X150750000Y-27250000D03*
%TO.N,VBUS*%
X149750000Y-27000000D03*
%TO.N,-5V*%
X145500000Y-28000000D03*
X142135000Y-34420000D03*
X145500000Y-23000000D03*
X121000000Y-17500000D03*
%TO.N,GNDA*%
X142981671Y-25536659D03*
%TO.N,VBUS*%
X143250000Y-25000000D03*
%TO.N,GNDA*%
X137750000Y-32000000D03*
X138500000Y-38500000D03*
%TO.N,VBUS*%
X139750000Y-38500000D03*
%TO.N,GNDA*%
X143250000Y-29500000D03*
%TO.N,VBUS*%
X141250000Y-30500000D03*
%TO.N,GNDA*%
X142500000Y-37250000D03*
X141500000Y-37250000D03*
%TO.N,VBUS*%
X117750000Y-15480000D03*
X139750000Y-37500000D03*
%TO.N,GNDA*%
X137000000Y-36500000D03*
X131250000Y-25500000D03*
X138000000Y-28500000D03*
X135000000Y-36500000D03*
X121250000Y-27000000D03*
X120000000Y-35500000D03*
X104000000Y-18500000D03*
X104500000Y-16500000D03*
X104000000Y-14500000D03*
%TO.N,GND*%
X110500000Y-26500000D03*
X113000000Y-21000000D03*
%TO.N,+3V6*%
X114125000Y-25125000D03*
%TO.N,GNDA*%
X115750000Y-22000000D03*
%TO.N,RESET*%
X113500000Y-26250000D03*
X105500000Y-32000000D03*
X101250000Y-32000000D03*
%TO.N,GNDA*%
X117750000Y-24750000D03*
X117750000Y-37000000D03*
%TO.N,Net-(U4-FILT-)*%
X116500000Y-34250000D03*
X117750000Y-36000000D03*
%TO.N,GNDA*%
X118000000Y-33500000D03*
%TO.N,+1V8*%
X117250000Y-35000000D03*
%TO.N,GND*%
X112750000Y-34000000D03*
%TO.N,+3V6*%
X80500000Y-28250000D03*
X115000000Y-26000000D03*
%TO.N,+1V8*%
X115536659Y-25731671D03*
X74000000Y-31250000D03*
X115350003Y-34000000D03*
%TO.N,MCLK*%
X100000000Y-34250000D03*
X111750000Y-30250000D03*
%TO.N,INT*%
X108250000Y-29750000D03*
X112500000Y-25500000D03*
%TO.N,GND*%
X105250000Y-29000000D03*
%TO.N,SDA*%
X90250000Y-31000000D03*
X108750000Y-30500000D03*
%TO.N,SCL*%
X89250000Y-31500000D03*
X111500000Y-32250000D03*
%TO.N,GNDA*%
X120750000Y-28000000D03*
%TO.N,GND*%
X113174266Y-26825734D03*
%TO.N,DIN*%
X114750000Y-34000000D03*
X112750000Y-27250000D03*
%TO.N,+3V3*%
X111250000Y-28000000D03*
D22*
%TO.N,SWCLK*%
X90750000Y-28850000D03*
%TO.N,SWDIO*%
X93166473Y-26775000D03*
%TO.N,GND*%
X110000000Y-31000000D03*
%TO.N,MISO*%
X109463927Y-32702556D03*
%TO.N,F_CS*%
X109400002Y-33500000D03*
X102250000Y-33750000D03*
%TO.N,SCK*%
X108000000Y-32500000D03*
X101750000Y-33000000D03*
%TO.N,MISO*%
X100250000Y-32500000D03*
%TO.N,GND*%
X104825735Y-33924265D03*
X79250000Y-35750000D03*
%TO.N,PC13*%
X92975735Y-35574265D03*
X83500000Y-38500000D03*
%TO.N,GND*%
X89500000Y-34150000D03*
X86250000Y-33750000D03*
%TO.N,+3V3*%
X90750000Y-34750000D03*
X106500000Y-34500000D03*
%TO.N,NRST*%
X100250000Y-36000000D03*
X95972606Y-36318966D03*
%TO.N,GND*%
X100750000Y-41000000D03*
X96267930Y-35575469D03*
X95500000Y-39500000D03*
%TO.N,+3V3*%
X97000000Y-38750000D03*
%TO.N,GND*%
X93575835Y-36922694D03*
%TO.N,+3V3*%
X87500000Y-28250000D03*
X99750000Y-27000000D03*
%TO.N,DET*%
X102505510Y-29499360D03*
X99994490Y-30000640D03*
%TO.N,GND*%
X101250000Y-28500000D03*
X99000000Y-36750000D03*
%TO.N,+3V3*%
X86250000Y-32500000D03*
%TO.N,GND*%
X90250000Y-32250000D03*
X91000000Y-25000000D03*
X88750000Y-24000000D03*
X89750000Y-24500000D03*
X75500000Y-28750000D03*
X79000000Y-24500000D03*
X73250000Y-24500000D03*
X94500000Y-21500000D03*
X81000000Y-29000000D03*
X87500000Y-29750000D03*
X85500000Y-24750000D03*
X76500000Y-24750000D03*
X82750000Y-25250000D03*
%TD*%
%TO.N,GND*%
D23*
X96570000Y-19180000D02*
X96570000Y-18855000D01*
%TD*%
M02*
