%TF.GenerationSoftware,KiCad,Pcbnew,10.0.3*%
%TF.CreationDate,2026-08-16T23:32:36+05:30*%
%TF.ProjectId,Positron,506f7369-7472-46f6-9e2e-6b696361645f,rev?*%
%TF.SameCoordinates,Original*%
%TF.FileFunction,Copper,L4,Bot*%
%TF.FilePolarity,Positive*%
%FSLAX46Y46*%
G04 Gerber Fmt 4.6, Leading zero omitted, Abs format (unit mm)*
G04 Created by KiCad (PCBNEW 10.0.3) date 2026-08-16 23:32:36*
%MOMM*%
%LPD*%
G01*
G04 APERTURE LIST*
%TA.AperFunction,ComponentPad*%
%ADD10O,1.000000X1.800000*%
%TD*%
%TA.AperFunction,ComponentPad*%
%ADD11O,1.000000X2.100000*%
%TD*%
%TA.AperFunction,ComponentPad*%
%ADD12O,1.200000X2.200000*%
%TD*%
%TA.AperFunction,ComponentPad*%
%ADD13O,1.600000X2.300000*%
%TD*%
%TA.AperFunction,ComponentPad*%
%ADD14O,2.200000X1.200000*%
%TD*%
%TA.AperFunction,ComponentPad*%
%ADD15O,1.600000X2.500000*%
%TD*%
%TA.AperFunction,ComponentPad*%
%ADD16C,1.200000*%
%TD*%
%TA.AperFunction,ComponentPad*%
%ADD17O,1.400000X2.000000*%
%TD*%
%TA.AperFunction,ComponentPad*%
%ADD18O,1.300000X2.000000*%
%TD*%
%TA.AperFunction,ViaPad*%
%ADD19C,0.400000*%
%TD*%
%TA.AperFunction,Conductor*%
%ADD20C,0.200000*%
%TD*%
G04 APERTURE END LIST*
D10*
%TO.P,J1,SH,SHIELD_SH*%
%TO.N,GND*%
X31966678Y-14613029D03*
D11*
X31966678Y-18793029D03*
D10*
X40606678Y-14613029D03*
D11*
X40606678Y-18793029D03*
%TD*%
D12*
%TO.P,J3,R*%
%TO.N,Net-(U1-HPOUTB)*%
X38500000Y-91000000D03*
D13*
%TO.P,J3,RN*%
%TO.N,unconnected-(J3-PadRN)*%
X41000000Y-91000000D03*
D14*
%TO.P,J3,S*%
%TO.N,GND*%
X43500000Y-96000000D03*
D12*
%TO.P,J3,T*%
%TO.N,Net-(U1-HPOUTA)*%
X48500000Y-91000000D03*
D15*
%TO.P,J3,TN*%
%TO.N,unconnected-(J3-PadTN)*%
X46000000Y-91000000D03*
%TD*%
D16*
%TO.P,CN1,*%
%TO.N,*%
X25250000Y-94302500D03*
X23700000Y-86802500D03*
D17*
%TO.P,CN1,1,GND_1*%
%TO.N,GND*%
X22000000Y-97702500D03*
%TO.P,CN1,2,R-_2*%
%TO.N,Net-(U1-HPREFB)*%
X28500000Y-97202500D03*
%TO.P,CN1,3,R-_3*%
X22000000Y-95002500D03*
%TO.P,CN1,4,R+_4*%
%TO.N,Net-(U1-HPOUTB)*%
X28500000Y-94502500D03*
%TO.P,CN1,5,R+_5*%
X22000000Y-92302500D03*
%TO.P,CN1,6,L-_6*%
%TO.N,Net-(CN1-L-)*%
X28500000Y-91802500D03*
D18*
%TO.P,CN1,7,L+_7*%
%TO.N,Net-(U1-HPOUTA)*%
X21800000Y-83802500D03*
%TO.P,CN1,8,L+_8*%
X28700000Y-83802500D03*
%TO.P,CN1,9,SW_9*%
%TO.N,GND*%
X26850000Y-83802500D03*
%TO.P,CN1,10,DET_10*%
%TO.N,Net-(CN1-DET)*%
X23300000Y-83802500D03*
D17*
%TO.P,CN1,11,ep_11*%
%TO.N,GND*%
X21200000Y-88552500D03*
%TO.P,CN1,12,ep_12*%
X29300000Y-88552500D03*
%TD*%
D19*
%TO.N,+3V3*%
X40293750Y-47206250D03*
X38500000Y-53500000D03*
%TO.N,Net-(U1-\u002AINT)*%
X40000000Y-65500000D03*
X40500000Y-62500000D03*
X40000000Y-56500000D03*
X39500000Y-49000000D03*
%TO.N,Net-(U1-SCL)*%
X42000000Y-45000000D03*
%TO.N,Net-(U1-SDA)*%
X41500000Y-45500000D03*
%TO.N,Net-(U1-XTI{slash}MCLK)*%
X35500000Y-62000000D03*
X33500000Y-62000000D03*
%TO.N,Net-(U1-SCLK1)*%
X36000000Y-61500000D03*
X33000000Y-61500000D03*
%TO.N,Net-(U4-VREG_AVDD)*%
X46000000Y-39000000D03*
X42500000Y-36500000D03*
%TO.N,Net-(U4-ADC_AVDD)*%
X42912500Y-48000000D03*
X42500000Y-42500000D03*
X41500000Y-40000000D03*
X41500000Y-41500000D03*
%TO.N,+3V3*%
X41000000Y-39500000D03*
%TO.N,+1V1*%
X43000000Y-39500000D03*
%TO.N,+3V3*%
X31500000Y-40000000D03*
X38000000Y-45500000D03*
X35500000Y-45000000D03*
%TO.N,+1V1*%
X38000000Y-40500000D03*
X41000000Y-42500000D03*
%TO.N,+3V3*%
X36000000Y-38500000D03*
X38000000Y-38500000D03*
%TO.N,Net-(U4-GPIO25)*%
X43000000Y-43000000D03*
X44000000Y-46000000D03*
%TO.N,Net-(D1-K)*%
X47500000Y-35500000D03*
%TO.N,+3V3*%
X47000000Y-38500000D03*
%TO.N,Net-(Q1-S)*%
X44500000Y-39000000D03*
X48500000Y-39500000D03*
%TO.N,+3V3*%
X21500000Y-32500000D03*
X37100003Y-32000000D03*
X28500000Y-37500000D03*
%TO.N,Net-(U4-GPIO23)*%
X38500000Y-34000000D03*
X44000000Y-44500000D03*
%TO.N,Net-(D1-K)*%
X36500000Y-32000000D03*
X34500000Y-28500000D03*
X35500000Y-26150000D03*
%TO.N,Net-(J1-D--PadA7)*%
X43000000Y-24500000D03*
X37000000Y-20500000D03*
%TO.N,Net-(J1-CC2)*%
X34500000Y-20500000D03*
X33000000Y-21500000D03*
%TO.N,Net-(U1-VA)*%
X40390000Y-66702500D03*
%TO.N,Net-(U1-VCP_FILT+)*%
X38890000Y-69702500D03*
X43390000Y-74202500D03*
%TO.N,Net-(U1-HPOUTB)*%
X36000000Y-70000000D03*
%TO.N,Net-(U1-HPOUTA)*%
X35390000Y-69702500D03*
%TO.N,Net-(U1-SDA)*%
X34390000Y-62702500D03*
%TO.N,Net-(U1-SCL)*%
X32390000Y-63702500D03*
%TO.N,Net-(U1-HPREFB)*%
X30390000Y-73202500D03*
%TO.N,Net-(CN1-L-)*%
X34296250Y-71796250D03*
%TD*%
%TO.N,+3V3*%
D20*
X38500000Y-49000000D02*
X40293750Y-47206250D01*
X38500000Y-53500000D02*
X38500000Y-49000000D01*
%TO.N,Net-(U1-\u002AINT)*%
X40500000Y-65000000D02*
X40000000Y-65500000D01*
X40500000Y-62500000D02*
X40500000Y-65000000D01*
X39500000Y-49000000D02*
X40000000Y-49500000D01*
X40000000Y-49500000D02*
X40000000Y-56500000D01*
%TO.N,Net-(U1-SCL)*%
X32390000Y-53902893D02*
X32390000Y-63702500D01*
X41292893Y-45000000D02*
X32390000Y-53902893D01*
X42000000Y-45000000D02*
X41292893Y-45000000D01*
%TO.N,Net-(U1-SDA)*%
X41500000Y-56707107D02*
X35504607Y-62702500D01*
X41500000Y-45500000D02*
X41500000Y-56707107D01*
X35504607Y-62702500D02*
X34390000Y-62702500D01*
%TO.N,Net-(U1-XTI{slash}MCLK)*%
X33500000Y-62000000D02*
X35500000Y-62000000D01*
%TO.N,Net-(U1-SCLK1)*%
X33000000Y-61500000D02*
X36000000Y-61500000D01*
%TO.N,Net-(U4-VREG_AVDD)*%
X42500000Y-36500000D02*
X43500000Y-36500000D01*
X43500000Y-36500000D02*
X46000000Y-39000000D01*
%TO.N,Net-(U4-ADC_AVDD)*%
X42500000Y-47587500D02*
X42912500Y-48000000D01*
X42500000Y-42500000D02*
X42500000Y-47587500D01*
X41500000Y-40000000D02*
X41500000Y-41500000D01*
%TO.N,+3V3*%
X39000000Y-39500000D02*
X38000000Y-38500000D01*
X41000000Y-39500000D02*
X39000000Y-39500000D01*
%TO.N,+1V1*%
X42500000Y-40000000D02*
X42500000Y-41500000D01*
X42500000Y-41500000D02*
X41500000Y-42500000D01*
X43000000Y-39500000D02*
X42500000Y-40000000D01*
X41500000Y-42500000D02*
X41000000Y-42500000D01*
%TO.N,+3V3*%
X31500000Y-40000000D02*
X31500000Y-38000000D01*
X31500000Y-38000000D02*
X32000000Y-37500000D01*
X36000000Y-45500000D02*
X38000000Y-45500000D01*
X35500000Y-45000000D02*
X36000000Y-45500000D01*
%TO.N,+1V1*%
X38000000Y-40500000D02*
X40000000Y-42500000D01*
X40000000Y-42500000D02*
X41000000Y-42500000D01*
%TO.N,+3V3*%
X36000000Y-38500000D02*
X38000000Y-38500000D01*
%TO.N,Net-(U4-GPIO25)*%
X44000000Y-46000000D02*
X43000000Y-45000000D01*
X43000000Y-45000000D02*
X43000000Y-43000000D01*
%TO.N,Net-(D1-K)*%
X43500000Y-31500000D02*
X36892896Y-31500000D01*
X36500000Y-31892896D02*
X36500000Y-32000000D01*
X47500000Y-35500000D02*
X43500000Y-31500000D01*
X36892896Y-31500000D02*
X36500000Y-31892896D01*
%TO.N,+3V3*%
X47000000Y-38500000D02*
X40500000Y-32000000D01*
X40500000Y-32000000D02*
X37100003Y-32000000D01*
%TO.N,Net-(Q1-S)*%
X45000000Y-39500000D02*
X48500000Y-39500000D01*
X44500000Y-39000000D02*
X45000000Y-39500000D01*
%TO.N,+3V3*%
X21500000Y-32500000D02*
X37000000Y-32500000D01*
X32000000Y-37500000D02*
X37000000Y-32500000D01*
X37000000Y-32500000D02*
X37100003Y-32399997D01*
X28500000Y-37500000D02*
X32000000Y-37500000D01*
X37100003Y-32399997D02*
X37100003Y-32000000D01*
%TO.N,Net-(U4-GPIO23)*%
X44000000Y-39500000D02*
X44000000Y-44500000D01*
X38500000Y-34000000D02*
X44000000Y-39500000D01*
%TO.N,Net-(D1-K)*%
X36500000Y-32000000D02*
X34500000Y-30000000D01*
X34500000Y-30000000D02*
X34500000Y-28500000D01*
X34500000Y-28500000D02*
X34500000Y-27150000D01*
X34500000Y-27150000D02*
X35500000Y-26150000D01*
%TO.N,Net-(J1-D--PadA7)*%
X37000000Y-20500000D02*
X41000000Y-24500000D01*
X41000000Y-24500000D02*
X43000000Y-24500000D01*
%TO.N,Net-(J1-CC2)*%
X33500000Y-21500000D02*
X34500000Y-20500000D01*
X33000000Y-21500000D02*
X33500000Y-21500000D01*
%TO.N,Net-(U1-VCP_FILT+)*%
X38890000Y-69702500D02*
X43390000Y-74202500D01*
%TO.N,Net-(U1-HPOUTB)*%
X22000000Y-92302500D02*
X26300000Y-92302500D01*
X35597107Y-69202500D02*
X35182893Y-69202500D01*
X35182893Y-69202500D02*
X21782893Y-82602500D01*
X36000000Y-69605393D02*
X35597107Y-69202500D01*
X22100000Y-92202500D02*
X22000000Y-92302500D01*
X38500000Y-73000000D02*
X38500000Y-91000000D01*
X21447918Y-82602500D02*
X20600000Y-83450418D01*
X21782893Y-82602500D02*
X21447918Y-82602500D01*
X36000000Y-70000000D02*
X36000000Y-69605393D01*
X22100000Y-87879708D02*
X22100000Y-92202500D01*
X20600000Y-83450418D02*
X20600000Y-86379708D01*
X26300000Y-92302500D02*
X28500000Y-94502500D01*
X36000000Y-70500000D02*
X38500000Y-73000000D01*
X20600000Y-86379708D02*
X22100000Y-87879708D01*
X36000000Y-70000000D02*
X36000000Y-70500000D01*
%TO.N,Net-(U1-HPOUTA)*%
X35390000Y-69702500D02*
X28700000Y-76392500D01*
X35390000Y-69702500D02*
X35390000Y-89521371D01*
X28700000Y-83802500D02*
X27500000Y-85002500D01*
X27500000Y-85002500D02*
X22500000Y-85002500D01*
X35390000Y-89521371D02*
X38318629Y-92450000D01*
X21800000Y-83802500D02*
X21800000Y-83750418D01*
X28700000Y-76392500D02*
X28700000Y-83802500D01*
X47050000Y-92450000D02*
X48500000Y-91000000D01*
X21800000Y-84302500D02*
X21800000Y-83802500D01*
X22500000Y-85002500D02*
X21800000Y-84302500D01*
X38318629Y-92450000D02*
X47050000Y-92450000D01*
%TO.N,Net-(U1-HPREFB)*%
X20300000Y-83292500D02*
X20300000Y-93302500D01*
X20300000Y-93302500D02*
X22000000Y-95002500D01*
X24200000Y-97202500D02*
X28500000Y-97202500D01*
X30390000Y-73202500D02*
X20300000Y-83292500D01*
X22000000Y-95002500D02*
X24200000Y-97202500D01*
%TO.N,Net-(CN1-L-)*%
X29550000Y-86729708D02*
X28400000Y-87879708D01*
X29500000Y-76592500D02*
X29500000Y-78500000D01*
X28400000Y-91702500D02*
X28500000Y-91802500D01*
X28400000Y-87879708D02*
X28400000Y-91702500D01*
X34296250Y-71796250D02*
X29500000Y-76592500D01*
X29500000Y-78500000D02*
X29550000Y-78550000D01*
X29550000Y-78550000D02*
X29550000Y-86729708D01*
%TD*%
M02*
