%TF.GenerationSoftware,KiCad,Pcbnew,10.0.3*%
%TF.CreationDate,2026-08-16T23:32:36+05:30*%
%TF.ProjectId,Positron,506f7369-7472-46f6-9e2e-6b696361645f,rev?*%
%TF.SameCoordinates,Original*%
%TF.FileFunction,Legend,Top*%
%TF.FilePolarity,Positive*%
%FSLAX46Y46*%
G04 Gerber Fmt 4.6, Leading zero omitted, Abs format (unit mm)*
G04 Created by KiCad (PCBNEW 10.0.3) date 2026-08-16 23:32:36*
%MOMM*%
%LPD*%
G01*
G04 APERTURE LIST*
%ADD10C,0.300000*%
%ADD11C,0.150000*%
%ADD12C,0.120000*%
%ADD13C,0.060000*%
%ADD14C,0.200000*%
%ADD15C,0.250000*%
%ADD16C,0.152400*%
%ADD17C,0.000000*%
G04 APERTURE END LIST*
D10*
X58385912Y-92802632D02*
X59600198Y-92802632D01*
X59600198Y-92802632D02*
X59743055Y-92874060D01*
X59743055Y-92874060D02*
X59814484Y-92945489D01*
X59814484Y-92945489D02*
X59885912Y-93088346D01*
X59885912Y-93088346D02*
X59885912Y-93302632D01*
X59885912Y-93302632D02*
X59814484Y-93445489D01*
X59314484Y-92802632D02*
X59385912Y-92945489D01*
X59385912Y-92945489D02*
X59385912Y-93231203D01*
X59385912Y-93231203D02*
X59314484Y-93374060D01*
X59314484Y-93374060D02*
X59243055Y-93445489D01*
X59243055Y-93445489D02*
X59100198Y-93516917D01*
X59100198Y-93516917D02*
X58671626Y-93516917D01*
X58671626Y-93516917D02*
X58528769Y-93445489D01*
X58528769Y-93445489D02*
X58457341Y-93374060D01*
X58457341Y-93374060D02*
X58385912Y-93231203D01*
X58385912Y-93231203D02*
X58385912Y-92945489D01*
X58385912Y-92945489D02*
X58457341Y-92802632D01*
X59385912Y-91874060D02*
X59314484Y-92016917D01*
X59314484Y-92016917D02*
X59171626Y-92088346D01*
X59171626Y-92088346D02*
X57885912Y-92088346D01*
X58385912Y-90659775D02*
X59385912Y-90659775D01*
X58385912Y-91302632D02*
X59171626Y-91302632D01*
X59171626Y-91302632D02*
X59314484Y-91231203D01*
X59314484Y-91231203D02*
X59385912Y-91088346D01*
X59385912Y-91088346D02*
X59385912Y-90874060D01*
X59385912Y-90874060D02*
X59314484Y-90731203D01*
X59314484Y-90731203D02*
X59243055Y-90659775D01*
X58385912Y-89302632D02*
X59600198Y-89302632D01*
X59600198Y-89302632D02*
X59743055Y-89374060D01*
X59743055Y-89374060D02*
X59814484Y-89445489D01*
X59814484Y-89445489D02*
X59885912Y-89588346D01*
X59885912Y-89588346D02*
X59885912Y-89802632D01*
X59885912Y-89802632D02*
X59814484Y-89945489D01*
X59314484Y-89302632D02*
X59385912Y-89445489D01*
X59385912Y-89445489D02*
X59385912Y-89731203D01*
X59385912Y-89731203D02*
X59314484Y-89874060D01*
X59314484Y-89874060D02*
X59243055Y-89945489D01*
X59243055Y-89945489D02*
X59100198Y-90016917D01*
X59100198Y-90016917D02*
X58671626Y-90016917D01*
X58671626Y-90016917D02*
X58528769Y-89945489D01*
X58528769Y-89945489D02*
X58457341Y-89874060D01*
X58457341Y-89874060D02*
X58385912Y-89731203D01*
X58385912Y-89731203D02*
X58385912Y-89445489D01*
X58385912Y-89445489D02*
X58457341Y-89302632D01*
X58385912Y-86802632D02*
X59600198Y-86802632D01*
X59600198Y-86802632D02*
X59743055Y-86874060D01*
X59743055Y-86874060D02*
X59814484Y-86945489D01*
X59814484Y-86945489D02*
X59885912Y-87088346D01*
X59885912Y-87088346D02*
X59885912Y-87302632D01*
X59885912Y-87302632D02*
X59814484Y-87445489D01*
X59314484Y-86802632D02*
X59385912Y-86945489D01*
X59385912Y-86945489D02*
X59385912Y-87231203D01*
X59385912Y-87231203D02*
X59314484Y-87374060D01*
X59314484Y-87374060D02*
X59243055Y-87445489D01*
X59243055Y-87445489D02*
X59100198Y-87516917D01*
X59100198Y-87516917D02*
X58671626Y-87516917D01*
X58671626Y-87516917D02*
X58528769Y-87445489D01*
X58528769Y-87445489D02*
X58457341Y-87374060D01*
X58457341Y-87374060D02*
X58385912Y-87231203D01*
X58385912Y-87231203D02*
X58385912Y-86945489D01*
X58385912Y-86945489D02*
X58457341Y-86802632D01*
X59385912Y-85874060D02*
X59314484Y-86016917D01*
X59314484Y-86016917D02*
X59171626Y-86088346D01*
X59171626Y-86088346D02*
X57885912Y-86088346D01*
X58385912Y-84659775D02*
X59385912Y-84659775D01*
X58385912Y-85302632D02*
X59171626Y-85302632D01*
X59171626Y-85302632D02*
X59314484Y-85231203D01*
X59314484Y-85231203D02*
X59385912Y-85088346D01*
X59385912Y-85088346D02*
X59385912Y-84874060D01*
X59385912Y-84874060D02*
X59314484Y-84731203D01*
X59314484Y-84731203D02*
X59243055Y-84659775D01*
X58385912Y-83302632D02*
X59600198Y-83302632D01*
X59600198Y-83302632D02*
X59743055Y-83374060D01*
X59743055Y-83374060D02*
X59814484Y-83445489D01*
X59814484Y-83445489D02*
X59885912Y-83588346D01*
X59885912Y-83588346D02*
X59885912Y-83802632D01*
X59885912Y-83802632D02*
X59814484Y-83945489D01*
X59314484Y-83302632D02*
X59385912Y-83445489D01*
X59385912Y-83445489D02*
X59385912Y-83731203D01*
X59385912Y-83731203D02*
X59314484Y-83874060D01*
X59314484Y-83874060D02*
X59243055Y-83945489D01*
X59243055Y-83945489D02*
X59100198Y-84016917D01*
X59100198Y-84016917D02*
X58671626Y-84016917D01*
X58671626Y-84016917D02*
X58528769Y-83945489D01*
X58528769Y-83945489D02*
X58457341Y-83874060D01*
X58457341Y-83874060D02*
X58385912Y-83731203D01*
X58385912Y-83731203D02*
X58385912Y-83445489D01*
X58385912Y-83445489D02*
X58457341Y-83302632D01*
X58385912Y-80802632D02*
X59600198Y-80802632D01*
X59600198Y-80802632D02*
X59743055Y-80874060D01*
X59743055Y-80874060D02*
X59814484Y-80945489D01*
X59814484Y-80945489D02*
X59885912Y-81088346D01*
X59885912Y-81088346D02*
X59885912Y-81302632D01*
X59885912Y-81302632D02*
X59814484Y-81445489D01*
X59314484Y-80802632D02*
X59385912Y-80945489D01*
X59385912Y-80945489D02*
X59385912Y-81231203D01*
X59385912Y-81231203D02*
X59314484Y-81374060D01*
X59314484Y-81374060D02*
X59243055Y-81445489D01*
X59243055Y-81445489D02*
X59100198Y-81516917D01*
X59100198Y-81516917D02*
X58671626Y-81516917D01*
X58671626Y-81516917D02*
X58528769Y-81445489D01*
X58528769Y-81445489D02*
X58457341Y-81374060D01*
X58457341Y-81374060D02*
X58385912Y-81231203D01*
X58385912Y-81231203D02*
X58385912Y-80945489D01*
X58385912Y-80945489D02*
X58457341Y-80802632D01*
X59385912Y-79874060D02*
X59314484Y-80016917D01*
X59314484Y-80016917D02*
X59171626Y-80088346D01*
X59171626Y-80088346D02*
X57885912Y-80088346D01*
X58385912Y-78659775D02*
X59385912Y-78659775D01*
X58385912Y-79302632D02*
X59171626Y-79302632D01*
X59171626Y-79302632D02*
X59314484Y-79231203D01*
X59314484Y-79231203D02*
X59385912Y-79088346D01*
X59385912Y-79088346D02*
X59385912Y-78874060D01*
X59385912Y-78874060D02*
X59314484Y-78731203D01*
X59314484Y-78731203D02*
X59243055Y-78659775D01*
X58385912Y-77302632D02*
X59600198Y-77302632D01*
X59600198Y-77302632D02*
X59743055Y-77374060D01*
X59743055Y-77374060D02*
X59814484Y-77445489D01*
X59814484Y-77445489D02*
X59885912Y-77588346D01*
X59885912Y-77588346D02*
X59885912Y-77802632D01*
X59885912Y-77802632D02*
X59814484Y-77945489D01*
X59314484Y-77302632D02*
X59385912Y-77445489D01*
X59385912Y-77445489D02*
X59385912Y-77731203D01*
X59385912Y-77731203D02*
X59314484Y-77874060D01*
X59314484Y-77874060D02*
X59243055Y-77945489D01*
X59243055Y-77945489D02*
X59100198Y-78016917D01*
X59100198Y-78016917D02*
X58671626Y-78016917D01*
X58671626Y-78016917D02*
X58528769Y-77945489D01*
X58528769Y-77945489D02*
X58457341Y-77874060D01*
X58457341Y-77874060D02*
X58385912Y-77731203D01*
X58385912Y-77731203D02*
X58385912Y-77445489D01*
X58385912Y-77445489D02*
X58457341Y-77302632D01*
X61229400Y-93445489D02*
X61229400Y-92302632D01*
X61800828Y-90445489D02*
X60800828Y-90445489D01*
X60300828Y-90445489D02*
X60372257Y-90516917D01*
X60372257Y-90516917D02*
X60443685Y-90445489D01*
X60443685Y-90445489D02*
X60372257Y-90374060D01*
X60372257Y-90374060D02*
X60300828Y-90445489D01*
X60300828Y-90445489D02*
X60443685Y-90445489D01*
X61800828Y-89088346D02*
X60300828Y-89088346D01*
X61729400Y-89088346D02*
X61800828Y-89231203D01*
X61800828Y-89231203D02*
X61800828Y-89516917D01*
X61800828Y-89516917D02*
X61729400Y-89659774D01*
X61729400Y-89659774D02*
X61657971Y-89731203D01*
X61657971Y-89731203D02*
X61515114Y-89802631D01*
X61515114Y-89802631D02*
X61086542Y-89802631D01*
X61086542Y-89802631D02*
X60943685Y-89731203D01*
X60943685Y-89731203D02*
X60872257Y-89659774D01*
X60872257Y-89659774D02*
X60800828Y-89516917D01*
X60800828Y-89516917D02*
X60800828Y-89231203D01*
X60800828Y-89231203D02*
X60872257Y-89088346D01*
X61800828Y-88374060D02*
X60300828Y-88374060D01*
X61229400Y-88231203D02*
X61800828Y-87802631D01*
X60800828Y-87802631D02*
X61372257Y-88374060D01*
X61729400Y-86088345D02*
X61800828Y-85945488D01*
X61800828Y-85945488D02*
X61800828Y-85659774D01*
X61800828Y-85659774D02*
X61729400Y-85516917D01*
X61729400Y-85516917D02*
X61586542Y-85445488D01*
X61586542Y-85445488D02*
X61515114Y-85445488D01*
X61515114Y-85445488D02*
X61372257Y-85516917D01*
X61372257Y-85516917D02*
X61300828Y-85659774D01*
X61300828Y-85659774D02*
X61300828Y-85874060D01*
X61300828Y-85874060D02*
X61229400Y-86016917D01*
X61229400Y-86016917D02*
X61086542Y-86088345D01*
X61086542Y-86088345D02*
X61015114Y-86088345D01*
X61015114Y-86088345D02*
X60872257Y-86016917D01*
X60872257Y-86016917D02*
X60800828Y-85874060D01*
X60800828Y-85874060D02*
X60800828Y-85659774D01*
X60800828Y-85659774D02*
X60872257Y-85516917D01*
X61800828Y-84588345D02*
X61729400Y-84731202D01*
X61729400Y-84731202D02*
X61657971Y-84802631D01*
X61657971Y-84802631D02*
X61515114Y-84874059D01*
X61515114Y-84874059D02*
X61086542Y-84874059D01*
X61086542Y-84874059D02*
X60943685Y-84802631D01*
X60943685Y-84802631D02*
X60872257Y-84731202D01*
X60872257Y-84731202D02*
X60800828Y-84588345D01*
X60800828Y-84588345D02*
X60800828Y-84374059D01*
X60800828Y-84374059D02*
X60872257Y-84231202D01*
X60872257Y-84231202D02*
X60943685Y-84159774D01*
X60943685Y-84159774D02*
X61086542Y-84088345D01*
X61086542Y-84088345D02*
X61515114Y-84088345D01*
X61515114Y-84088345D02*
X61657971Y-84159774D01*
X61657971Y-84159774D02*
X61729400Y-84231202D01*
X61729400Y-84231202D02*
X61800828Y-84374059D01*
X61800828Y-84374059D02*
X61800828Y-84588345D01*
X61800828Y-83445488D02*
X60800828Y-83445488D01*
X60943685Y-83445488D02*
X60872257Y-83374059D01*
X60872257Y-83374059D02*
X60800828Y-83231202D01*
X60800828Y-83231202D02*
X60800828Y-83016916D01*
X60800828Y-83016916D02*
X60872257Y-82874059D01*
X60872257Y-82874059D02*
X61015114Y-82802631D01*
X61015114Y-82802631D02*
X61800828Y-82802631D01*
X61015114Y-82802631D02*
X60872257Y-82731202D01*
X60872257Y-82731202D02*
X60800828Y-82588345D01*
X60800828Y-82588345D02*
X60800828Y-82374059D01*
X60800828Y-82374059D02*
X60872257Y-82231202D01*
X60872257Y-82231202D02*
X61015114Y-82159773D01*
X61015114Y-82159773D02*
X61800828Y-82159773D01*
X61729400Y-80874059D02*
X61800828Y-81016916D01*
X61800828Y-81016916D02*
X61800828Y-81302631D01*
X61800828Y-81302631D02*
X61729400Y-81445488D01*
X61729400Y-81445488D02*
X61586542Y-81516916D01*
X61586542Y-81516916D02*
X61015114Y-81516916D01*
X61015114Y-81516916D02*
X60872257Y-81445488D01*
X60872257Y-81445488D02*
X60800828Y-81302631D01*
X60800828Y-81302631D02*
X60800828Y-81016916D01*
X60800828Y-81016916D02*
X60872257Y-80874059D01*
X60872257Y-80874059D02*
X61015114Y-80802631D01*
X61015114Y-80802631D02*
X61157971Y-80802631D01*
X61157971Y-80802631D02*
X61300828Y-81516916D01*
X60800828Y-79231202D02*
X60800828Y-78659774D01*
X61800828Y-79016917D02*
X60515114Y-79016917D01*
X60515114Y-79016917D02*
X60372257Y-78945488D01*
X60372257Y-78945488D02*
X60300828Y-78802631D01*
X60300828Y-78802631D02*
X60300828Y-78659774D01*
X61800828Y-78159774D02*
X60800828Y-78159774D01*
X60300828Y-78159774D02*
X60372257Y-78231202D01*
X60372257Y-78231202D02*
X60443685Y-78159774D01*
X60443685Y-78159774D02*
X60372257Y-78088345D01*
X60372257Y-78088345D02*
X60300828Y-78159774D01*
X60300828Y-78159774D02*
X60443685Y-78159774D01*
X61729400Y-77516916D02*
X61800828Y-77374059D01*
X61800828Y-77374059D02*
X61800828Y-77088345D01*
X61800828Y-77088345D02*
X61729400Y-76945488D01*
X61729400Y-76945488D02*
X61586542Y-76874059D01*
X61586542Y-76874059D02*
X61515114Y-76874059D01*
X61515114Y-76874059D02*
X61372257Y-76945488D01*
X61372257Y-76945488D02*
X61300828Y-77088345D01*
X61300828Y-77088345D02*
X61300828Y-77302631D01*
X61300828Y-77302631D02*
X61229400Y-77445488D01*
X61229400Y-77445488D02*
X61086542Y-77516916D01*
X61086542Y-77516916D02*
X61015114Y-77516916D01*
X61015114Y-77516916D02*
X60872257Y-77445488D01*
X60872257Y-77445488D02*
X60800828Y-77302631D01*
X60800828Y-77302631D02*
X60800828Y-77088345D01*
X60800828Y-77088345D02*
X60872257Y-76945488D01*
X61800828Y-76231202D02*
X60300828Y-76231202D01*
X61800828Y-75588345D02*
X61015114Y-75588345D01*
X61015114Y-75588345D02*
X60872257Y-75659773D01*
X60872257Y-75659773D02*
X60800828Y-75802630D01*
X60800828Y-75802630D02*
X60800828Y-76016916D01*
X60800828Y-76016916D02*
X60872257Y-76159773D01*
X60872257Y-76159773D02*
X60943685Y-76231202D01*
X61800828Y-73731202D02*
X60800828Y-73731202D01*
X60300828Y-73731202D02*
X60372257Y-73802630D01*
X60372257Y-73802630D02*
X60443685Y-73731202D01*
X60443685Y-73731202D02*
X60372257Y-73659773D01*
X60372257Y-73659773D02*
X60300828Y-73731202D01*
X60300828Y-73731202D02*
X60443685Y-73731202D01*
X60800828Y-73016916D02*
X61800828Y-73016916D01*
X60943685Y-73016916D02*
X60872257Y-72945487D01*
X60872257Y-72945487D02*
X60800828Y-72802630D01*
X60800828Y-72802630D02*
X60800828Y-72588344D01*
X60800828Y-72588344D02*
X60872257Y-72445487D01*
X60872257Y-72445487D02*
X61015114Y-72374059D01*
X61015114Y-72374059D02*
X61800828Y-72374059D01*
X61800828Y-69874059D02*
X61015114Y-69874059D01*
X61015114Y-69874059D02*
X60872257Y-69945487D01*
X60872257Y-69945487D02*
X60800828Y-70088344D01*
X60800828Y-70088344D02*
X60800828Y-70374059D01*
X60800828Y-70374059D02*
X60872257Y-70516916D01*
X61729400Y-69874059D02*
X61800828Y-70016916D01*
X61800828Y-70016916D02*
X61800828Y-70374059D01*
X61800828Y-70374059D02*
X61729400Y-70516916D01*
X61729400Y-70516916D02*
X61586542Y-70588344D01*
X61586542Y-70588344D02*
X61443685Y-70588344D01*
X61443685Y-70588344D02*
X61300828Y-70516916D01*
X61300828Y-70516916D02*
X61229400Y-70374059D01*
X61229400Y-70374059D02*
X61229400Y-70016916D01*
X61229400Y-70016916D02*
X61157971Y-69874059D01*
X61800828Y-68016916D02*
X60300828Y-68016916D01*
X60872257Y-68016916D02*
X60800828Y-67874059D01*
X60800828Y-67874059D02*
X60800828Y-67588344D01*
X60800828Y-67588344D02*
X60872257Y-67445487D01*
X60872257Y-67445487D02*
X60943685Y-67374059D01*
X60943685Y-67374059D02*
X61086542Y-67302630D01*
X61086542Y-67302630D02*
X61515114Y-67302630D01*
X61515114Y-67302630D02*
X61657971Y-67374059D01*
X61657971Y-67374059D02*
X61729400Y-67445487D01*
X61729400Y-67445487D02*
X61800828Y-67588344D01*
X61800828Y-67588344D02*
X61800828Y-67874059D01*
X61800828Y-67874059D02*
X61729400Y-68016916D01*
X61800828Y-66445487D02*
X61729400Y-66588344D01*
X61729400Y-66588344D02*
X61657971Y-66659773D01*
X61657971Y-66659773D02*
X61515114Y-66731201D01*
X61515114Y-66731201D02*
X61086542Y-66731201D01*
X61086542Y-66731201D02*
X60943685Y-66659773D01*
X60943685Y-66659773D02*
X60872257Y-66588344D01*
X60872257Y-66588344D02*
X60800828Y-66445487D01*
X60800828Y-66445487D02*
X60800828Y-66231201D01*
X60800828Y-66231201D02*
X60872257Y-66088344D01*
X60872257Y-66088344D02*
X60943685Y-66016916D01*
X60943685Y-66016916D02*
X61086542Y-65945487D01*
X61086542Y-65945487D02*
X61515114Y-65945487D01*
X61515114Y-65945487D02*
X61657971Y-66016916D01*
X61657971Y-66016916D02*
X61729400Y-66088344D01*
X61729400Y-66088344D02*
X61800828Y-66231201D01*
X61800828Y-66231201D02*
X61800828Y-66445487D01*
X60800828Y-65445487D02*
X61800828Y-65159773D01*
X61800828Y-65159773D02*
X61086542Y-64874058D01*
X61086542Y-64874058D02*
X61800828Y-64588344D01*
X61800828Y-64588344D02*
X60800828Y-64302630D01*
X61800828Y-63516915D02*
X61729400Y-63659772D01*
X61729400Y-63659772D02*
X61586542Y-63731201D01*
X61586542Y-63731201D02*
X60300828Y-63731201D01*
D11*
X35539580Y-52142857D02*
X35587200Y-52190476D01*
X35587200Y-52190476D02*
X35634819Y-52333333D01*
X35634819Y-52333333D02*
X35634819Y-52428571D01*
X35634819Y-52428571D02*
X35587200Y-52571428D01*
X35587200Y-52571428D02*
X35491961Y-52666666D01*
X35491961Y-52666666D02*
X35396723Y-52714285D01*
X35396723Y-52714285D02*
X35206247Y-52761904D01*
X35206247Y-52761904D02*
X35063390Y-52761904D01*
X35063390Y-52761904D02*
X34872914Y-52714285D01*
X34872914Y-52714285D02*
X34777676Y-52666666D01*
X34777676Y-52666666D02*
X34682438Y-52571428D01*
X34682438Y-52571428D02*
X34634819Y-52428571D01*
X34634819Y-52428571D02*
X34634819Y-52333333D01*
X34634819Y-52333333D02*
X34682438Y-52190476D01*
X34682438Y-52190476D02*
X34730057Y-52142857D01*
X34730057Y-51761904D02*
X34682438Y-51714285D01*
X34682438Y-51714285D02*
X34634819Y-51619047D01*
X34634819Y-51619047D02*
X34634819Y-51380952D01*
X34634819Y-51380952D02*
X34682438Y-51285714D01*
X34682438Y-51285714D02*
X34730057Y-51238095D01*
X34730057Y-51238095D02*
X34825295Y-51190476D01*
X34825295Y-51190476D02*
X34920533Y-51190476D01*
X34920533Y-51190476D02*
X35063390Y-51238095D01*
X35063390Y-51238095D02*
X35634819Y-51809523D01*
X35634819Y-51809523D02*
X35634819Y-51190476D01*
X34968152Y-50333333D02*
X35634819Y-50333333D01*
X34587200Y-50571428D02*
X35301485Y-50809523D01*
X35301485Y-50809523D02*
X35301485Y-50190476D01*
X35953344Y-20454819D02*
X35953344Y-21169104D01*
X35953344Y-21169104D02*
X35905725Y-21311961D01*
X35905725Y-21311961D02*
X35810487Y-21407200D01*
X35810487Y-21407200D02*
X35667630Y-21454819D01*
X35667630Y-21454819D02*
X35572392Y-21454819D01*
X36953344Y-21454819D02*
X36381916Y-21454819D01*
X36667630Y-21454819D02*
X36667630Y-20454819D01*
X36667630Y-20454819D02*
X36572392Y-20597676D01*
X36572392Y-20597676D02*
X36477154Y-20692914D01*
X36477154Y-20692914D02*
X36381916Y-20740533D01*
X38954819Y-52261904D02*
X39764342Y-52261904D01*
X39764342Y-52261904D02*
X39859580Y-52214285D01*
X39859580Y-52214285D02*
X39907200Y-52166666D01*
X39907200Y-52166666D02*
X39954819Y-52071428D01*
X39954819Y-52071428D02*
X39954819Y-51880952D01*
X39954819Y-51880952D02*
X39907200Y-51785714D01*
X39907200Y-51785714D02*
X39859580Y-51738095D01*
X39859580Y-51738095D02*
X39764342Y-51690476D01*
X39764342Y-51690476D02*
X38954819Y-51690476D01*
X38954819Y-51309523D02*
X38954819Y-50642857D01*
X38954819Y-50642857D02*
X39954819Y-51071428D01*
X21238095Y-31454819D02*
X21238095Y-32264342D01*
X21238095Y-32264342D02*
X21285714Y-32359580D01*
X21285714Y-32359580D02*
X21333333Y-32407200D01*
X21333333Y-32407200D02*
X21428571Y-32454819D01*
X21428571Y-32454819D02*
X21619047Y-32454819D01*
X21619047Y-32454819D02*
X21714285Y-32407200D01*
X21714285Y-32407200D02*
X21761904Y-32359580D01*
X21761904Y-32359580D02*
X21809523Y-32264342D01*
X21809523Y-32264342D02*
X21809523Y-31454819D01*
X22714285Y-31454819D02*
X22523809Y-31454819D01*
X22523809Y-31454819D02*
X22428571Y-31502438D01*
X22428571Y-31502438D02*
X22380952Y-31550057D01*
X22380952Y-31550057D02*
X22285714Y-31692914D01*
X22285714Y-31692914D02*
X22238095Y-31883390D01*
X22238095Y-31883390D02*
X22238095Y-32264342D01*
X22238095Y-32264342D02*
X22285714Y-32359580D01*
X22285714Y-32359580D02*
X22333333Y-32407200D01*
X22333333Y-32407200D02*
X22428571Y-32454819D01*
X22428571Y-32454819D02*
X22619047Y-32454819D01*
X22619047Y-32454819D02*
X22714285Y-32407200D01*
X22714285Y-32407200D02*
X22761904Y-32359580D01*
X22761904Y-32359580D02*
X22809523Y-32264342D01*
X22809523Y-32264342D02*
X22809523Y-32026247D01*
X22809523Y-32026247D02*
X22761904Y-31931009D01*
X22761904Y-31931009D02*
X22714285Y-31883390D01*
X22714285Y-31883390D02*
X22619047Y-31835771D01*
X22619047Y-31835771D02*
X22428571Y-31835771D01*
X22428571Y-31835771D02*
X22333333Y-31883390D01*
X22333333Y-31883390D02*
X22285714Y-31931009D01*
X22285714Y-31931009D02*
X22238095Y-32026247D01*
X35738095Y-31954819D02*
X35738095Y-32764342D01*
X35738095Y-32764342D02*
X35785714Y-32859580D01*
X35785714Y-32859580D02*
X35833333Y-32907200D01*
X35833333Y-32907200D02*
X35928571Y-32954819D01*
X35928571Y-32954819D02*
X36119047Y-32954819D01*
X36119047Y-32954819D02*
X36214285Y-32907200D01*
X36214285Y-32907200D02*
X36261904Y-32859580D01*
X36261904Y-32859580D02*
X36309523Y-32764342D01*
X36309523Y-32764342D02*
X36309523Y-31954819D01*
X37261904Y-31954819D02*
X36785714Y-31954819D01*
X36785714Y-31954819D02*
X36738095Y-32431009D01*
X36738095Y-32431009D02*
X36785714Y-32383390D01*
X36785714Y-32383390D02*
X36880952Y-32335771D01*
X36880952Y-32335771D02*
X37119047Y-32335771D01*
X37119047Y-32335771D02*
X37214285Y-32383390D01*
X37214285Y-32383390D02*
X37261904Y-32431009D01*
X37261904Y-32431009D02*
X37309523Y-32526247D01*
X37309523Y-32526247D02*
X37309523Y-32764342D01*
X37309523Y-32764342D02*
X37261904Y-32859580D01*
X37261904Y-32859580D02*
X37214285Y-32907200D01*
X37214285Y-32907200D02*
X37119047Y-32954819D01*
X37119047Y-32954819D02*
X36880952Y-32954819D01*
X36880952Y-32954819D02*
X36785714Y-32907200D01*
X36785714Y-32907200D02*
X36738095Y-32859580D01*
X35738095Y-37524819D02*
X35738095Y-38334342D01*
X35738095Y-38334342D02*
X35785714Y-38429580D01*
X35785714Y-38429580D02*
X35833333Y-38477200D01*
X35833333Y-38477200D02*
X35928571Y-38524819D01*
X35928571Y-38524819D02*
X36119047Y-38524819D01*
X36119047Y-38524819D02*
X36214285Y-38477200D01*
X36214285Y-38477200D02*
X36261904Y-38429580D01*
X36261904Y-38429580D02*
X36309523Y-38334342D01*
X36309523Y-38334342D02*
X36309523Y-37524819D01*
X37214285Y-37858152D02*
X37214285Y-38524819D01*
X36976190Y-37477200D02*
X36738095Y-38191485D01*
X36738095Y-38191485D02*
X37357142Y-38191485D01*
X20666667Y-30407200D02*
X20809524Y-30454819D01*
X20809524Y-30454819D02*
X21047619Y-30454819D01*
X21047619Y-30454819D02*
X21142857Y-30407200D01*
X21142857Y-30407200D02*
X21190476Y-30359580D01*
X21190476Y-30359580D02*
X21238095Y-30264342D01*
X21238095Y-30264342D02*
X21238095Y-30169104D01*
X21238095Y-30169104D02*
X21190476Y-30073866D01*
X21190476Y-30073866D02*
X21142857Y-30026247D01*
X21142857Y-30026247D02*
X21047619Y-29978628D01*
X21047619Y-29978628D02*
X20857143Y-29931009D01*
X20857143Y-29931009D02*
X20761905Y-29883390D01*
X20761905Y-29883390D02*
X20714286Y-29835771D01*
X20714286Y-29835771D02*
X20666667Y-29740533D01*
X20666667Y-29740533D02*
X20666667Y-29645295D01*
X20666667Y-29645295D02*
X20714286Y-29550057D01*
X20714286Y-29550057D02*
X20761905Y-29502438D01*
X20761905Y-29502438D02*
X20857143Y-29454819D01*
X20857143Y-29454819D02*
X21095238Y-29454819D01*
X21095238Y-29454819D02*
X21238095Y-29502438D01*
X21571429Y-29454819D02*
X21809524Y-30454819D01*
X21809524Y-30454819D02*
X22000000Y-29740533D01*
X22000000Y-29740533D02*
X22190476Y-30454819D01*
X22190476Y-30454819D02*
X22428572Y-29454819D01*
X23333333Y-30454819D02*
X22761905Y-30454819D01*
X23047619Y-30454819D02*
X23047619Y-29454819D01*
X23047619Y-29454819D02*
X22952381Y-29597676D01*
X22952381Y-29597676D02*
X22857143Y-29692914D01*
X22857143Y-29692914D02*
X22761905Y-29740533D01*
X46357142Y-39604819D02*
X46023809Y-39128628D01*
X45785714Y-39604819D02*
X45785714Y-38604819D01*
X45785714Y-38604819D02*
X46166666Y-38604819D01*
X46166666Y-38604819D02*
X46261904Y-38652438D01*
X46261904Y-38652438D02*
X46309523Y-38700057D01*
X46309523Y-38700057D02*
X46357142Y-38795295D01*
X46357142Y-38795295D02*
X46357142Y-38938152D01*
X46357142Y-38938152D02*
X46309523Y-39033390D01*
X46309523Y-39033390D02*
X46261904Y-39081009D01*
X46261904Y-39081009D02*
X46166666Y-39128628D01*
X46166666Y-39128628D02*
X45785714Y-39128628D01*
X47309523Y-39604819D02*
X46738095Y-39604819D01*
X47023809Y-39604819D02*
X47023809Y-38604819D01*
X47023809Y-38604819D02*
X46928571Y-38747676D01*
X46928571Y-38747676D02*
X46833333Y-38842914D01*
X46833333Y-38842914D02*
X46738095Y-38890533D01*
X47642857Y-38604819D02*
X48309523Y-38604819D01*
X48309523Y-38604819D02*
X47880952Y-39604819D01*
X41357142Y-46804819D02*
X41023809Y-46328628D01*
X40785714Y-46804819D02*
X40785714Y-45804819D01*
X40785714Y-45804819D02*
X41166666Y-45804819D01*
X41166666Y-45804819D02*
X41261904Y-45852438D01*
X41261904Y-45852438D02*
X41309523Y-45900057D01*
X41309523Y-45900057D02*
X41357142Y-45995295D01*
X41357142Y-45995295D02*
X41357142Y-46138152D01*
X41357142Y-46138152D02*
X41309523Y-46233390D01*
X41309523Y-46233390D02*
X41261904Y-46281009D01*
X41261904Y-46281009D02*
X41166666Y-46328628D01*
X41166666Y-46328628D02*
X40785714Y-46328628D01*
X42309523Y-46804819D02*
X41738095Y-46804819D01*
X42023809Y-46804819D02*
X42023809Y-45804819D01*
X42023809Y-45804819D02*
X41928571Y-45947676D01*
X41928571Y-45947676D02*
X41833333Y-46042914D01*
X41833333Y-46042914D02*
X41738095Y-46090533D01*
X43166666Y-45804819D02*
X42976190Y-45804819D01*
X42976190Y-45804819D02*
X42880952Y-45852438D01*
X42880952Y-45852438D02*
X42833333Y-45900057D01*
X42833333Y-45900057D02*
X42738095Y-46042914D01*
X42738095Y-46042914D02*
X42690476Y-46233390D01*
X42690476Y-46233390D02*
X42690476Y-46614342D01*
X42690476Y-46614342D02*
X42738095Y-46709580D01*
X42738095Y-46709580D02*
X42785714Y-46757200D01*
X42785714Y-46757200D02*
X42880952Y-46804819D01*
X42880952Y-46804819D02*
X43071428Y-46804819D01*
X43071428Y-46804819D02*
X43166666Y-46757200D01*
X43166666Y-46757200D02*
X43214285Y-46709580D01*
X43214285Y-46709580D02*
X43261904Y-46614342D01*
X43261904Y-46614342D02*
X43261904Y-46376247D01*
X43261904Y-46376247D02*
X43214285Y-46281009D01*
X43214285Y-46281009D02*
X43166666Y-46233390D01*
X43166666Y-46233390D02*
X43071428Y-46185771D01*
X43071428Y-46185771D02*
X42880952Y-46185771D01*
X42880952Y-46185771D02*
X42785714Y-46233390D01*
X42785714Y-46233390D02*
X42738095Y-46281009D01*
X42738095Y-46281009D02*
X42690476Y-46376247D01*
X38804819Y-52142857D02*
X38328628Y-52476190D01*
X38804819Y-52714285D02*
X37804819Y-52714285D01*
X37804819Y-52714285D02*
X37804819Y-52333333D01*
X37804819Y-52333333D02*
X37852438Y-52238095D01*
X37852438Y-52238095D02*
X37900057Y-52190476D01*
X37900057Y-52190476D02*
X37995295Y-52142857D01*
X37995295Y-52142857D02*
X38138152Y-52142857D01*
X38138152Y-52142857D02*
X38233390Y-52190476D01*
X38233390Y-52190476D02*
X38281009Y-52238095D01*
X38281009Y-52238095D02*
X38328628Y-52333333D01*
X38328628Y-52333333D02*
X38328628Y-52714285D01*
X38804819Y-51190476D02*
X38804819Y-51761904D01*
X38804819Y-51476190D02*
X37804819Y-51476190D01*
X37804819Y-51476190D02*
X37947676Y-51571428D01*
X37947676Y-51571428D02*
X38042914Y-51666666D01*
X38042914Y-51666666D02*
X38090533Y-51761904D01*
X37804819Y-50285714D02*
X37804819Y-50761904D01*
X37804819Y-50761904D02*
X38281009Y-50809523D01*
X38281009Y-50809523D02*
X38233390Y-50761904D01*
X38233390Y-50761904D02*
X38185771Y-50666666D01*
X38185771Y-50666666D02*
X38185771Y-50428571D01*
X38185771Y-50428571D02*
X38233390Y-50333333D01*
X38233390Y-50333333D02*
X38281009Y-50285714D01*
X38281009Y-50285714D02*
X38376247Y-50238095D01*
X38376247Y-50238095D02*
X38614342Y-50238095D01*
X38614342Y-50238095D02*
X38709580Y-50285714D01*
X38709580Y-50285714D02*
X38757200Y-50333333D01*
X38757200Y-50333333D02*
X38804819Y-50428571D01*
X38804819Y-50428571D02*
X38804819Y-50666666D01*
X38804819Y-50666666D02*
X38757200Y-50761904D01*
X38757200Y-50761904D02*
X38709580Y-50809523D01*
X45357142Y-45804819D02*
X45023809Y-45328628D01*
X44785714Y-45804819D02*
X44785714Y-44804819D01*
X44785714Y-44804819D02*
X45166666Y-44804819D01*
X45166666Y-44804819D02*
X45261904Y-44852438D01*
X45261904Y-44852438D02*
X45309523Y-44900057D01*
X45309523Y-44900057D02*
X45357142Y-44995295D01*
X45357142Y-44995295D02*
X45357142Y-45138152D01*
X45357142Y-45138152D02*
X45309523Y-45233390D01*
X45309523Y-45233390D02*
X45261904Y-45281009D01*
X45261904Y-45281009D02*
X45166666Y-45328628D01*
X45166666Y-45328628D02*
X44785714Y-45328628D01*
X46309523Y-45804819D02*
X45738095Y-45804819D01*
X46023809Y-45804819D02*
X46023809Y-44804819D01*
X46023809Y-44804819D02*
X45928571Y-44947676D01*
X45928571Y-44947676D02*
X45833333Y-45042914D01*
X45833333Y-45042914D02*
X45738095Y-45090533D01*
X47166666Y-45138152D02*
X47166666Y-45804819D01*
X46928571Y-44757200D02*
X46690476Y-45471485D01*
X46690476Y-45471485D02*
X47309523Y-45471485D01*
X49357142Y-34304819D02*
X49023809Y-33828628D01*
X48785714Y-34304819D02*
X48785714Y-33304819D01*
X48785714Y-33304819D02*
X49166666Y-33304819D01*
X49166666Y-33304819D02*
X49261904Y-33352438D01*
X49261904Y-33352438D02*
X49309523Y-33400057D01*
X49309523Y-33400057D02*
X49357142Y-33495295D01*
X49357142Y-33495295D02*
X49357142Y-33638152D01*
X49357142Y-33638152D02*
X49309523Y-33733390D01*
X49309523Y-33733390D02*
X49261904Y-33781009D01*
X49261904Y-33781009D02*
X49166666Y-33828628D01*
X49166666Y-33828628D02*
X48785714Y-33828628D01*
X50309523Y-34304819D02*
X49738095Y-34304819D01*
X50023809Y-34304819D02*
X50023809Y-33304819D01*
X50023809Y-33304819D02*
X49928571Y-33447676D01*
X49928571Y-33447676D02*
X49833333Y-33542914D01*
X49833333Y-33542914D02*
X49738095Y-33590533D01*
X50642857Y-33304819D02*
X51261904Y-33304819D01*
X51261904Y-33304819D02*
X50928571Y-33685771D01*
X50928571Y-33685771D02*
X51071428Y-33685771D01*
X51071428Y-33685771D02*
X51166666Y-33733390D01*
X51166666Y-33733390D02*
X51214285Y-33781009D01*
X51214285Y-33781009D02*
X51261904Y-33876247D01*
X51261904Y-33876247D02*
X51261904Y-34114342D01*
X51261904Y-34114342D02*
X51214285Y-34209580D01*
X51214285Y-34209580D02*
X51166666Y-34257200D01*
X51166666Y-34257200D02*
X51071428Y-34304819D01*
X51071428Y-34304819D02*
X50785714Y-34304819D01*
X50785714Y-34304819D02*
X50690476Y-34257200D01*
X50690476Y-34257200D02*
X50642857Y-34209580D01*
X55104819Y-40642857D02*
X54628628Y-40976190D01*
X55104819Y-41214285D02*
X54104819Y-41214285D01*
X54104819Y-41214285D02*
X54104819Y-40833333D01*
X54104819Y-40833333D02*
X54152438Y-40738095D01*
X54152438Y-40738095D02*
X54200057Y-40690476D01*
X54200057Y-40690476D02*
X54295295Y-40642857D01*
X54295295Y-40642857D02*
X54438152Y-40642857D01*
X54438152Y-40642857D02*
X54533390Y-40690476D01*
X54533390Y-40690476D02*
X54581009Y-40738095D01*
X54581009Y-40738095D02*
X54628628Y-40833333D01*
X54628628Y-40833333D02*
X54628628Y-41214285D01*
X55104819Y-39690476D02*
X55104819Y-40261904D01*
X55104819Y-39976190D02*
X54104819Y-39976190D01*
X54104819Y-39976190D02*
X54247676Y-40071428D01*
X54247676Y-40071428D02*
X54342914Y-40166666D01*
X54342914Y-40166666D02*
X54390533Y-40261904D01*
X54200057Y-39309523D02*
X54152438Y-39261904D01*
X54152438Y-39261904D02*
X54104819Y-39166666D01*
X54104819Y-39166666D02*
X54104819Y-38928571D01*
X54104819Y-38928571D02*
X54152438Y-38833333D01*
X54152438Y-38833333D02*
X54200057Y-38785714D01*
X54200057Y-38785714D02*
X54295295Y-38738095D01*
X54295295Y-38738095D02*
X54390533Y-38738095D01*
X54390533Y-38738095D02*
X54533390Y-38785714D01*
X54533390Y-38785714D02*
X55104819Y-39357142D01*
X55104819Y-39357142D02*
X55104819Y-38738095D01*
X51604819Y-42642857D02*
X51128628Y-42976190D01*
X51604819Y-43214285D02*
X50604819Y-43214285D01*
X50604819Y-43214285D02*
X50604819Y-42833333D01*
X50604819Y-42833333D02*
X50652438Y-42738095D01*
X50652438Y-42738095D02*
X50700057Y-42690476D01*
X50700057Y-42690476D02*
X50795295Y-42642857D01*
X50795295Y-42642857D02*
X50938152Y-42642857D01*
X50938152Y-42642857D02*
X51033390Y-42690476D01*
X51033390Y-42690476D02*
X51081009Y-42738095D01*
X51081009Y-42738095D02*
X51128628Y-42833333D01*
X51128628Y-42833333D02*
X51128628Y-43214285D01*
X51604819Y-41690476D02*
X51604819Y-42261904D01*
X51604819Y-41976190D02*
X50604819Y-41976190D01*
X50604819Y-41976190D02*
X50747676Y-42071428D01*
X50747676Y-42071428D02*
X50842914Y-42166666D01*
X50842914Y-42166666D02*
X50890533Y-42261904D01*
X51604819Y-40738095D02*
X51604819Y-41309523D01*
X51604819Y-41023809D02*
X50604819Y-41023809D01*
X50604819Y-41023809D02*
X50747676Y-41119047D01*
X50747676Y-41119047D02*
X50842914Y-41214285D01*
X50842914Y-41214285D02*
X50890533Y-41309523D01*
X17804819Y-34142857D02*
X17328628Y-34476190D01*
X17804819Y-34714285D02*
X16804819Y-34714285D01*
X16804819Y-34714285D02*
X16804819Y-34333333D01*
X16804819Y-34333333D02*
X16852438Y-34238095D01*
X16852438Y-34238095D02*
X16900057Y-34190476D01*
X16900057Y-34190476D02*
X16995295Y-34142857D01*
X16995295Y-34142857D02*
X17138152Y-34142857D01*
X17138152Y-34142857D02*
X17233390Y-34190476D01*
X17233390Y-34190476D02*
X17281009Y-34238095D01*
X17281009Y-34238095D02*
X17328628Y-34333333D01*
X17328628Y-34333333D02*
X17328628Y-34714285D01*
X17804819Y-33190476D02*
X17804819Y-33761904D01*
X17804819Y-33476190D02*
X16804819Y-33476190D01*
X16804819Y-33476190D02*
X16947676Y-33571428D01*
X16947676Y-33571428D02*
X17042914Y-33666666D01*
X17042914Y-33666666D02*
X17090533Y-33761904D01*
X16804819Y-32571428D02*
X16804819Y-32476190D01*
X16804819Y-32476190D02*
X16852438Y-32380952D01*
X16852438Y-32380952D02*
X16900057Y-32333333D01*
X16900057Y-32333333D02*
X16995295Y-32285714D01*
X16995295Y-32285714D02*
X17185771Y-32238095D01*
X17185771Y-32238095D02*
X17423866Y-32238095D01*
X17423866Y-32238095D02*
X17614342Y-32285714D01*
X17614342Y-32285714D02*
X17709580Y-32333333D01*
X17709580Y-32333333D02*
X17757200Y-32380952D01*
X17757200Y-32380952D02*
X17804819Y-32476190D01*
X17804819Y-32476190D02*
X17804819Y-32571428D01*
X17804819Y-32571428D02*
X17757200Y-32666666D01*
X17757200Y-32666666D02*
X17709580Y-32714285D01*
X17709580Y-32714285D02*
X17614342Y-32761904D01*
X17614342Y-32761904D02*
X17423866Y-32809523D01*
X17423866Y-32809523D02*
X17185771Y-32809523D01*
X17185771Y-32809523D02*
X16995295Y-32761904D01*
X16995295Y-32761904D02*
X16900057Y-32714285D01*
X16900057Y-32714285D02*
X16852438Y-32666666D01*
X16852438Y-32666666D02*
X16804819Y-32571428D01*
X29104819Y-38666666D02*
X28628628Y-38999999D01*
X29104819Y-39238094D02*
X28104819Y-39238094D01*
X28104819Y-39238094D02*
X28104819Y-38857142D01*
X28104819Y-38857142D02*
X28152438Y-38761904D01*
X28152438Y-38761904D02*
X28200057Y-38714285D01*
X28200057Y-38714285D02*
X28295295Y-38666666D01*
X28295295Y-38666666D02*
X28438152Y-38666666D01*
X28438152Y-38666666D02*
X28533390Y-38714285D01*
X28533390Y-38714285D02*
X28581009Y-38761904D01*
X28581009Y-38761904D02*
X28628628Y-38857142D01*
X28628628Y-38857142D02*
X28628628Y-39238094D01*
X29104819Y-38190475D02*
X29104819Y-37999999D01*
X29104819Y-37999999D02*
X29057200Y-37904761D01*
X29057200Y-37904761D02*
X29009580Y-37857142D01*
X29009580Y-37857142D02*
X28866723Y-37761904D01*
X28866723Y-37761904D02*
X28676247Y-37714285D01*
X28676247Y-37714285D02*
X28295295Y-37714285D01*
X28295295Y-37714285D02*
X28200057Y-37761904D01*
X28200057Y-37761904D02*
X28152438Y-37809523D01*
X28152438Y-37809523D02*
X28104819Y-37904761D01*
X28104819Y-37904761D02*
X28104819Y-38095237D01*
X28104819Y-38095237D02*
X28152438Y-38190475D01*
X28152438Y-38190475D02*
X28200057Y-38238094D01*
X28200057Y-38238094D02*
X28295295Y-38285713D01*
X28295295Y-38285713D02*
X28533390Y-38285713D01*
X28533390Y-38285713D02*
X28628628Y-38238094D01*
X28628628Y-38238094D02*
X28676247Y-38190475D01*
X28676247Y-38190475D02*
X28723866Y-38095237D01*
X28723866Y-38095237D02*
X28723866Y-37904761D01*
X28723866Y-37904761D02*
X28676247Y-37809523D01*
X28676247Y-37809523D02*
X28628628Y-37761904D01*
X28628628Y-37761904D02*
X28533390Y-37714285D01*
X31833333Y-24604819D02*
X31500000Y-24128628D01*
X31261905Y-24604819D02*
X31261905Y-23604819D01*
X31261905Y-23604819D02*
X31642857Y-23604819D01*
X31642857Y-23604819D02*
X31738095Y-23652438D01*
X31738095Y-23652438D02*
X31785714Y-23700057D01*
X31785714Y-23700057D02*
X31833333Y-23795295D01*
X31833333Y-23795295D02*
X31833333Y-23938152D01*
X31833333Y-23938152D02*
X31785714Y-24033390D01*
X31785714Y-24033390D02*
X31738095Y-24081009D01*
X31738095Y-24081009D02*
X31642857Y-24128628D01*
X31642857Y-24128628D02*
X31261905Y-24128628D01*
X32404762Y-24033390D02*
X32309524Y-23985771D01*
X32309524Y-23985771D02*
X32261905Y-23938152D01*
X32261905Y-23938152D02*
X32214286Y-23842914D01*
X32214286Y-23842914D02*
X32214286Y-23795295D01*
X32214286Y-23795295D02*
X32261905Y-23700057D01*
X32261905Y-23700057D02*
X32309524Y-23652438D01*
X32309524Y-23652438D02*
X32404762Y-23604819D01*
X32404762Y-23604819D02*
X32595238Y-23604819D01*
X32595238Y-23604819D02*
X32690476Y-23652438D01*
X32690476Y-23652438D02*
X32738095Y-23700057D01*
X32738095Y-23700057D02*
X32785714Y-23795295D01*
X32785714Y-23795295D02*
X32785714Y-23842914D01*
X32785714Y-23842914D02*
X32738095Y-23938152D01*
X32738095Y-23938152D02*
X32690476Y-23985771D01*
X32690476Y-23985771D02*
X32595238Y-24033390D01*
X32595238Y-24033390D02*
X32404762Y-24033390D01*
X32404762Y-24033390D02*
X32309524Y-24081009D01*
X32309524Y-24081009D02*
X32261905Y-24128628D01*
X32261905Y-24128628D02*
X32214286Y-24223866D01*
X32214286Y-24223866D02*
X32214286Y-24414342D01*
X32214286Y-24414342D02*
X32261905Y-24509580D01*
X32261905Y-24509580D02*
X32309524Y-24557200D01*
X32309524Y-24557200D02*
X32404762Y-24604819D01*
X32404762Y-24604819D02*
X32595238Y-24604819D01*
X32595238Y-24604819D02*
X32690476Y-24557200D01*
X32690476Y-24557200D02*
X32738095Y-24509580D01*
X32738095Y-24509580D02*
X32785714Y-24414342D01*
X32785714Y-24414342D02*
X32785714Y-24223866D01*
X32785714Y-24223866D02*
X32738095Y-24128628D01*
X32738095Y-24128628D02*
X32690476Y-24081009D01*
X32690476Y-24081009D02*
X32595238Y-24033390D01*
X38333333Y-24604819D02*
X38000000Y-24128628D01*
X37761905Y-24604819D02*
X37761905Y-23604819D01*
X37761905Y-23604819D02*
X38142857Y-23604819D01*
X38142857Y-23604819D02*
X38238095Y-23652438D01*
X38238095Y-23652438D02*
X38285714Y-23700057D01*
X38285714Y-23700057D02*
X38333333Y-23795295D01*
X38333333Y-23795295D02*
X38333333Y-23938152D01*
X38333333Y-23938152D02*
X38285714Y-24033390D01*
X38285714Y-24033390D02*
X38238095Y-24081009D01*
X38238095Y-24081009D02*
X38142857Y-24128628D01*
X38142857Y-24128628D02*
X37761905Y-24128628D01*
X38666667Y-23604819D02*
X39333333Y-23604819D01*
X39333333Y-23604819D02*
X38904762Y-24604819D01*
X39804819Y-26666666D02*
X39328628Y-26999999D01*
X39804819Y-27238094D02*
X38804819Y-27238094D01*
X38804819Y-27238094D02*
X38804819Y-26857142D01*
X38804819Y-26857142D02*
X38852438Y-26761904D01*
X38852438Y-26761904D02*
X38900057Y-26714285D01*
X38900057Y-26714285D02*
X38995295Y-26666666D01*
X38995295Y-26666666D02*
X39138152Y-26666666D01*
X39138152Y-26666666D02*
X39233390Y-26714285D01*
X39233390Y-26714285D02*
X39281009Y-26761904D01*
X39281009Y-26761904D02*
X39328628Y-26857142D01*
X39328628Y-26857142D02*
X39328628Y-27238094D01*
X38804819Y-25809523D02*
X38804819Y-25999999D01*
X38804819Y-25999999D02*
X38852438Y-26095237D01*
X38852438Y-26095237D02*
X38900057Y-26142856D01*
X38900057Y-26142856D02*
X39042914Y-26238094D01*
X39042914Y-26238094D02*
X39233390Y-26285713D01*
X39233390Y-26285713D02*
X39614342Y-26285713D01*
X39614342Y-26285713D02*
X39709580Y-26238094D01*
X39709580Y-26238094D02*
X39757200Y-26190475D01*
X39757200Y-26190475D02*
X39804819Y-26095237D01*
X39804819Y-26095237D02*
X39804819Y-25904761D01*
X39804819Y-25904761D02*
X39757200Y-25809523D01*
X39757200Y-25809523D02*
X39709580Y-25761904D01*
X39709580Y-25761904D02*
X39614342Y-25714285D01*
X39614342Y-25714285D02*
X39376247Y-25714285D01*
X39376247Y-25714285D02*
X39281009Y-25761904D01*
X39281009Y-25761904D02*
X39233390Y-25809523D01*
X39233390Y-25809523D02*
X39185771Y-25904761D01*
X39185771Y-25904761D02*
X39185771Y-26095237D01*
X39185771Y-26095237D02*
X39233390Y-26190475D01*
X39233390Y-26190475D02*
X39281009Y-26238094D01*
X39281009Y-26238094D02*
X39376247Y-26285713D01*
X42804819Y-26666666D02*
X42328628Y-26999999D01*
X42804819Y-27238094D02*
X41804819Y-27238094D01*
X41804819Y-27238094D02*
X41804819Y-26857142D01*
X41804819Y-26857142D02*
X41852438Y-26761904D01*
X41852438Y-26761904D02*
X41900057Y-26714285D01*
X41900057Y-26714285D02*
X41995295Y-26666666D01*
X41995295Y-26666666D02*
X42138152Y-26666666D01*
X42138152Y-26666666D02*
X42233390Y-26714285D01*
X42233390Y-26714285D02*
X42281009Y-26761904D01*
X42281009Y-26761904D02*
X42328628Y-26857142D01*
X42328628Y-26857142D02*
X42328628Y-27238094D01*
X41804819Y-25761904D02*
X41804819Y-26238094D01*
X41804819Y-26238094D02*
X42281009Y-26285713D01*
X42281009Y-26285713D02*
X42233390Y-26238094D01*
X42233390Y-26238094D02*
X42185771Y-26142856D01*
X42185771Y-26142856D02*
X42185771Y-25904761D01*
X42185771Y-25904761D02*
X42233390Y-25809523D01*
X42233390Y-25809523D02*
X42281009Y-25761904D01*
X42281009Y-25761904D02*
X42376247Y-25714285D01*
X42376247Y-25714285D02*
X42614342Y-25714285D01*
X42614342Y-25714285D02*
X42709580Y-25761904D01*
X42709580Y-25761904D02*
X42757200Y-25809523D01*
X42757200Y-25809523D02*
X42804819Y-25904761D01*
X42804819Y-25904761D02*
X42804819Y-26142856D01*
X42804819Y-26142856D02*
X42757200Y-26238094D01*
X42757200Y-26238094D02*
X42709580Y-26285713D01*
X38833333Y-34604819D02*
X38500000Y-34128628D01*
X38261905Y-34604819D02*
X38261905Y-33604819D01*
X38261905Y-33604819D02*
X38642857Y-33604819D01*
X38642857Y-33604819D02*
X38738095Y-33652438D01*
X38738095Y-33652438D02*
X38785714Y-33700057D01*
X38785714Y-33700057D02*
X38833333Y-33795295D01*
X38833333Y-33795295D02*
X38833333Y-33938152D01*
X38833333Y-33938152D02*
X38785714Y-34033390D01*
X38785714Y-34033390D02*
X38738095Y-34081009D01*
X38738095Y-34081009D02*
X38642857Y-34128628D01*
X38642857Y-34128628D02*
X38261905Y-34128628D01*
X39690476Y-33938152D02*
X39690476Y-34604819D01*
X39452381Y-33557200D02*
X39214286Y-34271485D01*
X39214286Y-34271485D02*
X39833333Y-34271485D01*
X32245833Y-33804819D02*
X31912500Y-33328628D01*
X31674405Y-33804819D02*
X31674405Y-32804819D01*
X31674405Y-32804819D02*
X32055357Y-32804819D01*
X32055357Y-32804819D02*
X32150595Y-32852438D01*
X32150595Y-32852438D02*
X32198214Y-32900057D01*
X32198214Y-32900057D02*
X32245833Y-32995295D01*
X32245833Y-32995295D02*
X32245833Y-33138152D01*
X32245833Y-33138152D02*
X32198214Y-33233390D01*
X32198214Y-33233390D02*
X32150595Y-33281009D01*
X32150595Y-33281009D02*
X32055357Y-33328628D01*
X32055357Y-33328628D02*
X31674405Y-33328628D01*
X32579167Y-32804819D02*
X33198214Y-32804819D01*
X33198214Y-32804819D02*
X32864881Y-33185771D01*
X32864881Y-33185771D02*
X33007738Y-33185771D01*
X33007738Y-33185771D02*
X33102976Y-33233390D01*
X33102976Y-33233390D02*
X33150595Y-33281009D01*
X33150595Y-33281009D02*
X33198214Y-33376247D01*
X33198214Y-33376247D02*
X33198214Y-33614342D01*
X33198214Y-33614342D02*
X33150595Y-33709580D01*
X33150595Y-33709580D02*
X33102976Y-33757200D01*
X33102976Y-33757200D02*
X33007738Y-33804819D01*
X33007738Y-33804819D02*
X32722024Y-33804819D01*
X32722024Y-33804819D02*
X32626786Y-33757200D01*
X32626786Y-33757200D02*
X32579167Y-33709580D01*
X45833333Y-42717319D02*
X45500000Y-42241128D01*
X45261905Y-42717319D02*
X45261905Y-41717319D01*
X45261905Y-41717319D02*
X45642857Y-41717319D01*
X45642857Y-41717319D02*
X45738095Y-41764938D01*
X45738095Y-41764938D02*
X45785714Y-41812557D01*
X45785714Y-41812557D02*
X45833333Y-41907795D01*
X45833333Y-41907795D02*
X45833333Y-42050652D01*
X45833333Y-42050652D02*
X45785714Y-42145890D01*
X45785714Y-42145890D02*
X45738095Y-42193509D01*
X45738095Y-42193509D02*
X45642857Y-42241128D01*
X45642857Y-42241128D02*
X45261905Y-42241128D01*
X46214286Y-41812557D02*
X46261905Y-41764938D01*
X46261905Y-41764938D02*
X46357143Y-41717319D01*
X46357143Y-41717319D02*
X46595238Y-41717319D01*
X46595238Y-41717319D02*
X46690476Y-41764938D01*
X46690476Y-41764938D02*
X46738095Y-41812557D01*
X46738095Y-41812557D02*
X46785714Y-41907795D01*
X46785714Y-41907795D02*
X46785714Y-42003033D01*
X46785714Y-42003033D02*
X46738095Y-42145890D01*
X46738095Y-42145890D02*
X46166667Y-42717319D01*
X46166667Y-42717319D02*
X46785714Y-42717319D01*
X45833333Y-39767319D02*
X45500000Y-39291128D01*
X45261905Y-39767319D02*
X45261905Y-38767319D01*
X45261905Y-38767319D02*
X45642857Y-38767319D01*
X45642857Y-38767319D02*
X45738095Y-38814938D01*
X45738095Y-38814938D02*
X45785714Y-38862557D01*
X45785714Y-38862557D02*
X45833333Y-38957795D01*
X45833333Y-38957795D02*
X45833333Y-39100652D01*
X45833333Y-39100652D02*
X45785714Y-39195890D01*
X45785714Y-39195890D02*
X45738095Y-39243509D01*
X45738095Y-39243509D02*
X45642857Y-39291128D01*
X45642857Y-39291128D02*
X45261905Y-39291128D01*
X46785714Y-39767319D02*
X46214286Y-39767319D01*
X46500000Y-39767319D02*
X46500000Y-38767319D01*
X46500000Y-38767319D02*
X46404762Y-38910176D01*
X46404762Y-38910176D02*
X46309524Y-39005414D01*
X46309524Y-39005414D02*
X46214286Y-39053033D01*
X49904761Y-37850057D02*
X49809523Y-37802438D01*
X49809523Y-37802438D02*
X49714285Y-37707200D01*
X49714285Y-37707200D02*
X49571428Y-37564342D01*
X49571428Y-37564342D02*
X49476190Y-37516723D01*
X49476190Y-37516723D02*
X49380952Y-37516723D01*
X49428571Y-37754819D02*
X49333333Y-37707200D01*
X49333333Y-37707200D02*
X49238095Y-37611961D01*
X49238095Y-37611961D02*
X49190476Y-37421485D01*
X49190476Y-37421485D02*
X49190476Y-37088152D01*
X49190476Y-37088152D02*
X49238095Y-36897676D01*
X49238095Y-36897676D02*
X49333333Y-36802438D01*
X49333333Y-36802438D02*
X49428571Y-36754819D01*
X49428571Y-36754819D02*
X49619047Y-36754819D01*
X49619047Y-36754819D02*
X49714285Y-36802438D01*
X49714285Y-36802438D02*
X49809523Y-36897676D01*
X49809523Y-36897676D02*
X49857142Y-37088152D01*
X49857142Y-37088152D02*
X49857142Y-37421485D01*
X49857142Y-37421485D02*
X49809523Y-37611961D01*
X49809523Y-37611961D02*
X49714285Y-37707200D01*
X49714285Y-37707200D02*
X49619047Y-37754819D01*
X49619047Y-37754819D02*
X49428571Y-37754819D01*
X50809523Y-37754819D02*
X50238095Y-37754819D01*
X50523809Y-37754819D02*
X50523809Y-36754819D01*
X50523809Y-36754819D02*
X50428571Y-36897676D01*
X50428571Y-36897676D02*
X50333333Y-36992914D01*
X50333333Y-36992914D02*
X50238095Y-37040533D01*
X42833333Y-36504819D02*
X42357143Y-36504819D01*
X42357143Y-36504819D02*
X42357143Y-35504819D01*
X43119048Y-35600057D02*
X43166667Y-35552438D01*
X43166667Y-35552438D02*
X43261905Y-35504819D01*
X43261905Y-35504819D02*
X43500000Y-35504819D01*
X43500000Y-35504819D02*
X43595238Y-35552438D01*
X43595238Y-35552438D02*
X43642857Y-35600057D01*
X43642857Y-35600057D02*
X43690476Y-35695295D01*
X43690476Y-35695295D02*
X43690476Y-35790533D01*
X43690476Y-35790533D02*
X43642857Y-35933390D01*
X43642857Y-35933390D02*
X43071429Y-36504819D01*
X43071429Y-36504819D02*
X43690476Y-36504819D01*
X32333333Y-30004819D02*
X31857143Y-30004819D01*
X31857143Y-30004819D02*
X31857143Y-29004819D01*
X33190476Y-30004819D02*
X32619048Y-30004819D01*
X32904762Y-30004819D02*
X32904762Y-29004819D01*
X32904762Y-29004819D02*
X32809524Y-29147676D01*
X32809524Y-29147676D02*
X32714286Y-29242914D01*
X32714286Y-29242914D02*
X32619048Y-29290533D01*
X49761905Y-49104819D02*
X49761905Y-48104819D01*
X49761905Y-48104819D02*
X50000000Y-48104819D01*
X50000000Y-48104819D02*
X50142857Y-48152438D01*
X50142857Y-48152438D02*
X50238095Y-48247676D01*
X50238095Y-48247676D02*
X50285714Y-48342914D01*
X50285714Y-48342914D02*
X50333333Y-48533390D01*
X50333333Y-48533390D02*
X50333333Y-48676247D01*
X50333333Y-48676247D02*
X50285714Y-48866723D01*
X50285714Y-48866723D02*
X50238095Y-48961961D01*
X50238095Y-48961961D02*
X50142857Y-49057200D01*
X50142857Y-49057200D02*
X50000000Y-49104819D01*
X50000000Y-49104819D02*
X49761905Y-49104819D01*
X50714286Y-48200057D02*
X50761905Y-48152438D01*
X50761905Y-48152438D02*
X50857143Y-48104819D01*
X50857143Y-48104819D02*
X51095238Y-48104819D01*
X51095238Y-48104819D02*
X51190476Y-48152438D01*
X51190476Y-48152438D02*
X51238095Y-48200057D01*
X51238095Y-48200057D02*
X51285714Y-48295295D01*
X51285714Y-48295295D02*
X51285714Y-48390533D01*
X51285714Y-48390533D02*
X51238095Y-48533390D01*
X51238095Y-48533390D02*
X50666667Y-49104819D01*
X50666667Y-49104819D02*
X51285714Y-49104819D01*
X33954819Y-25238094D02*
X32954819Y-25238094D01*
X32954819Y-25238094D02*
X32954819Y-24999999D01*
X32954819Y-24999999D02*
X33002438Y-24857142D01*
X33002438Y-24857142D02*
X33097676Y-24761904D01*
X33097676Y-24761904D02*
X33192914Y-24714285D01*
X33192914Y-24714285D02*
X33383390Y-24666666D01*
X33383390Y-24666666D02*
X33526247Y-24666666D01*
X33526247Y-24666666D02*
X33716723Y-24714285D01*
X33716723Y-24714285D02*
X33811961Y-24761904D01*
X33811961Y-24761904D02*
X33907200Y-24857142D01*
X33907200Y-24857142D02*
X33954819Y-24999999D01*
X33954819Y-24999999D02*
X33954819Y-25238094D01*
X33954819Y-23714285D02*
X33954819Y-24285713D01*
X33954819Y-23999999D02*
X32954819Y-23999999D01*
X32954819Y-23999999D02*
X33097676Y-24095237D01*
X33097676Y-24095237D02*
X33192914Y-24190475D01*
X33192914Y-24190475D02*
X33240533Y-24285713D01*
X44357142Y-31179580D02*
X44309523Y-31227200D01*
X44309523Y-31227200D02*
X44166666Y-31274819D01*
X44166666Y-31274819D02*
X44071428Y-31274819D01*
X44071428Y-31274819D02*
X43928571Y-31227200D01*
X43928571Y-31227200D02*
X43833333Y-31131961D01*
X43833333Y-31131961D02*
X43785714Y-31036723D01*
X43785714Y-31036723D02*
X43738095Y-30846247D01*
X43738095Y-30846247D02*
X43738095Y-30703390D01*
X43738095Y-30703390D02*
X43785714Y-30512914D01*
X43785714Y-30512914D02*
X43833333Y-30417676D01*
X43833333Y-30417676D02*
X43928571Y-30322438D01*
X43928571Y-30322438D02*
X44071428Y-30274819D01*
X44071428Y-30274819D02*
X44166666Y-30274819D01*
X44166666Y-30274819D02*
X44309523Y-30322438D01*
X44309523Y-30322438D02*
X44357142Y-30370057D01*
X44690476Y-30274819D02*
X45309523Y-30274819D01*
X45309523Y-30274819D02*
X44976190Y-30655771D01*
X44976190Y-30655771D02*
X45119047Y-30655771D01*
X45119047Y-30655771D02*
X45214285Y-30703390D01*
X45214285Y-30703390D02*
X45261904Y-30751009D01*
X45261904Y-30751009D02*
X45309523Y-30846247D01*
X45309523Y-30846247D02*
X45309523Y-31084342D01*
X45309523Y-31084342D02*
X45261904Y-31179580D01*
X45261904Y-31179580D02*
X45214285Y-31227200D01*
X45214285Y-31227200D02*
X45119047Y-31274819D01*
X45119047Y-31274819D02*
X44833333Y-31274819D01*
X44833333Y-31274819D02*
X44738095Y-31227200D01*
X44738095Y-31227200D02*
X44690476Y-31179580D01*
X45690476Y-30370057D02*
X45738095Y-30322438D01*
X45738095Y-30322438D02*
X45833333Y-30274819D01*
X45833333Y-30274819D02*
X46071428Y-30274819D01*
X46071428Y-30274819D02*
X46166666Y-30322438D01*
X46166666Y-30322438D02*
X46214285Y-30370057D01*
X46214285Y-30370057D02*
X46261904Y-30465295D01*
X46261904Y-30465295D02*
X46261904Y-30560533D01*
X46261904Y-30560533D02*
X46214285Y-30703390D01*
X46214285Y-30703390D02*
X45642857Y-31274819D01*
X45642857Y-31274819D02*
X46261904Y-31274819D01*
X34679580Y-35642857D02*
X34727200Y-35690476D01*
X34727200Y-35690476D02*
X34774819Y-35833333D01*
X34774819Y-35833333D02*
X34774819Y-35928571D01*
X34774819Y-35928571D02*
X34727200Y-36071428D01*
X34727200Y-36071428D02*
X34631961Y-36166666D01*
X34631961Y-36166666D02*
X34536723Y-36214285D01*
X34536723Y-36214285D02*
X34346247Y-36261904D01*
X34346247Y-36261904D02*
X34203390Y-36261904D01*
X34203390Y-36261904D02*
X34012914Y-36214285D01*
X34012914Y-36214285D02*
X33917676Y-36166666D01*
X33917676Y-36166666D02*
X33822438Y-36071428D01*
X33822438Y-36071428D02*
X33774819Y-35928571D01*
X33774819Y-35928571D02*
X33774819Y-35833333D01*
X33774819Y-35833333D02*
X33822438Y-35690476D01*
X33822438Y-35690476D02*
X33870057Y-35642857D01*
X33774819Y-35309523D02*
X33774819Y-34690476D01*
X33774819Y-34690476D02*
X34155771Y-35023809D01*
X34155771Y-35023809D02*
X34155771Y-34880952D01*
X34155771Y-34880952D02*
X34203390Y-34785714D01*
X34203390Y-34785714D02*
X34251009Y-34738095D01*
X34251009Y-34738095D02*
X34346247Y-34690476D01*
X34346247Y-34690476D02*
X34584342Y-34690476D01*
X34584342Y-34690476D02*
X34679580Y-34738095D01*
X34679580Y-34738095D02*
X34727200Y-34785714D01*
X34727200Y-34785714D02*
X34774819Y-34880952D01*
X34774819Y-34880952D02*
X34774819Y-35166666D01*
X34774819Y-35166666D02*
X34727200Y-35261904D01*
X34727200Y-35261904D02*
X34679580Y-35309523D01*
X34774819Y-33738095D02*
X34774819Y-34309523D01*
X34774819Y-34023809D02*
X33774819Y-34023809D01*
X33774819Y-34023809D02*
X33917676Y-34119047D01*
X33917676Y-34119047D02*
X34012914Y-34214285D01*
X34012914Y-34214285D02*
X34060533Y-34309523D01*
X49857142Y-30179580D02*
X49809523Y-30227200D01*
X49809523Y-30227200D02*
X49666666Y-30274819D01*
X49666666Y-30274819D02*
X49571428Y-30274819D01*
X49571428Y-30274819D02*
X49428571Y-30227200D01*
X49428571Y-30227200D02*
X49333333Y-30131961D01*
X49333333Y-30131961D02*
X49285714Y-30036723D01*
X49285714Y-30036723D02*
X49238095Y-29846247D01*
X49238095Y-29846247D02*
X49238095Y-29703390D01*
X49238095Y-29703390D02*
X49285714Y-29512914D01*
X49285714Y-29512914D02*
X49333333Y-29417676D01*
X49333333Y-29417676D02*
X49428571Y-29322438D01*
X49428571Y-29322438D02*
X49571428Y-29274819D01*
X49571428Y-29274819D02*
X49666666Y-29274819D01*
X49666666Y-29274819D02*
X49809523Y-29322438D01*
X49809523Y-29322438D02*
X49857142Y-29370057D01*
X50190476Y-29274819D02*
X50809523Y-29274819D01*
X50809523Y-29274819D02*
X50476190Y-29655771D01*
X50476190Y-29655771D02*
X50619047Y-29655771D01*
X50619047Y-29655771D02*
X50714285Y-29703390D01*
X50714285Y-29703390D02*
X50761904Y-29751009D01*
X50761904Y-29751009D02*
X50809523Y-29846247D01*
X50809523Y-29846247D02*
X50809523Y-30084342D01*
X50809523Y-30084342D02*
X50761904Y-30179580D01*
X50761904Y-30179580D02*
X50714285Y-30227200D01*
X50714285Y-30227200D02*
X50619047Y-30274819D01*
X50619047Y-30274819D02*
X50333333Y-30274819D01*
X50333333Y-30274819D02*
X50238095Y-30227200D01*
X50238095Y-30227200D02*
X50190476Y-30179580D01*
X51428571Y-29274819D02*
X51523809Y-29274819D01*
X51523809Y-29274819D02*
X51619047Y-29322438D01*
X51619047Y-29322438D02*
X51666666Y-29370057D01*
X51666666Y-29370057D02*
X51714285Y-29465295D01*
X51714285Y-29465295D02*
X51761904Y-29655771D01*
X51761904Y-29655771D02*
X51761904Y-29893866D01*
X51761904Y-29893866D02*
X51714285Y-30084342D01*
X51714285Y-30084342D02*
X51666666Y-30179580D01*
X51666666Y-30179580D02*
X51619047Y-30227200D01*
X51619047Y-30227200D02*
X51523809Y-30274819D01*
X51523809Y-30274819D02*
X51428571Y-30274819D01*
X51428571Y-30274819D02*
X51333333Y-30227200D01*
X51333333Y-30227200D02*
X51285714Y-30179580D01*
X51285714Y-30179580D02*
X51238095Y-30084342D01*
X51238095Y-30084342D02*
X51190476Y-29893866D01*
X51190476Y-29893866D02*
X51190476Y-29655771D01*
X51190476Y-29655771D02*
X51238095Y-29465295D01*
X51238095Y-29465295D02*
X51285714Y-29370057D01*
X51285714Y-29370057D02*
X51333333Y-29322438D01*
X51333333Y-29322438D02*
X51428571Y-29274819D01*
X45857142Y-49179580D02*
X45809523Y-49227200D01*
X45809523Y-49227200D02*
X45666666Y-49274819D01*
X45666666Y-49274819D02*
X45571428Y-49274819D01*
X45571428Y-49274819D02*
X45428571Y-49227200D01*
X45428571Y-49227200D02*
X45333333Y-49131961D01*
X45333333Y-49131961D02*
X45285714Y-49036723D01*
X45285714Y-49036723D02*
X45238095Y-48846247D01*
X45238095Y-48846247D02*
X45238095Y-48703390D01*
X45238095Y-48703390D02*
X45285714Y-48512914D01*
X45285714Y-48512914D02*
X45333333Y-48417676D01*
X45333333Y-48417676D02*
X45428571Y-48322438D01*
X45428571Y-48322438D02*
X45571428Y-48274819D01*
X45571428Y-48274819D02*
X45666666Y-48274819D01*
X45666666Y-48274819D02*
X45809523Y-48322438D01*
X45809523Y-48322438D02*
X45857142Y-48370057D01*
X46238095Y-48370057D02*
X46285714Y-48322438D01*
X46285714Y-48322438D02*
X46380952Y-48274819D01*
X46380952Y-48274819D02*
X46619047Y-48274819D01*
X46619047Y-48274819D02*
X46714285Y-48322438D01*
X46714285Y-48322438D02*
X46761904Y-48370057D01*
X46761904Y-48370057D02*
X46809523Y-48465295D01*
X46809523Y-48465295D02*
X46809523Y-48560533D01*
X46809523Y-48560533D02*
X46761904Y-48703390D01*
X46761904Y-48703390D02*
X46190476Y-49274819D01*
X46190476Y-49274819D02*
X46809523Y-49274819D01*
X47285714Y-49274819D02*
X47476190Y-49274819D01*
X47476190Y-49274819D02*
X47571428Y-49227200D01*
X47571428Y-49227200D02*
X47619047Y-49179580D01*
X47619047Y-49179580D02*
X47714285Y-49036723D01*
X47714285Y-49036723D02*
X47761904Y-48846247D01*
X47761904Y-48846247D02*
X47761904Y-48465295D01*
X47761904Y-48465295D02*
X47714285Y-48370057D01*
X47714285Y-48370057D02*
X47666666Y-48322438D01*
X47666666Y-48322438D02*
X47571428Y-48274819D01*
X47571428Y-48274819D02*
X47380952Y-48274819D01*
X47380952Y-48274819D02*
X47285714Y-48322438D01*
X47285714Y-48322438D02*
X47238095Y-48370057D01*
X47238095Y-48370057D02*
X47190476Y-48465295D01*
X47190476Y-48465295D02*
X47190476Y-48703390D01*
X47190476Y-48703390D02*
X47238095Y-48798628D01*
X47238095Y-48798628D02*
X47285714Y-48846247D01*
X47285714Y-48846247D02*
X47380952Y-48893866D01*
X47380952Y-48893866D02*
X47571428Y-48893866D01*
X47571428Y-48893866D02*
X47666666Y-48846247D01*
X47666666Y-48846247D02*
X47714285Y-48798628D01*
X47714285Y-48798628D02*
X47761904Y-48703390D01*
X29357142Y-42679580D02*
X29309523Y-42727200D01*
X29309523Y-42727200D02*
X29166666Y-42774819D01*
X29166666Y-42774819D02*
X29071428Y-42774819D01*
X29071428Y-42774819D02*
X28928571Y-42727200D01*
X28928571Y-42727200D02*
X28833333Y-42631961D01*
X28833333Y-42631961D02*
X28785714Y-42536723D01*
X28785714Y-42536723D02*
X28738095Y-42346247D01*
X28738095Y-42346247D02*
X28738095Y-42203390D01*
X28738095Y-42203390D02*
X28785714Y-42012914D01*
X28785714Y-42012914D02*
X28833333Y-41917676D01*
X28833333Y-41917676D02*
X28928571Y-41822438D01*
X28928571Y-41822438D02*
X29071428Y-41774819D01*
X29071428Y-41774819D02*
X29166666Y-41774819D01*
X29166666Y-41774819D02*
X29309523Y-41822438D01*
X29309523Y-41822438D02*
X29357142Y-41870057D01*
X29738095Y-41870057D02*
X29785714Y-41822438D01*
X29785714Y-41822438D02*
X29880952Y-41774819D01*
X29880952Y-41774819D02*
X30119047Y-41774819D01*
X30119047Y-41774819D02*
X30214285Y-41822438D01*
X30214285Y-41822438D02*
X30261904Y-41870057D01*
X30261904Y-41870057D02*
X30309523Y-41965295D01*
X30309523Y-41965295D02*
X30309523Y-42060533D01*
X30309523Y-42060533D02*
X30261904Y-42203390D01*
X30261904Y-42203390D02*
X29690476Y-42774819D01*
X29690476Y-42774819D02*
X30309523Y-42774819D01*
X30880952Y-42203390D02*
X30785714Y-42155771D01*
X30785714Y-42155771D02*
X30738095Y-42108152D01*
X30738095Y-42108152D02*
X30690476Y-42012914D01*
X30690476Y-42012914D02*
X30690476Y-41965295D01*
X30690476Y-41965295D02*
X30738095Y-41870057D01*
X30738095Y-41870057D02*
X30785714Y-41822438D01*
X30785714Y-41822438D02*
X30880952Y-41774819D01*
X30880952Y-41774819D02*
X31071428Y-41774819D01*
X31071428Y-41774819D02*
X31166666Y-41822438D01*
X31166666Y-41822438D02*
X31214285Y-41870057D01*
X31214285Y-41870057D02*
X31261904Y-41965295D01*
X31261904Y-41965295D02*
X31261904Y-42012914D01*
X31261904Y-42012914D02*
X31214285Y-42108152D01*
X31214285Y-42108152D02*
X31166666Y-42155771D01*
X31166666Y-42155771D02*
X31071428Y-42203390D01*
X31071428Y-42203390D02*
X30880952Y-42203390D01*
X30880952Y-42203390D02*
X30785714Y-42251009D01*
X30785714Y-42251009D02*
X30738095Y-42298628D01*
X30738095Y-42298628D02*
X30690476Y-42393866D01*
X30690476Y-42393866D02*
X30690476Y-42584342D01*
X30690476Y-42584342D02*
X30738095Y-42679580D01*
X30738095Y-42679580D02*
X30785714Y-42727200D01*
X30785714Y-42727200D02*
X30880952Y-42774819D01*
X30880952Y-42774819D02*
X31071428Y-42774819D01*
X31071428Y-42774819D02*
X31166666Y-42727200D01*
X31166666Y-42727200D02*
X31214285Y-42679580D01*
X31214285Y-42679580D02*
X31261904Y-42584342D01*
X31261904Y-42584342D02*
X31261904Y-42393866D01*
X31261904Y-42393866D02*
X31214285Y-42298628D01*
X31214285Y-42298628D02*
X31166666Y-42251009D01*
X31166666Y-42251009D02*
X31071428Y-42203390D01*
X41357142Y-36679580D02*
X41309523Y-36727200D01*
X41309523Y-36727200D02*
X41166666Y-36774819D01*
X41166666Y-36774819D02*
X41071428Y-36774819D01*
X41071428Y-36774819D02*
X40928571Y-36727200D01*
X40928571Y-36727200D02*
X40833333Y-36631961D01*
X40833333Y-36631961D02*
X40785714Y-36536723D01*
X40785714Y-36536723D02*
X40738095Y-36346247D01*
X40738095Y-36346247D02*
X40738095Y-36203390D01*
X40738095Y-36203390D02*
X40785714Y-36012914D01*
X40785714Y-36012914D02*
X40833333Y-35917676D01*
X40833333Y-35917676D02*
X40928571Y-35822438D01*
X40928571Y-35822438D02*
X41071428Y-35774819D01*
X41071428Y-35774819D02*
X41166666Y-35774819D01*
X41166666Y-35774819D02*
X41309523Y-35822438D01*
X41309523Y-35822438D02*
X41357142Y-35870057D01*
X41738095Y-35870057D02*
X41785714Y-35822438D01*
X41785714Y-35822438D02*
X41880952Y-35774819D01*
X41880952Y-35774819D02*
X42119047Y-35774819D01*
X42119047Y-35774819D02*
X42214285Y-35822438D01*
X42214285Y-35822438D02*
X42261904Y-35870057D01*
X42261904Y-35870057D02*
X42309523Y-35965295D01*
X42309523Y-35965295D02*
X42309523Y-36060533D01*
X42309523Y-36060533D02*
X42261904Y-36203390D01*
X42261904Y-36203390D02*
X41690476Y-36774819D01*
X41690476Y-36774819D02*
X42309523Y-36774819D01*
X42642857Y-35774819D02*
X43309523Y-35774819D01*
X43309523Y-35774819D02*
X42880952Y-36774819D01*
X29307142Y-40179580D02*
X29259523Y-40227200D01*
X29259523Y-40227200D02*
X29116666Y-40274819D01*
X29116666Y-40274819D02*
X29021428Y-40274819D01*
X29021428Y-40274819D02*
X28878571Y-40227200D01*
X28878571Y-40227200D02*
X28783333Y-40131961D01*
X28783333Y-40131961D02*
X28735714Y-40036723D01*
X28735714Y-40036723D02*
X28688095Y-39846247D01*
X28688095Y-39846247D02*
X28688095Y-39703390D01*
X28688095Y-39703390D02*
X28735714Y-39512914D01*
X28735714Y-39512914D02*
X28783333Y-39417676D01*
X28783333Y-39417676D02*
X28878571Y-39322438D01*
X28878571Y-39322438D02*
X29021428Y-39274819D01*
X29021428Y-39274819D02*
X29116666Y-39274819D01*
X29116666Y-39274819D02*
X29259523Y-39322438D01*
X29259523Y-39322438D02*
X29307142Y-39370057D01*
X29688095Y-39370057D02*
X29735714Y-39322438D01*
X29735714Y-39322438D02*
X29830952Y-39274819D01*
X29830952Y-39274819D02*
X30069047Y-39274819D01*
X30069047Y-39274819D02*
X30164285Y-39322438D01*
X30164285Y-39322438D02*
X30211904Y-39370057D01*
X30211904Y-39370057D02*
X30259523Y-39465295D01*
X30259523Y-39465295D02*
X30259523Y-39560533D01*
X30259523Y-39560533D02*
X30211904Y-39703390D01*
X30211904Y-39703390D02*
X29640476Y-40274819D01*
X29640476Y-40274819D02*
X30259523Y-40274819D01*
X31116666Y-39274819D02*
X30926190Y-39274819D01*
X30926190Y-39274819D02*
X30830952Y-39322438D01*
X30830952Y-39322438D02*
X30783333Y-39370057D01*
X30783333Y-39370057D02*
X30688095Y-39512914D01*
X30688095Y-39512914D02*
X30640476Y-39703390D01*
X30640476Y-39703390D02*
X30640476Y-40084342D01*
X30640476Y-40084342D02*
X30688095Y-40179580D01*
X30688095Y-40179580D02*
X30735714Y-40227200D01*
X30735714Y-40227200D02*
X30830952Y-40274819D01*
X30830952Y-40274819D02*
X31021428Y-40274819D01*
X31021428Y-40274819D02*
X31116666Y-40227200D01*
X31116666Y-40227200D02*
X31164285Y-40179580D01*
X31164285Y-40179580D02*
X31211904Y-40084342D01*
X31211904Y-40084342D02*
X31211904Y-39846247D01*
X31211904Y-39846247D02*
X31164285Y-39751009D01*
X31164285Y-39751009D02*
X31116666Y-39703390D01*
X31116666Y-39703390D02*
X31021428Y-39655771D01*
X31021428Y-39655771D02*
X30830952Y-39655771D01*
X30830952Y-39655771D02*
X30735714Y-39703390D01*
X30735714Y-39703390D02*
X30688095Y-39751009D01*
X30688095Y-39751009D02*
X30640476Y-39846247D01*
X44039580Y-52142857D02*
X44087200Y-52190476D01*
X44087200Y-52190476D02*
X44134819Y-52333333D01*
X44134819Y-52333333D02*
X44134819Y-52428571D01*
X44134819Y-52428571D02*
X44087200Y-52571428D01*
X44087200Y-52571428D02*
X43991961Y-52666666D01*
X43991961Y-52666666D02*
X43896723Y-52714285D01*
X43896723Y-52714285D02*
X43706247Y-52761904D01*
X43706247Y-52761904D02*
X43563390Y-52761904D01*
X43563390Y-52761904D02*
X43372914Y-52714285D01*
X43372914Y-52714285D02*
X43277676Y-52666666D01*
X43277676Y-52666666D02*
X43182438Y-52571428D01*
X43182438Y-52571428D02*
X43134819Y-52428571D01*
X43134819Y-52428571D02*
X43134819Y-52333333D01*
X43134819Y-52333333D02*
X43182438Y-52190476D01*
X43182438Y-52190476D02*
X43230057Y-52142857D01*
X43230057Y-51761904D02*
X43182438Y-51714285D01*
X43182438Y-51714285D02*
X43134819Y-51619047D01*
X43134819Y-51619047D02*
X43134819Y-51380952D01*
X43134819Y-51380952D02*
X43182438Y-51285714D01*
X43182438Y-51285714D02*
X43230057Y-51238095D01*
X43230057Y-51238095D02*
X43325295Y-51190476D01*
X43325295Y-51190476D02*
X43420533Y-51190476D01*
X43420533Y-51190476D02*
X43563390Y-51238095D01*
X43563390Y-51238095D02*
X44134819Y-51809523D01*
X44134819Y-51809523D02*
X44134819Y-51190476D01*
X43134819Y-50285714D02*
X43134819Y-50761904D01*
X43134819Y-50761904D02*
X43611009Y-50809523D01*
X43611009Y-50809523D02*
X43563390Y-50761904D01*
X43563390Y-50761904D02*
X43515771Y-50666666D01*
X43515771Y-50666666D02*
X43515771Y-50428571D01*
X43515771Y-50428571D02*
X43563390Y-50333333D01*
X43563390Y-50333333D02*
X43611009Y-50285714D01*
X43611009Y-50285714D02*
X43706247Y-50238095D01*
X43706247Y-50238095D02*
X43944342Y-50238095D01*
X43944342Y-50238095D02*
X44039580Y-50285714D01*
X44039580Y-50285714D02*
X44087200Y-50333333D01*
X44087200Y-50333333D02*
X44134819Y-50428571D01*
X44134819Y-50428571D02*
X44134819Y-50666666D01*
X44134819Y-50666666D02*
X44087200Y-50761904D01*
X44087200Y-50761904D02*
X44039580Y-50809523D01*
X58539580Y-40692857D02*
X58587200Y-40740476D01*
X58587200Y-40740476D02*
X58634819Y-40883333D01*
X58634819Y-40883333D02*
X58634819Y-40978571D01*
X58634819Y-40978571D02*
X58587200Y-41121428D01*
X58587200Y-41121428D02*
X58491961Y-41216666D01*
X58491961Y-41216666D02*
X58396723Y-41264285D01*
X58396723Y-41264285D02*
X58206247Y-41311904D01*
X58206247Y-41311904D02*
X58063390Y-41311904D01*
X58063390Y-41311904D02*
X57872914Y-41264285D01*
X57872914Y-41264285D02*
X57777676Y-41216666D01*
X57777676Y-41216666D02*
X57682438Y-41121428D01*
X57682438Y-41121428D02*
X57634819Y-40978571D01*
X57634819Y-40978571D02*
X57634819Y-40883333D01*
X57634819Y-40883333D02*
X57682438Y-40740476D01*
X57682438Y-40740476D02*
X57730057Y-40692857D01*
X57730057Y-40311904D02*
X57682438Y-40264285D01*
X57682438Y-40264285D02*
X57634819Y-40169047D01*
X57634819Y-40169047D02*
X57634819Y-39930952D01*
X57634819Y-39930952D02*
X57682438Y-39835714D01*
X57682438Y-39835714D02*
X57730057Y-39788095D01*
X57730057Y-39788095D02*
X57825295Y-39740476D01*
X57825295Y-39740476D02*
X57920533Y-39740476D01*
X57920533Y-39740476D02*
X58063390Y-39788095D01*
X58063390Y-39788095D02*
X58634819Y-40359523D01*
X58634819Y-40359523D02*
X58634819Y-39740476D01*
X57634819Y-39407142D02*
X57634819Y-38788095D01*
X57634819Y-38788095D02*
X58015771Y-39121428D01*
X58015771Y-39121428D02*
X58015771Y-38978571D01*
X58015771Y-38978571D02*
X58063390Y-38883333D01*
X58063390Y-38883333D02*
X58111009Y-38835714D01*
X58111009Y-38835714D02*
X58206247Y-38788095D01*
X58206247Y-38788095D02*
X58444342Y-38788095D01*
X58444342Y-38788095D02*
X58539580Y-38835714D01*
X58539580Y-38835714D02*
X58587200Y-38883333D01*
X58587200Y-38883333D02*
X58634819Y-38978571D01*
X58634819Y-38978571D02*
X58634819Y-39264285D01*
X58634819Y-39264285D02*
X58587200Y-39359523D01*
X58587200Y-39359523D02*
X58539580Y-39407142D01*
X27689580Y-32142857D02*
X27737200Y-32190476D01*
X27737200Y-32190476D02*
X27784819Y-32333333D01*
X27784819Y-32333333D02*
X27784819Y-32428571D01*
X27784819Y-32428571D02*
X27737200Y-32571428D01*
X27737200Y-32571428D02*
X27641961Y-32666666D01*
X27641961Y-32666666D02*
X27546723Y-32714285D01*
X27546723Y-32714285D02*
X27356247Y-32761904D01*
X27356247Y-32761904D02*
X27213390Y-32761904D01*
X27213390Y-32761904D02*
X27022914Y-32714285D01*
X27022914Y-32714285D02*
X26927676Y-32666666D01*
X26927676Y-32666666D02*
X26832438Y-32571428D01*
X26832438Y-32571428D02*
X26784819Y-32428571D01*
X26784819Y-32428571D02*
X26784819Y-32333333D01*
X26784819Y-32333333D02*
X26832438Y-32190476D01*
X26832438Y-32190476D02*
X26880057Y-32142857D01*
X26880057Y-31761904D02*
X26832438Y-31714285D01*
X26832438Y-31714285D02*
X26784819Y-31619047D01*
X26784819Y-31619047D02*
X26784819Y-31380952D01*
X26784819Y-31380952D02*
X26832438Y-31285714D01*
X26832438Y-31285714D02*
X26880057Y-31238095D01*
X26880057Y-31238095D02*
X26975295Y-31190476D01*
X26975295Y-31190476D02*
X27070533Y-31190476D01*
X27070533Y-31190476D02*
X27213390Y-31238095D01*
X27213390Y-31238095D02*
X27784819Y-31809523D01*
X27784819Y-31809523D02*
X27784819Y-31190476D01*
X26880057Y-30809523D02*
X26832438Y-30761904D01*
X26832438Y-30761904D02*
X26784819Y-30666666D01*
X26784819Y-30666666D02*
X26784819Y-30428571D01*
X26784819Y-30428571D02*
X26832438Y-30333333D01*
X26832438Y-30333333D02*
X26880057Y-30285714D01*
X26880057Y-30285714D02*
X26975295Y-30238095D01*
X26975295Y-30238095D02*
X27070533Y-30238095D01*
X27070533Y-30238095D02*
X27213390Y-30285714D01*
X27213390Y-30285714D02*
X27784819Y-30857142D01*
X27784819Y-30857142D02*
X27784819Y-30238095D01*
X24679580Y-32142857D02*
X24727200Y-32190476D01*
X24727200Y-32190476D02*
X24774819Y-32333333D01*
X24774819Y-32333333D02*
X24774819Y-32428571D01*
X24774819Y-32428571D02*
X24727200Y-32571428D01*
X24727200Y-32571428D02*
X24631961Y-32666666D01*
X24631961Y-32666666D02*
X24536723Y-32714285D01*
X24536723Y-32714285D02*
X24346247Y-32761904D01*
X24346247Y-32761904D02*
X24203390Y-32761904D01*
X24203390Y-32761904D02*
X24012914Y-32714285D01*
X24012914Y-32714285D02*
X23917676Y-32666666D01*
X23917676Y-32666666D02*
X23822438Y-32571428D01*
X23822438Y-32571428D02*
X23774819Y-32428571D01*
X23774819Y-32428571D02*
X23774819Y-32333333D01*
X23774819Y-32333333D02*
X23822438Y-32190476D01*
X23822438Y-32190476D02*
X23870057Y-32142857D01*
X23870057Y-31761904D02*
X23822438Y-31714285D01*
X23822438Y-31714285D02*
X23774819Y-31619047D01*
X23774819Y-31619047D02*
X23774819Y-31380952D01*
X23774819Y-31380952D02*
X23822438Y-31285714D01*
X23822438Y-31285714D02*
X23870057Y-31238095D01*
X23870057Y-31238095D02*
X23965295Y-31190476D01*
X23965295Y-31190476D02*
X24060533Y-31190476D01*
X24060533Y-31190476D02*
X24203390Y-31238095D01*
X24203390Y-31238095D02*
X24774819Y-31809523D01*
X24774819Y-31809523D02*
X24774819Y-31190476D01*
X24774819Y-30238095D02*
X24774819Y-30809523D01*
X24774819Y-30523809D02*
X23774819Y-30523809D01*
X23774819Y-30523809D02*
X23917676Y-30619047D01*
X23917676Y-30619047D02*
X24012914Y-30714285D01*
X24012914Y-30714285D02*
X24060533Y-30809523D01*
X34539580Y-32642857D02*
X34587200Y-32690476D01*
X34587200Y-32690476D02*
X34634819Y-32833333D01*
X34634819Y-32833333D02*
X34634819Y-32928571D01*
X34634819Y-32928571D02*
X34587200Y-33071428D01*
X34587200Y-33071428D02*
X34491961Y-33166666D01*
X34491961Y-33166666D02*
X34396723Y-33214285D01*
X34396723Y-33214285D02*
X34206247Y-33261904D01*
X34206247Y-33261904D02*
X34063390Y-33261904D01*
X34063390Y-33261904D02*
X33872914Y-33214285D01*
X33872914Y-33214285D02*
X33777676Y-33166666D01*
X33777676Y-33166666D02*
X33682438Y-33071428D01*
X33682438Y-33071428D02*
X33634819Y-32928571D01*
X33634819Y-32928571D02*
X33634819Y-32833333D01*
X33634819Y-32833333D02*
X33682438Y-32690476D01*
X33682438Y-32690476D02*
X33730057Y-32642857D01*
X33730057Y-32261904D02*
X33682438Y-32214285D01*
X33682438Y-32214285D02*
X33634819Y-32119047D01*
X33634819Y-32119047D02*
X33634819Y-31880952D01*
X33634819Y-31880952D02*
X33682438Y-31785714D01*
X33682438Y-31785714D02*
X33730057Y-31738095D01*
X33730057Y-31738095D02*
X33825295Y-31690476D01*
X33825295Y-31690476D02*
X33920533Y-31690476D01*
X33920533Y-31690476D02*
X34063390Y-31738095D01*
X34063390Y-31738095D02*
X34634819Y-32309523D01*
X34634819Y-32309523D02*
X34634819Y-31690476D01*
X33634819Y-31071428D02*
X33634819Y-30976190D01*
X33634819Y-30976190D02*
X33682438Y-30880952D01*
X33682438Y-30880952D02*
X33730057Y-30833333D01*
X33730057Y-30833333D02*
X33825295Y-30785714D01*
X33825295Y-30785714D02*
X34015771Y-30738095D01*
X34015771Y-30738095D02*
X34253866Y-30738095D01*
X34253866Y-30738095D02*
X34444342Y-30785714D01*
X34444342Y-30785714D02*
X34539580Y-30833333D01*
X34539580Y-30833333D02*
X34587200Y-30880952D01*
X34587200Y-30880952D02*
X34634819Y-30976190D01*
X34634819Y-30976190D02*
X34634819Y-31071428D01*
X34634819Y-31071428D02*
X34587200Y-31166666D01*
X34587200Y-31166666D02*
X34539580Y-31214285D01*
X34539580Y-31214285D02*
X34444342Y-31261904D01*
X34444342Y-31261904D02*
X34253866Y-31309523D01*
X34253866Y-31309523D02*
X34015771Y-31309523D01*
X34015771Y-31309523D02*
X33825295Y-31261904D01*
X33825295Y-31261904D02*
X33730057Y-31214285D01*
X33730057Y-31214285D02*
X33682438Y-31166666D01*
X33682438Y-31166666D02*
X33634819Y-31071428D01*
X41039580Y-28142857D02*
X41087200Y-28190476D01*
X41087200Y-28190476D02*
X41134819Y-28333333D01*
X41134819Y-28333333D02*
X41134819Y-28428571D01*
X41134819Y-28428571D02*
X41087200Y-28571428D01*
X41087200Y-28571428D02*
X40991961Y-28666666D01*
X40991961Y-28666666D02*
X40896723Y-28714285D01*
X40896723Y-28714285D02*
X40706247Y-28761904D01*
X40706247Y-28761904D02*
X40563390Y-28761904D01*
X40563390Y-28761904D02*
X40372914Y-28714285D01*
X40372914Y-28714285D02*
X40277676Y-28666666D01*
X40277676Y-28666666D02*
X40182438Y-28571428D01*
X40182438Y-28571428D02*
X40134819Y-28428571D01*
X40134819Y-28428571D02*
X40134819Y-28333333D01*
X40134819Y-28333333D02*
X40182438Y-28190476D01*
X40182438Y-28190476D02*
X40230057Y-28142857D01*
X41134819Y-27190476D02*
X41134819Y-27761904D01*
X41134819Y-27476190D02*
X40134819Y-27476190D01*
X40134819Y-27476190D02*
X40277676Y-27571428D01*
X40277676Y-27571428D02*
X40372914Y-27666666D01*
X40372914Y-27666666D02*
X40420533Y-27761904D01*
X41134819Y-26714285D02*
X41134819Y-26523809D01*
X41134819Y-26523809D02*
X41087200Y-26428571D01*
X41087200Y-26428571D02*
X41039580Y-26380952D01*
X41039580Y-26380952D02*
X40896723Y-26285714D01*
X40896723Y-26285714D02*
X40706247Y-26238095D01*
X40706247Y-26238095D02*
X40325295Y-26238095D01*
X40325295Y-26238095D02*
X40230057Y-26285714D01*
X40230057Y-26285714D02*
X40182438Y-26333333D01*
X40182438Y-26333333D02*
X40134819Y-26428571D01*
X40134819Y-26428571D02*
X40134819Y-26619047D01*
X40134819Y-26619047D02*
X40182438Y-26714285D01*
X40182438Y-26714285D02*
X40230057Y-26761904D01*
X40230057Y-26761904D02*
X40325295Y-26809523D01*
X40325295Y-26809523D02*
X40563390Y-26809523D01*
X40563390Y-26809523D02*
X40658628Y-26761904D01*
X40658628Y-26761904D02*
X40706247Y-26714285D01*
X40706247Y-26714285D02*
X40753866Y-26619047D01*
X40753866Y-26619047D02*
X40753866Y-26428571D01*
X40753866Y-26428571D02*
X40706247Y-26333333D01*
X40706247Y-26333333D02*
X40658628Y-26285714D01*
X40658628Y-26285714D02*
X40563390Y-26238095D01*
X29773333Y-61382080D02*
X29725714Y-61429700D01*
X29725714Y-61429700D02*
X29582857Y-61477319D01*
X29582857Y-61477319D02*
X29487619Y-61477319D01*
X29487619Y-61477319D02*
X29344762Y-61429700D01*
X29344762Y-61429700D02*
X29249524Y-61334461D01*
X29249524Y-61334461D02*
X29201905Y-61239223D01*
X29201905Y-61239223D02*
X29154286Y-61048747D01*
X29154286Y-61048747D02*
X29154286Y-60905890D01*
X29154286Y-60905890D02*
X29201905Y-60715414D01*
X29201905Y-60715414D02*
X29249524Y-60620176D01*
X29249524Y-60620176D02*
X29344762Y-60524938D01*
X29344762Y-60524938D02*
X29487619Y-60477319D01*
X29487619Y-60477319D02*
X29582857Y-60477319D01*
X29582857Y-60477319D02*
X29725714Y-60524938D01*
X29725714Y-60524938D02*
X29773333Y-60572557D01*
X30678095Y-60477319D02*
X30201905Y-60477319D01*
X30201905Y-60477319D02*
X30154286Y-60953509D01*
X30154286Y-60953509D02*
X30201905Y-60905890D01*
X30201905Y-60905890D02*
X30297143Y-60858271D01*
X30297143Y-60858271D02*
X30535238Y-60858271D01*
X30535238Y-60858271D02*
X30630476Y-60905890D01*
X30630476Y-60905890D02*
X30678095Y-60953509D01*
X30678095Y-60953509D02*
X30725714Y-61048747D01*
X30725714Y-61048747D02*
X30725714Y-61286842D01*
X30725714Y-61286842D02*
X30678095Y-61382080D01*
X30678095Y-61382080D02*
X30630476Y-61429700D01*
X30630476Y-61429700D02*
X30535238Y-61477319D01*
X30535238Y-61477319D02*
X30297143Y-61477319D01*
X30297143Y-61477319D02*
X30201905Y-61429700D01*
X30201905Y-61429700D02*
X30154286Y-61382080D01*
X63539580Y-26692857D02*
X63587200Y-26740476D01*
X63587200Y-26740476D02*
X63634819Y-26883333D01*
X63634819Y-26883333D02*
X63634819Y-26978571D01*
X63634819Y-26978571D02*
X63587200Y-27121428D01*
X63587200Y-27121428D02*
X63491961Y-27216666D01*
X63491961Y-27216666D02*
X63396723Y-27264285D01*
X63396723Y-27264285D02*
X63206247Y-27311904D01*
X63206247Y-27311904D02*
X63063390Y-27311904D01*
X63063390Y-27311904D02*
X62872914Y-27264285D01*
X62872914Y-27264285D02*
X62777676Y-27216666D01*
X62777676Y-27216666D02*
X62682438Y-27121428D01*
X62682438Y-27121428D02*
X62634819Y-26978571D01*
X62634819Y-26978571D02*
X62634819Y-26883333D01*
X62634819Y-26883333D02*
X62682438Y-26740476D01*
X62682438Y-26740476D02*
X62730057Y-26692857D01*
X63634819Y-25740476D02*
X63634819Y-26311904D01*
X63634819Y-26026190D02*
X62634819Y-26026190D01*
X62634819Y-26026190D02*
X62777676Y-26121428D01*
X62777676Y-26121428D02*
X62872914Y-26216666D01*
X62872914Y-26216666D02*
X62920533Y-26311904D01*
X63063390Y-25169047D02*
X63015771Y-25264285D01*
X63015771Y-25264285D02*
X62968152Y-25311904D01*
X62968152Y-25311904D02*
X62872914Y-25359523D01*
X62872914Y-25359523D02*
X62825295Y-25359523D01*
X62825295Y-25359523D02*
X62730057Y-25311904D01*
X62730057Y-25311904D02*
X62682438Y-25264285D01*
X62682438Y-25264285D02*
X62634819Y-25169047D01*
X62634819Y-25169047D02*
X62634819Y-24978571D01*
X62634819Y-24978571D02*
X62682438Y-24883333D01*
X62682438Y-24883333D02*
X62730057Y-24835714D01*
X62730057Y-24835714D02*
X62825295Y-24788095D01*
X62825295Y-24788095D02*
X62872914Y-24788095D01*
X62872914Y-24788095D02*
X62968152Y-24835714D01*
X62968152Y-24835714D02*
X63015771Y-24883333D01*
X63015771Y-24883333D02*
X63063390Y-24978571D01*
X63063390Y-24978571D02*
X63063390Y-25169047D01*
X63063390Y-25169047D02*
X63111009Y-25264285D01*
X63111009Y-25264285D02*
X63158628Y-25311904D01*
X63158628Y-25311904D02*
X63253866Y-25359523D01*
X63253866Y-25359523D02*
X63444342Y-25359523D01*
X63444342Y-25359523D02*
X63539580Y-25311904D01*
X63539580Y-25311904D02*
X63587200Y-25264285D01*
X63587200Y-25264285D02*
X63634819Y-25169047D01*
X63634819Y-25169047D02*
X63634819Y-24978571D01*
X63634819Y-24978571D02*
X63587200Y-24883333D01*
X63587200Y-24883333D02*
X63539580Y-24835714D01*
X63539580Y-24835714D02*
X63444342Y-24788095D01*
X63444342Y-24788095D02*
X63253866Y-24788095D01*
X63253866Y-24788095D02*
X63158628Y-24835714D01*
X63158628Y-24835714D02*
X63111009Y-24883333D01*
X63111009Y-24883333D02*
X63063390Y-24978571D01*
X54479580Y-17345357D02*
X54527200Y-17392976D01*
X54527200Y-17392976D02*
X54574819Y-17535833D01*
X54574819Y-17535833D02*
X54574819Y-17631071D01*
X54574819Y-17631071D02*
X54527200Y-17773928D01*
X54527200Y-17773928D02*
X54431961Y-17869166D01*
X54431961Y-17869166D02*
X54336723Y-17916785D01*
X54336723Y-17916785D02*
X54146247Y-17964404D01*
X54146247Y-17964404D02*
X54003390Y-17964404D01*
X54003390Y-17964404D02*
X53812914Y-17916785D01*
X53812914Y-17916785D02*
X53717676Y-17869166D01*
X53717676Y-17869166D02*
X53622438Y-17773928D01*
X53622438Y-17773928D02*
X53574819Y-17631071D01*
X53574819Y-17631071D02*
X53574819Y-17535833D01*
X53574819Y-17535833D02*
X53622438Y-17392976D01*
X53622438Y-17392976D02*
X53670057Y-17345357D01*
X54574819Y-16392976D02*
X54574819Y-16964404D01*
X54574819Y-16678690D02*
X53574819Y-16678690D01*
X53574819Y-16678690D02*
X53717676Y-16773928D01*
X53717676Y-16773928D02*
X53812914Y-16869166D01*
X53812914Y-16869166D02*
X53860533Y-16964404D01*
X53574819Y-15488214D02*
X53574819Y-15964404D01*
X53574819Y-15964404D02*
X54051009Y-16012023D01*
X54051009Y-16012023D02*
X54003390Y-15964404D01*
X54003390Y-15964404D02*
X53955771Y-15869166D01*
X53955771Y-15869166D02*
X53955771Y-15631071D01*
X53955771Y-15631071D02*
X54003390Y-15535833D01*
X54003390Y-15535833D02*
X54051009Y-15488214D01*
X54051009Y-15488214D02*
X54146247Y-15440595D01*
X54146247Y-15440595D02*
X54384342Y-15440595D01*
X54384342Y-15440595D02*
X54479580Y-15488214D01*
X54479580Y-15488214D02*
X54527200Y-15535833D01*
X54527200Y-15535833D02*
X54574819Y-15631071D01*
X54574819Y-15631071D02*
X54574819Y-15869166D01*
X54574819Y-15869166D02*
X54527200Y-15964404D01*
X54527200Y-15964404D02*
X54479580Y-16012023D01*
X31773333Y-68882080D02*
X31725714Y-68929700D01*
X31725714Y-68929700D02*
X31582857Y-68977319D01*
X31582857Y-68977319D02*
X31487619Y-68977319D01*
X31487619Y-68977319D02*
X31344762Y-68929700D01*
X31344762Y-68929700D02*
X31249524Y-68834461D01*
X31249524Y-68834461D02*
X31201905Y-68739223D01*
X31201905Y-68739223D02*
X31154286Y-68548747D01*
X31154286Y-68548747D02*
X31154286Y-68405890D01*
X31154286Y-68405890D02*
X31201905Y-68215414D01*
X31201905Y-68215414D02*
X31249524Y-68120176D01*
X31249524Y-68120176D02*
X31344762Y-68024938D01*
X31344762Y-68024938D02*
X31487619Y-67977319D01*
X31487619Y-67977319D02*
X31582857Y-67977319D01*
X31582857Y-67977319D02*
X31725714Y-68024938D01*
X31725714Y-68024938D02*
X31773333Y-68072557D01*
X32106667Y-67977319D02*
X32725714Y-67977319D01*
X32725714Y-67977319D02*
X32392381Y-68358271D01*
X32392381Y-68358271D02*
X32535238Y-68358271D01*
X32535238Y-68358271D02*
X32630476Y-68405890D01*
X32630476Y-68405890D02*
X32678095Y-68453509D01*
X32678095Y-68453509D02*
X32725714Y-68548747D01*
X32725714Y-68548747D02*
X32725714Y-68786842D01*
X32725714Y-68786842D02*
X32678095Y-68882080D01*
X32678095Y-68882080D02*
X32630476Y-68929700D01*
X32630476Y-68929700D02*
X32535238Y-68977319D01*
X32535238Y-68977319D02*
X32249524Y-68977319D01*
X32249524Y-68977319D02*
X32154286Y-68929700D01*
X32154286Y-68929700D02*
X32106667Y-68882080D01*
X43747142Y-67882080D02*
X43699523Y-67929700D01*
X43699523Y-67929700D02*
X43556666Y-67977319D01*
X43556666Y-67977319D02*
X43461428Y-67977319D01*
X43461428Y-67977319D02*
X43318571Y-67929700D01*
X43318571Y-67929700D02*
X43223333Y-67834461D01*
X43223333Y-67834461D02*
X43175714Y-67739223D01*
X43175714Y-67739223D02*
X43128095Y-67548747D01*
X43128095Y-67548747D02*
X43128095Y-67405890D01*
X43128095Y-67405890D02*
X43175714Y-67215414D01*
X43175714Y-67215414D02*
X43223333Y-67120176D01*
X43223333Y-67120176D02*
X43318571Y-67024938D01*
X43318571Y-67024938D02*
X43461428Y-66977319D01*
X43461428Y-66977319D02*
X43556666Y-66977319D01*
X43556666Y-66977319D02*
X43699523Y-67024938D01*
X43699523Y-67024938D02*
X43747142Y-67072557D01*
X44699523Y-67977319D02*
X44128095Y-67977319D01*
X44413809Y-67977319D02*
X44413809Y-66977319D01*
X44413809Y-66977319D02*
X44318571Y-67120176D01*
X44318571Y-67120176D02*
X44223333Y-67215414D01*
X44223333Y-67215414D02*
X44128095Y-67263033D01*
X45318571Y-66977319D02*
X45413809Y-66977319D01*
X45413809Y-66977319D02*
X45509047Y-67024938D01*
X45509047Y-67024938D02*
X45556666Y-67072557D01*
X45556666Y-67072557D02*
X45604285Y-67167795D01*
X45604285Y-67167795D02*
X45651904Y-67358271D01*
X45651904Y-67358271D02*
X45651904Y-67596366D01*
X45651904Y-67596366D02*
X45604285Y-67786842D01*
X45604285Y-67786842D02*
X45556666Y-67882080D01*
X45556666Y-67882080D02*
X45509047Y-67929700D01*
X45509047Y-67929700D02*
X45413809Y-67977319D01*
X45413809Y-67977319D02*
X45318571Y-67977319D01*
X45318571Y-67977319D02*
X45223333Y-67929700D01*
X45223333Y-67929700D02*
X45175714Y-67882080D01*
X45175714Y-67882080D02*
X45128095Y-67786842D01*
X45128095Y-67786842D02*
X45080476Y-67596366D01*
X45080476Y-67596366D02*
X45080476Y-67358271D01*
X45080476Y-67358271D02*
X45128095Y-67167795D01*
X45128095Y-67167795D02*
X45175714Y-67072557D01*
X45175714Y-67072557D02*
X45223333Y-67024938D01*
X45223333Y-67024938D02*
X45318571Y-66977319D01*
X56238095Y-14054819D02*
X56238095Y-14864342D01*
X56238095Y-14864342D02*
X56285714Y-14959580D01*
X56285714Y-14959580D02*
X56333333Y-15007200D01*
X56333333Y-15007200D02*
X56428571Y-15054819D01*
X56428571Y-15054819D02*
X56619047Y-15054819D01*
X56619047Y-15054819D02*
X56714285Y-15007200D01*
X56714285Y-15007200D02*
X56761904Y-14959580D01*
X56761904Y-14959580D02*
X56809523Y-14864342D01*
X56809523Y-14864342D02*
X56809523Y-14054819D01*
X57238095Y-14150057D02*
X57285714Y-14102438D01*
X57285714Y-14102438D02*
X57380952Y-14054819D01*
X57380952Y-14054819D02*
X57619047Y-14054819D01*
X57619047Y-14054819D02*
X57714285Y-14102438D01*
X57714285Y-14102438D02*
X57761904Y-14150057D01*
X57761904Y-14150057D02*
X57809523Y-14245295D01*
X57809523Y-14245295D02*
X57809523Y-14340533D01*
X57809523Y-14340533D02*
X57761904Y-14483390D01*
X57761904Y-14483390D02*
X57190476Y-15054819D01*
X57190476Y-15054819D02*
X57809523Y-15054819D01*
X43747142Y-71382080D02*
X43699523Y-71429700D01*
X43699523Y-71429700D02*
X43556666Y-71477319D01*
X43556666Y-71477319D02*
X43461428Y-71477319D01*
X43461428Y-71477319D02*
X43318571Y-71429700D01*
X43318571Y-71429700D02*
X43223333Y-71334461D01*
X43223333Y-71334461D02*
X43175714Y-71239223D01*
X43175714Y-71239223D02*
X43128095Y-71048747D01*
X43128095Y-71048747D02*
X43128095Y-70905890D01*
X43128095Y-70905890D02*
X43175714Y-70715414D01*
X43175714Y-70715414D02*
X43223333Y-70620176D01*
X43223333Y-70620176D02*
X43318571Y-70524938D01*
X43318571Y-70524938D02*
X43461428Y-70477319D01*
X43461428Y-70477319D02*
X43556666Y-70477319D01*
X43556666Y-70477319D02*
X43699523Y-70524938D01*
X43699523Y-70524938D02*
X43747142Y-70572557D01*
X44699523Y-71477319D02*
X44128095Y-71477319D01*
X44413809Y-71477319D02*
X44413809Y-70477319D01*
X44413809Y-70477319D02*
X44318571Y-70620176D01*
X44318571Y-70620176D02*
X44223333Y-70715414D01*
X44223333Y-70715414D02*
X44128095Y-70763033D01*
X45651904Y-71477319D02*
X45080476Y-71477319D01*
X45366190Y-71477319D02*
X45366190Y-70477319D01*
X45366190Y-70477319D02*
X45270952Y-70620176D01*
X45270952Y-70620176D02*
X45175714Y-70715414D01*
X45175714Y-70715414D02*
X45080476Y-70763033D01*
X63539580Y-17642857D02*
X63587200Y-17690476D01*
X63587200Y-17690476D02*
X63634819Y-17833333D01*
X63634819Y-17833333D02*
X63634819Y-17928571D01*
X63634819Y-17928571D02*
X63587200Y-18071428D01*
X63587200Y-18071428D02*
X63491961Y-18166666D01*
X63491961Y-18166666D02*
X63396723Y-18214285D01*
X63396723Y-18214285D02*
X63206247Y-18261904D01*
X63206247Y-18261904D02*
X63063390Y-18261904D01*
X63063390Y-18261904D02*
X62872914Y-18214285D01*
X62872914Y-18214285D02*
X62777676Y-18166666D01*
X62777676Y-18166666D02*
X62682438Y-18071428D01*
X62682438Y-18071428D02*
X62634819Y-17928571D01*
X62634819Y-17928571D02*
X62634819Y-17833333D01*
X62634819Y-17833333D02*
X62682438Y-17690476D01*
X62682438Y-17690476D02*
X62730057Y-17642857D01*
X63634819Y-16690476D02*
X63634819Y-17261904D01*
X63634819Y-16976190D02*
X62634819Y-16976190D01*
X62634819Y-16976190D02*
X62777676Y-17071428D01*
X62777676Y-17071428D02*
X62872914Y-17166666D01*
X62872914Y-17166666D02*
X62920533Y-17261904D01*
X62634819Y-15833333D02*
X62634819Y-16023809D01*
X62634819Y-16023809D02*
X62682438Y-16119047D01*
X62682438Y-16119047D02*
X62730057Y-16166666D01*
X62730057Y-16166666D02*
X62872914Y-16261904D01*
X62872914Y-16261904D02*
X63063390Y-16309523D01*
X63063390Y-16309523D02*
X63444342Y-16309523D01*
X63444342Y-16309523D02*
X63539580Y-16261904D01*
X63539580Y-16261904D02*
X63587200Y-16214285D01*
X63587200Y-16214285D02*
X63634819Y-16119047D01*
X63634819Y-16119047D02*
X63634819Y-15928571D01*
X63634819Y-15928571D02*
X63587200Y-15833333D01*
X63587200Y-15833333D02*
X63539580Y-15785714D01*
X63539580Y-15785714D02*
X63444342Y-15738095D01*
X63444342Y-15738095D02*
X63206247Y-15738095D01*
X63206247Y-15738095D02*
X63111009Y-15785714D01*
X63111009Y-15785714D02*
X63063390Y-15833333D01*
X63063390Y-15833333D02*
X63015771Y-15928571D01*
X63015771Y-15928571D02*
X63015771Y-16119047D01*
X63015771Y-16119047D02*
X63063390Y-16214285D01*
X63063390Y-16214285D02*
X63111009Y-16261904D01*
X63111009Y-16261904D02*
X63206247Y-16309523D01*
X36747142Y-73382080D02*
X36699523Y-73429700D01*
X36699523Y-73429700D02*
X36556666Y-73477319D01*
X36556666Y-73477319D02*
X36461428Y-73477319D01*
X36461428Y-73477319D02*
X36318571Y-73429700D01*
X36318571Y-73429700D02*
X36223333Y-73334461D01*
X36223333Y-73334461D02*
X36175714Y-73239223D01*
X36175714Y-73239223D02*
X36128095Y-73048747D01*
X36128095Y-73048747D02*
X36128095Y-72905890D01*
X36128095Y-72905890D02*
X36175714Y-72715414D01*
X36175714Y-72715414D02*
X36223333Y-72620176D01*
X36223333Y-72620176D02*
X36318571Y-72524938D01*
X36318571Y-72524938D02*
X36461428Y-72477319D01*
X36461428Y-72477319D02*
X36556666Y-72477319D01*
X36556666Y-72477319D02*
X36699523Y-72524938D01*
X36699523Y-72524938D02*
X36747142Y-72572557D01*
X37699523Y-73477319D02*
X37128095Y-73477319D01*
X37413809Y-73477319D02*
X37413809Y-72477319D01*
X37413809Y-72477319D02*
X37318571Y-72620176D01*
X37318571Y-72620176D02*
X37223333Y-72715414D01*
X37223333Y-72715414D02*
X37128095Y-72763033D01*
X38080476Y-72572557D02*
X38128095Y-72524938D01*
X38128095Y-72524938D02*
X38223333Y-72477319D01*
X38223333Y-72477319D02*
X38461428Y-72477319D01*
X38461428Y-72477319D02*
X38556666Y-72524938D01*
X38556666Y-72524938D02*
X38604285Y-72572557D01*
X38604285Y-72572557D02*
X38651904Y-72667795D01*
X38651904Y-72667795D02*
X38651904Y-72763033D01*
X38651904Y-72763033D02*
X38604285Y-72905890D01*
X38604285Y-72905890D02*
X38032857Y-73477319D01*
X38032857Y-73477319D02*
X38651904Y-73477319D01*
X42559580Y-66419166D02*
X42607200Y-66466785D01*
X42607200Y-66466785D02*
X42654819Y-66609642D01*
X42654819Y-66609642D02*
X42654819Y-66704880D01*
X42654819Y-66704880D02*
X42607200Y-66847737D01*
X42607200Y-66847737D02*
X42511961Y-66942975D01*
X42511961Y-66942975D02*
X42416723Y-66990594D01*
X42416723Y-66990594D02*
X42226247Y-67038213D01*
X42226247Y-67038213D02*
X42083390Y-67038213D01*
X42083390Y-67038213D02*
X41892914Y-66990594D01*
X41892914Y-66990594D02*
X41797676Y-66942975D01*
X41797676Y-66942975D02*
X41702438Y-66847737D01*
X41702438Y-66847737D02*
X41654819Y-66704880D01*
X41654819Y-66704880D02*
X41654819Y-66609642D01*
X41654819Y-66609642D02*
X41702438Y-66466785D01*
X41702438Y-66466785D02*
X41750057Y-66419166D01*
X42654819Y-65466785D02*
X42654819Y-66038213D01*
X42654819Y-65752499D02*
X41654819Y-65752499D01*
X41654819Y-65752499D02*
X41797676Y-65847737D01*
X41797676Y-65847737D02*
X41892914Y-65942975D01*
X41892914Y-65942975D02*
X41940533Y-66038213D01*
X42929580Y-70345357D02*
X42977200Y-70392976D01*
X42977200Y-70392976D02*
X43024819Y-70535833D01*
X43024819Y-70535833D02*
X43024819Y-70631071D01*
X43024819Y-70631071D02*
X42977200Y-70773928D01*
X42977200Y-70773928D02*
X42881961Y-70869166D01*
X42881961Y-70869166D02*
X42786723Y-70916785D01*
X42786723Y-70916785D02*
X42596247Y-70964404D01*
X42596247Y-70964404D02*
X42453390Y-70964404D01*
X42453390Y-70964404D02*
X42262914Y-70916785D01*
X42262914Y-70916785D02*
X42167676Y-70869166D01*
X42167676Y-70869166D02*
X42072438Y-70773928D01*
X42072438Y-70773928D02*
X42024819Y-70631071D01*
X42024819Y-70631071D02*
X42024819Y-70535833D01*
X42024819Y-70535833D02*
X42072438Y-70392976D01*
X42072438Y-70392976D02*
X42120057Y-70345357D01*
X43024819Y-69392976D02*
X43024819Y-69964404D01*
X43024819Y-69678690D02*
X42024819Y-69678690D01*
X42024819Y-69678690D02*
X42167676Y-69773928D01*
X42167676Y-69773928D02*
X42262914Y-69869166D01*
X42262914Y-69869166D02*
X42310533Y-69964404D01*
X42358152Y-68535833D02*
X43024819Y-68535833D01*
X41977200Y-68773928D02*
X42691485Y-69012023D01*
X42691485Y-69012023D02*
X42691485Y-68392976D01*
X43166666Y-86654819D02*
X43166666Y-87369104D01*
X43166666Y-87369104D02*
X43119047Y-87511961D01*
X43119047Y-87511961D02*
X43023809Y-87607200D01*
X43023809Y-87607200D02*
X42880952Y-87654819D01*
X42880952Y-87654819D02*
X42785714Y-87654819D01*
X43547619Y-86654819D02*
X44166666Y-86654819D01*
X44166666Y-86654819D02*
X43833333Y-87035771D01*
X43833333Y-87035771D02*
X43976190Y-87035771D01*
X43976190Y-87035771D02*
X44071428Y-87083390D01*
X44071428Y-87083390D02*
X44119047Y-87131009D01*
X44119047Y-87131009D02*
X44166666Y-87226247D01*
X44166666Y-87226247D02*
X44166666Y-87464342D01*
X44166666Y-87464342D02*
X44119047Y-87559580D01*
X44119047Y-87559580D02*
X44071428Y-87607200D01*
X44071428Y-87607200D02*
X43976190Y-87654819D01*
X43976190Y-87654819D02*
X43690476Y-87654819D01*
X43690476Y-87654819D02*
X43595238Y-87607200D01*
X43595238Y-87607200D02*
X43547619Y-87559580D01*
X55738095Y-23054819D02*
X55738095Y-23864342D01*
X55738095Y-23864342D02*
X55785714Y-23959580D01*
X55785714Y-23959580D02*
X55833333Y-24007200D01*
X55833333Y-24007200D02*
X55928571Y-24054819D01*
X55928571Y-24054819D02*
X56119047Y-24054819D01*
X56119047Y-24054819D02*
X56214285Y-24007200D01*
X56214285Y-24007200D02*
X56261904Y-23959580D01*
X56261904Y-23959580D02*
X56309523Y-23864342D01*
X56309523Y-23864342D02*
X56309523Y-23054819D01*
X56690476Y-23054819D02*
X57309523Y-23054819D01*
X57309523Y-23054819D02*
X56976190Y-23435771D01*
X56976190Y-23435771D02*
X57119047Y-23435771D01*
X57119047Y-23435771D02*
X57214285Y-23483390D01*
X57214285Y-23483390D02*
X57261904Y-23531009D01*
X57261904Y-23531009D02*
X57309523Y-23626247D01*
X57309523Y-23626247D02*
X57309523Y-23864342D01*
X57309523Y-23864342D02*
X57261904Y-23959580D01*
X57261904Y-23959580D02*
X57214285Y-24007200D01*
X57214285Y-24007200D02*
X57119047Y-24054819D01*
X57119047Y-24054819D02*
X56833333Y-24054819D01*
X56833333Y-24054819D02*
X56738095Y-24007200D01*
X56738095Y-24007200D02*
X56690476Y-23959580D01*
X26273333Y-62882080D02*
X26225714Y-62929700D01*
X26225714Y-62929700D02*
X26082857Y-62977319D01*
X26082857Y-62977319D02*
X25987619Y-62977319D01*
X25987619Y-62977319D02*
X25844762Y-62929700D01*
X25844762Y-62929700D02*
X25749524Y-62834461D01*
X25749524Y-62834461D02*
X25701905Y-62739223D01*
X25701905Y-62739223D02*
X25654286Y-62548747D01*
X25654286Y-62548747D02*
X25654286Y-62405890D01*
X25654286Y-62405890D02*
X25701905Y-62215414D01*
X25701905Y-62215414D02*
X25749524Y-62120176D01*
X25749524Y-62120176D02*
X25844762Y-62024938D01*
X25844762Y-62024938D02*
X25987619Y-61977319D01*
X25987619Y-61977319D02*
X26082857Y-61977319D01*
X26082857Y-61977319D02*
X26225714Y-62024938D01*
X26225714Y-62024938D02*
X26273333Y-62072557D01*
X26749524Y-62977319D02*
X26940000Y-62977319D01*
X26940000Y-62977319D02*
X27035238Y-62929700D01*
X27035238Y-62929700D02*
X27082857Y-62882080D01*
X27082857Y-62882080D02*
X27178095Y-62739223D01*
X27178095Y-62739223D02*
X27225714Y-62548747D01*
X27225714Y-62548747D02*
X27225714Y-62167795D01*
X27225714Y-62167795D02*
X27178095Y-62072557D01*
X27178095Y-62072557D02*
X27130476Y-62024938D01*
X27130476Y-62024938D02*
X27035238Y-61977319D01*
X27035238Y-61977319D02*
X26844762Y-61977319D01*
X26844762Y-61977319D02*
X26749524Y-62024938D01*
X26749524Y-62024938D02*
X26701905Y-62072557D01*
X26701905Y-62072557D02*
X26654286Y-62167795D01*
X26654286Y-62167795D02*
X26654286Y-62405890D01*
X26654286Y-62405890D02*
X26701905Y-62501128D01*
X26701905Y-62501128D02*
X26749524Y-62548747D01*
X26749524Y-62548747D02*
X26844762Y-62596366D01*
X26844762Y-62596366D02*
X27035238Y-62596366D01*
X27035238Y-62596366D02*
X27130476Y-62548747D01*
X27130476Y-62548747D02*
X27178095Y-62501128D01*
X27178095Y-62501128D02*
X27225714Y-62405890D01*
X27773333Y-69382080D02*
X27725714Y-69429700D01*
X27725714Y-69429700D02*
X27582857Y-69477319D01*
X27582857Y-69477319D02*
X27487619Y-69477319D01*
X27487619Y-69477319D02*
X27344762Y-69429700D01*
X27344762Y-69429700D02*
X27249524Y-69334461D01*
X27249524Y-69334461D02*
X27201905Y-69239223D01*
X27201905Y-69239223D02*
X27154286Y-69048747D01*
X27154286Y-69048747D02*
X27154286Y-68905890D01*
X27154286Y-68905890D02*
X27201905Y-68715414D01*
X27201905Y-68715414D02*
X27249524Y-68620176D01*
X27249524Y-68620176D02*
X27344762Y-68524938D01*
X27344762Y-68524938D02*
X27487619Y-68477319D01*
X27487619Y-68477319D02*
X27582857Y-68477319D01*
X27582857Y-68477319D02*
X27725714Y-68524938D01*
X27725714Y-68524938D02*
X27773333Y-68572557D01*
X28106667Y-68477319D02*
X28773333Y-68477319D01*
X28773333Y-68477319D02*
X28344762Y-69477319D01*
X13738095Y-95304819D02*
X13738095Y-94304819D01*
X13738095Y-94781009D02*
X14309523Y-94781009D01*
X14309523Y-95304819D02*
X14309523Y-94304819D01*
X14690476Y-94304819D02*
X15309523Y-94304819D01*
X15309523Y-94304819D02*
X14976190Y-94685771D01*
X14976190Y-94685771D02*
X15119047Y-94685771D01*
X15119047Y-94685771D02*
X15214285Y-94733390D01*
X15214285Y-94733390D02*
X15261904Y-94781009D01*
X15261904Y-94781009D02*
X15309523Y-94876247D01*
X15309523Y-94876247D02*
X15309523Y-95114342D01*
X15309523Y-95114342D02*
X15261904Y-95209580D01*
X15261904Y-95209580D02*
X15214285Y-95257200D01*
X15214285Y-95257200D02*
X15119047Y-95304819D01*
X15119047Y-95304819D02*
X14833333Y-95304819D01*
X14833333Y-95304819D02*
X14738095Y-95257200D01*
X14738095Y-95257200D02*
X14690476Y-95209580D01*
X39223333Y-59382080D02*
X39175714Y-59429700D01*
X39175714Y-59429700D02*
X39032857Y-59477319D01*
X39032857Y-59477319D02*
X38937619Y-59477319D01*
X38937619Y-59477319D02*
X38794762Y-59429700D01*
X38794762Y-59429700D02*
X38699524Y-59334461D01*
X38699524Y-59334461D02*
X38651905Y-59239223D01*
X38651905Y-59239223D02*
X38604286Y-59048747D01*
X38604286Y-59048747D02*
X38604286Y-58905890D01*
X38604286Y-58905890D02*
X38651905Y-58715414D01*
X38651905Y-58715414D02*
X38699524Y-58620176D01*
X38699524Y-58620176D02*
X38794762Y-58524938D01*
X38794762Y-58524938D02*
X38937619Y-58477319D01*
X38937619Y-58477319D02*
X39032857Y-58477319D01*
X39032857Y-58477319D02*
X39175714Y-58524938D01*
X39175714Y-58524938D02*
X39223333Y-58572557D01*
X40080476Y-58810652D02*
X40080476Y-59477319D01*
X39842381Y-58429700D02*
X39604286Y-59143985D01*
X39604286Y-59143985D02*
X40223333Y-59143985D01*
X45569580Y-66419166D02*
X45617200Y-66466785D01*
X45617200Y-66466785D02*
X45664819Y-66609642D01*
X45664819Y-66609642D02*
X45664819Y-66704880D01*
X45664819Y-66704880D02*
X45617200Y-66847737D01*
X45617200Y-66847737D02*
X45521961Y-66942975D01*
X45521961Y-66942975D02*
X45426723Y-66990594D01*
X45426723Y-66990594D02*
X45236247Y-67038213D01*
X45236247Y-67038213D02*
X45093390Y-67038213D01*
X45093390Y-67038213D02*
X44902914Y-66990594D01*
X44902914Y-66990594D02*
X44807676Y-66942975D01*
X44807676Y-66942975D02*
X44712438Y-66847737D01*
X44712438Y-66847737D02*
X44664819Y-66704880D01*
X44664819Y-66704880D02*
X44664819Y-66609642D01*
X44664819Y-66609642D02*
X44712438Y-66466785D01*
X44712438Y-66466785D02*
X44760057Y-66419166D01*
X44760057Y-66038213D02*
X44712438Y-65990594D01*
X44712438Y-65990594D02*
X44664819Y-65895356D01*
X44664819Y-65895356D02*
X44664819Y-65657261D01*
X44664819Y-65657261D02*
X44712438Y-65562023D01*
X44712438Y-65562023D02*
X44760057Y-65514404D01*
X44760057Y-65514404D02*
X44855295Y-65466785D01*
X44855295Y-65466785D02*
X44950533Y-65466785D01*
X44950533Y-65466785D02*
X45093390Y-65514404D01*
X45093390Y-65514404D02*
X45664819Y-66085832D01*
X45664819Y-66085832D02*
X45664819Y-65466785D01*
X27723333Y-71882080D02*
X27675714Y-71929700D01*
X27675714Y-71929700D02*
X27532857Y-71977319D01*
X27532857Y-71977319D02*
X27437619Y-71977319D01*
X27437619Y-71977319D02*
X27294762Y-71929700D01*
X27294762Y-71929700D02*
X27199524Y-71834461D01*
X27199524Y-71834461D02*
X27151905Y-71739223D01*
X27151905Y-71739223D02*
X27104286Y-71548747D01*
X27104286Y-71548747D02*
X27104286Y-71405890D01*
X27104286Y-71405890D02*
X27151905Y-71215414D01*
X27151905Y-71215414D02*
X27199524Y-71120176D01*
X27199524Y-71120176D02*
X27294762Y-71024938D01*
X27294762Y-71024938D02*
X27437619Y-70977319D01*
X27437619Y-70977319D02*
X27532857Y-70977319D01*
X27532857Y-70977319D02*
X27675714Y-71024938D01*
X27675714Y-71024938D02*
X27723333Y-71072557D01*
X28294762Y-71405890D02*
X28199524Y-71358271D01*
X28199524Y-71358271D02*
X28151905Y-71310652D01*
X28151905Y-71310652D02*
X28104286Y-71215414D01*
X28104286Y-71215414D02*
X28104286Y-71167795D01*
X28104286Y-71167795D02*
X28151905Y-71072557D01*
X28151905Y-71072557D02*
X28199524Y-71024938D01*
X28199524Y-71024938D02*
X28294762Y-70977319D01*
X28294762Y-70977319D02*
X28485238Y-70977319D01*
X28485238Y-70977319D02*
X28580476Y-71024938D01*
X28580476Y-71024938D02*
X28628095Y-71072557D01*
X28628095Y-71072557D02*
X28675714Y-71167795D01*
X28675714Y-71167795D02*
X28675714Y-71215414D01*
X28675714Y-71215414D02*
X28628095Y-71310652D01*
X28628095Y-71310652D02*
X28580476Y-71358271D01*
X28580476Y-71358271D02*
X28485238Y-71405890D01*
X28485238Y-71405890D02*
X28294762Y-71405890D01*
X28294762Y-71405890D02*
X28199524Y-71453509D01*
X28199524Y-71453509D02*
X28151905Y-71501128D01*
X28151905Y-71501128D02*
X28104286Y-71596366D01*
X28104286Y-71596366D02*
X28104286Y-71786842D01*
X28104286Y-71786842D02*
X28151905Y-71882080D01*
X28151905Y-71882080D02*
X28199524Y-71929700D01*
X28199524Y-71929700D02*
X28294762Y-71977319D01*
X28294762Y-71977319D02*
X28485238Y-71977319D01*
X28485238Y-71977319D02*
X28580476Y-71929700D01*
X28580476Y-71929700D02*
X28628095Y-71882080D01*
X28628095Y-71882080D02*
X28675714Y-71786842D01*
X28675714Y-71786842D02*
X28675714Y-71596366D01*
X28675714Y-71596366D02*
X28628095Y-71501128D01*
X28628095Y-71501128D02*
X28580476Y-71453509D01*
X28580476Y-71453509D02*
X28485238Y-71405890D01*
X66738095Y-18104819D02*
X66738095Y-17104819D01*
X66738095Y-17581009D02*
X67309523Y-17581009D01*
X67309523Y-18104819D02*
X67309523Y-17104819D01*
X67738095Y-17200057D02*
X67785714Y-17152438D01*
X67785714Y-17152438D02*
X67880952Y-17104819D01*
X67880952Y-17104819D02*
X68119047Y-17104819D01*
X68119047Y-17104819D02*
X68214285Y-17152438D01*
X68214285Y-17152438D02*
X68261904Y-17200057D01*
X68261904Y-17200057D02*
X68309523Y-17295295D01*
X68309523Y-17295295D02*
X68309523Y-17390533D01*
X68309523Y-17390533D02*
X68261904Y-17533390D01*
X68261904Y-17533390D02*
X67690476Y-18104819D01*
X67690476Y-18104819D02*
X68309523Y-18104819D01*
X66738095Y-95304819D02*
X66738095Y-94304819D01*
X66738095Y-94781009D02*
X67309523Y-94781009D01*
X67309523Y-95304819D02*
X67309523Y-94304819D01*
X68214285Y-94638152D02*
X68214285Y-95304819D01*
X67976190Y-94257200D02*
X67738095Y-94971485D01*
X67738095Y-94971485D02*
X68357142Y-94971485D01*
X25559580Y-91492976D02*
X25607200Y-91540595D01*
X25607200Y-91540595D02*
X25654819Y-91683452D01*
X25654819Y-91683452D02*
X25654819Y-91778690D01*
X25654819Y-91778690D02*
X25607200Y-91921547D01*
X25607200Y-91921547D02*
X25511961Y-92016785D01*
X25511961Y-92016785D02*
X25416723Y-92064404D01*
X25416723Y-92064404D02*
X25226247Y-92112023D01*
X25226247Y-92112023D02*
X25083390Y-92112023D01*
X25083390Y-92112023D02*
X24892914Y-92064404D01*
X24892914Y-92064404D02*
X24797676Y-92016785D01*
X24797676Y-92016785D02*
X24702438Y-91921547D01*
X24702438Y-91921547D02*
X24654819Y-91778690D01*
X24654819Y-91778690D02*
X24654819Y-91683452D01*
X24654819Y-91683452D02*
X24702438Y-91540595D01*
X24702438Y-91540595D02*
X24750057Y-91492976D01*
X25654819Y-91064404D02*
X24654819Y-91064404D01*
X24654819Y-91064404D02*
X25654819Y-90492976D01*
X25654819Y-90492976D02*
X24654819Y-90492976D01*
X25654819Y-89492976D02*
X25654819Y-90064404D01*
X25654819Y-89778690D02*
X24654819Y-89778690D01*
X24654819Y-89778690D02*
X24797676Y-89873928D01*
X24797676Y-89873928D02*
X24892914Y-89969166D01*
X24892914Y-89969166D02*
X24940533Y-90064404D01*
X26569580Y-67319166D02*
X26617200Y-67366785D01*
X26617200Y-67366785D02*
X26664819Y-67509642D01*
X26664819Y-67509642D02*
X26664819Y-67604880D01*
X26664819Y-67604880D02*
X26617200Y-67747737D01*
X26617200Y-67747737D02*
X26521961Y-67842975D01*
X26521961Y-67842975D02*
X26426723Y-67890594D01*
X26426723Y-67890594D02*
X26236247Y-67938213D01*
X26236247Y-67938213D02*
X26093390Y-67938213D01*
X26093390Y-67938213D02*
X25902914Y-67890594D01*
X25902914Y-67890594D02*
X25807676Y-67842975D01*
X25807676Y-67842975D02*
X25712438Y-67747737D01*
X25712438Y-67747737D02*
X25664819Y-67604880D01*
X25664819Y-67604880D02*
X25664819Y-67509642D01*
X25664819Y-67509642D02*
X25712438Y-67366785D01*
X25712438Y-67366785D02*
X25760057Y-67319166D01*
X25664819Y-66462023D02*
X25664819Y-66652499D01*
X25664819Y-66652499D02*
X25712438Y-66747737D01*
X25712438Y-66747737D02*
X25760057Y-66795356D01*
X25760057Y-66795356D02*
X25902914Y-66890594D01*
X25902914Y-66890594D02*
X26093390Y-66938213D01*
X26093390Y-66938213D02*
X26474342Y-66938213D01*
X26474342Y-66938213D02*
X26569580Y-66890594D01*
X26569580Y-66890594D02*
X26617200Y-66842975D01*
X26617200Y-66842975D02*
X26664819Y-66747737D01*
X26664819Y-66747737D02*
X26664819Y-66557261D01*
X26664819Y-66557261D02*
X26617200Y-66462023D01*
X26617200Y-66462023D02*
X26569580Y-66414404D01*
X26569580Y-66414404D02*
X26474342Y-66366785D01*
X26474342Y-66366785D02*
X26236247Y-66366785D01*
X26236247Y-66366785D02*
X26141009Y-66414404D01*
X26141009Y-66414404D02*
X26093390Y-66462023D01*
X26093390Y-66462023D02*
X26045771Y-66557261D01*
X26045771Y-66557261D02*
X26045771Y-66747737D01*
X26045771Y-66747737D02*
X26093390Y-66842975D01*
X26093390Y-66842975D02*
X26141009Y-66890594D01*
X26141009Y-66890594D02*
X26236247Y-66938213D01*
X13738095Y-18104819D02*
X13738095Y-17104819D01*
X13738095Y-17581009D02*
X14309523Y-17581009D01*
X14309523Y-18104819D02*
X14309523Y-17104819D01*
X15309523Y-18104819D02*
X14738095Y-18104819D01*
X15023809Y-18104819D02*
X15023809Y-17104819D01*
X15023809Y-17104819D02*
X14928571Y-17247676D01*
X14928571Y-17247676D02*
X14833333Y-17342914D01*
X14833333Y-17342914D02*
X14738095Y-17390533D01*
X53929580Y-26845357D02*
X53977200Y-26892976D01*
X53977200Y-26892976D02*
X54024819Y-27035833D01*
X54024819Y-27035833D02*
X54024819Y-27131071D01*
X54024819Y-27131071D02*
X53977200Y-27273928D01*
X53977200Y-27273928D02*
X53881961Y-27369166D01*
X53881961Y-27369166D02*
X53786723Y-27416785D01*
X53786723Y-27416785D02*
X53596247Y-27464404D01*
X53596247Y-27464404D02*
X53453390Y-27464404D01*
X53453390Y-27464404D02*
X53262914Y-27416785D01*
X53262914Y-27416785D02*
X53167676Y-27369166D01*
X53167676Y-27369166D02*
X53072438Y-27273928D01*
X53072438Y-27273928D02*
X53024819Y-27131071D01*
X53024819Y-27131071D02*
X53024819Y-27035833D01*
X53024819Y-27035833D02*
X53072438Y-26892976D01*
X53072438Y-26892976D02*
X53120057Y-26845357D01*
X54024819Y-25892976D02*
X54024819Y-26464404D01*
X54024819Y-26178690D02*
X53024819Y-26178690D01*
X53024819Y-26178690D02*
X53167676Y-26273928D01*
X53167676Y-26273928D02*
X53262914Y-26369166D01*
X53262914Y-26369166D02*
X53310533Y-26464404D01*
X53024819Y-25559642D02*
X53024819Y-24892976D01*
X53024819Y-24892976D02*
X54024819Y-25321547D01*
X35128095Y-65657319D02*
X35128095Y-66466842D01*
X35128095Y-66466842D02*
X35175714Y-66562080D01*
X35175714Y-66562080D02*
X35223333Y-66609700D01*
X35223333Y-66609700D02*
X35318571Y-66657319D01*
X35318571Y-66657319D02*
X35509047Y-66657319D01*
X35509047Y-66657319D02*
X35604285Y-66609700D01*
X35604285Y-66609700D02*
X35651904Y-66562080D01*
X35651904Y-66562080D02*
X35699523Y-66466842D01*
X35699523Y-66466842D02*
X35699523Y-65657319D01*
X36699523Y-66657319D02*
X36128095Y-66657319D01*
X36413809Y-66657319D02*
X36413809Y-65657319D01*
X36413809Y-65657319D02*
X36318571Y-65800176D01*
X36318571Y-65800176D02*
X36223333Y-65895414D01*
X36223333Y-65895414D02*
X36128095Y-65943033D01*
X32448300Y-63657319D02*
X32448300Y-63895414D01*
X32210205Y-63800176D02*
X32448300Y-63895414D01*
X32448300Y-63895414D02*
X32686395Y-63800176D01*
X32305443Y-64085890D02*
X32448300Y-63895414D01*
X32448300Y-63895414D02*
X32591157Y-64085890D01*
X32448300Y-63657319D02*
X32448300Y-63895414D01*
X32210205Y-63800176D02*
X32448300Y-63895414D01*
X32448300Y-63895414D02*
X32686395Y-63800176D01*
X32305443Y-64085890D02*
X32448300Y-63895414D01*
X32448300Y-63895414D02*
X32591157Y-64085890D01*
X39747142Y-71382080D02*
X39699523Y-71429700D01*
X39699523Y-71429700D02*
X39556666Y-71477319D01*
X39556666Y-71477319D02*
X39461428Y-71477319D01*
X39461428Y-71477319D02*
X39318571Y-71429700D01*
X39318571Y-71429700D02*
X39223333Y-71334461D01*
X39223333Y-71334461D02*
X39175714Y-71239223D01*
X39175714Y-71239223D02*
X39128095Y-71048747D01*
X39128095Y-71048747D02*
X39128095Y-70905890D01*
X39128095Y-70905890D02*
X39175714Y-70715414D01*
X39175714Y-70715414D02*
X39223333Y-70620176D01*
X39223333Y-70620176D02*
X39318571Y-70524938D01*
X39318571Y-70524938D02*
X39461428Y-70477319D01*
X39461428Y-70477319D02*
X39556666Y-70477319D01*
X39556666Y-70477319D02*
X39699523Y-70524938D01*
X39699523Y-70524938D02*
X39747142Y-70572557D01*
X40699523Y-71477319D02*
X40128095Y-71477319D01*
X40413809Y-71477319D02*
X40413809Y-70477319D01*
X40413809Y-70477319D02*
X40318571Y-70620176D01*
X40318571Y-70620176D02*
X40223333Y-70715414D01*
X40223333Y-70715414D02*
X40128095Y-70763033D01*
X41032857Y-70477319D02*
X41651904Y-70477319D01*
X41651904Y-70477319D02*
X41318571Y-70858271D01*
X41318571Y-70858271D02*
X41461428Y-70858271D01*
X41461428Y-70858271D02*
X41556666Y-70905890D01*
X41556666Y-70905890D02*
X41604285Y-70953509D01*
X41604285Y-70953509D02*
X41651904Y-71048747D01*
X41651904Y-71048747D02*
X41651904Y-71286842D01*
X41651904Y-71286842D02*
X41604285Y-71382080D01*
X41604285Y-71382080D02*
X41556666Y-71429700D01*
X41556666Y-71429700D02*
X41461428Y-71477319D01*
X41461428Y-71477319D02*
X41175714Y-71477319D01*
X41175714Y-71477319D02*
X41080476Y-71429700D01*
X41080476Y-71429700D02*
X41032857Y-71382080D01*
%TO.C,C24*%
D12*
X32765000Y-51238748D02*
X32765000Y-51761252D01*
X34235000Y-51238748D02*
X34235000Y-51761252D01*
%TO.C,J1*%
X31616678Y-15788029D02*
X31616678Y-17488029D01*
X40956678Y-15788029D02*
X40956678Y-17488029D01*
%TO.C,U7*%
D11*
X34820000Y-49470000D02*
X38180000Y-49470000D01*
X38180000Y-49470000D02*
X38180000Y-53530000D01*
X38180000Y-53530000D02*
X34820000Y-53530000D01*
X34820000Y-53530000D02*
X34820000Y-49470000D01*
X36250000Y-49240000D02*
X34590000Y-49240000D01*
X34590000Y-49240000D02*
X34590000Y-51100000D01*
D13*
X35280000Y-49900000D02*
G75*
G02*
X35220000Y-49900000I-30000J0D01*
G01*
X35220000Y-49900000D02*
G75*
G02*
X35280000Y-49900000I30000J0D01*
G01*
%TO.C,U6*%
D11*
X23080000Y-36580000D02*
X23080000Y-33420000D01*
X20920000Y-33420000D02*
X20920000Y-36580000D01*
D13*
X21030000Y-36500000D02*
G75*
G02*
X20970000Y-36500000I-30000J0D01*
G01*
X20970000Y-36500000D02*
G75*
G02*
X21030000Y-36500000I30000J0D01*
G01*
D14*
X21340000Y-37030000D02*
G75*
G02*
X21140000Y-37030000I-100000J0D01*
G01*
X21140000Y-37030000D02*
G75*
G02*
X21340000Y-37030000I100000J0D01*
G01*
%TO.C,U5*%
D11*
X37830000Y-27920000D02*
X38080000Y-27920000D01*
X38080000Y-27920000D02*
X38080000Y-27920000D01*
X38080000Y-27920000D02*
X38080000Y-31080000D01*
X38080000Y-31080000D02*
X38080000Y-31080000D01*
X38080000Y-31080000D02*
X37830000Y-31080000D01*
X35170000Y-27920000D02*
X34920000Y-27920000D01*
X34920000Y-27920000D02*
X34920000Y-27920000D01*
X34920000Y-27920000D02*
X34920000Y-31080000D01*
X34920000Y-31080000D02*
X34920000Y-31080000D01*
X34920000Y-31080000D02*
X35170000Y-31080000D01*
D13*
X38030000Y-28000000D02*
G75*
G02*
X37970000Y-28000000I-30000J0D01*
G01*
X37970000Y-28000000D02*
G75*
G02*
X38030000Y-28000000I30000J0D01*
G01*
D11*
X37570000Y-27460000D02*
G75*
G02*
X37430000Y-27460000I-70000J0D01*
G01*
X37430000Y-27460000D02*
G75*
G02*
X37570000Y-27460000I70000J0D01*
G01*
%TO.C,U4*%
D12*
X32890000Y-39260000D02*
X33340000Y-39260000D01*
X32890000Y-39710000D02*
X32890000Y-39260000D01*
X32890000Y-46480000D02*
X32890000Y-46030000D01*
X33340000Y-46480000D02*
X32890000Y-46480000D01*
X39660000Y-39260000D02*
X40110000Y-39260000D01*
X40110000Y-39260000D02*
X40110000Y-39710000D01*
X40110000Y-46030000D02*
X40110000Y-46480000D01*
X40110000Y-46480000D02*
X39660000Y-46480000D01*
X32390000Y-40070000D02*
X32060000Y-40310000D01*
X32060000Y-39830000D01*
X32390000Y-40070000D01*
G36*
X32390000Y-40070000D02*
G01*
X32060000Y-40310000D01*
X32060000Y-39830000D01*
X32390000Y-40070000D01*
G37*
%TO.C,SW1*%
D15*
X23000000Y-28300000D02*
X21100000Y-28300000D01*
X21100000Y-28300000D02*
X20200000Y-27400000D01*
X20200000Y-27400000D02*
X20200000Y-25600000D01*
X20200000Y-25600000D02*
X21200000Y-24600000D01*
X21200000Y-24600000D02*
X22900000Y-24600000D01*
X22900000Y-24600000D02*
X23800000Y-25500000D01*
X23800000Y-25500000D02*
X23800000Y-27500000D01*
X23800000Y-27500000D02*
X23000000Y-28300000D01*
X20720000Y-29050000D02*
X19830000Y-28160000D01*
X19450000Y-27670000D02*
X19450000Y-25330000D01*
X19830000Y-24840000D02*
X20720000Y-23950000D01*
X24550000Y-27670000D02*
X24550000Y-25330000D01*
X24170000Y-24840000D02*
X23280000Y-23950000D01*
X23280000Y-29050000D02*
X24170000Y-28160000D01*
X23280000Y-23950000D02*
X20720000Y-23950000D01*
X23280000Y-29050000D02*
X20720000Y-29050000D01*
D13*
X25280000Y-29050000D02*
G75*
G02*
X25220000Y-29050000I-30000J0D01*
G01*
X25220000Y-29050000D02*
G75*
G02*
X25280000Y-29050000I30000J0D01*
G01*
D15*
X23280000Y-26500000D02*
G75*
G02*
X20720000Y-26500000I-1280000J0D01*
G01*
X20720000Y-26500000D02*
G75*
G02*
X23280000Y-26500000I1280000J0D01*
G01*
%TO.C,R17*%
D12*
X47227064Y-38235000D02*
X46772936Y-38235000D01*
X47227064Y-36765000D02*
X46772936Y-36765000D01*
%TO.C,R16*%
X41772936Y-47265000D02*
X42227064Y-47265000D01*
X41772936Y-48735000D02*
X42227064Y-48735000D01*
%TO.C,R15*%
X39265000Y-51727064D02*
X39265000Y-51272936D01*
X40735000Y-51727064D02*
X40735000Y-51272936D01*
%TO.C,R14*%
X45772936Y-46265000D02*
X46227064Y-46265000D01*
X45772936Y-47735000D02*
X46227064Y-47735000D01*
%TO.C,R13*%
X49772936Y-34765000D02*
X50227064Y-34765000D01*
X49772936Y-36235000D02*
X50227064Y-36235000D01*
%TO.C,R12*%
X53735000Y-39772936D02*
X53735000Y-40227064D01*
X52265000Y-39772936D02*
X52265000Y-40227064D01*
%TO.C,R11*%
X50235000Y-41772936D02*
X50235000Y-42227064D01*
X48765000Y-41772936D02*
X48765000Y-42227064D01*
%TO.C,R10*%
X18265000Y-33727064D02*
X18265000Y-33272936D01*
X19735000Y-33727064D02*
X19735000Y-33272936D01*
%TO.C,R9*%
X27735000Y-38272936D02*
X27735000Y-38727064D01*
X26265000Y-38272936D02*
X26265000Y-38727064D01*
%TO.C,R8*%
X32227064Y-23235000D02*
X31772936Y-23235000D01*
X32227064Y-21765000D02*
X31772936Y-21765000D01*
%TO.C,R7*%
X38727064Y-23235000D02*
X38272936Y-23235000D01*
X38727064Y-21765000D02*
X38272936Y-21765000D01*
%TO.C,R6*%
X40265000Y-26727064D02*
X40265000Y-26272936D01*
X41735000Y-26727064D02*
X41735000Y-26272936D01*
%TO.C,R5*%
X43265000Y-26727064D02*
X43265000Y-26272936D01*
X44735000Y-26727064D02*
X44735000Y-26272936D01*
%TO.C,R4*%
X39227064Y-33235000D02*
X38772936Y-33235000D01*
X39227064Y-31765000D02*
X38772936Y-31765000D01*
%TO.C,R3*%
X32185436Y-34265000D02*
X32639564Y-34265000D01*
X32185436Y-35735000D02*
X32639564Y-35735000D01*
%TO.C,R2*%
X45772936Y-43177500D02*
X46227064Y-43177500D01*
X45772936Y-44647500D02*
X46227064Y-44647500D01*
%TO.C,R1*%
X45772936Y-40227500D02*
X46227064Y-40227500D01*
X45772936Y-41697500D02*
X46227064Y-41697500D01*
%TO.C,Q1*%
X50650000Y-38100000D02*
X49350000Y-38100000D01*
X50650000Y-39900000D02*
X49350000Y-39900000D01*
D11*
X48825000Y-38490000D02*
G75*
G02*
X48675000Y-38490000I-75000J0D01*
G01*
X48675000Y-38490000D02*
G75*
G02*
X48825000Y-38490000I75000J0D01*
G01*
%TO.C,L2*%
D12*
X43399622Y-35060000D02*
X42600378Y-35060000D01*
X43399622Y-33940000D02*
X42600378Y-33940000D01*
%TO.C,L1*%
X32899622Y-28560000D02*
X32100378Y-28560000D01*
X32899622Y-27440000D02*
X32100378Y-27440000D01*
%TO.C,D2*%
X52185000Y-47960000D02*
X52185000Y-46040000D01*
X52185000Y-46040000D02*
X49500000Y-46040000D01*
X49500000Y-47960000D02*
X52185000Y-47960000D01*
%TO.C,D1*%
X34500000Y-26860000D02*
X36500000Y-26860000D01*
X34500000Y-26860000D02*
X34500000Y-22850000D01*
X36500000Y-26860000D02*
X36500000Y-22850000D01*
%TO.C,C32*%
X44738748Y-31765000D02*
X45261252Y-31765000D01*
X44738748Y-33235000D02*
X45261252Y-33235000D01*
%TO.C,C31*%
X35265000Y-35261252D02*
X35265000Y-34738748D01*
X36735000Y-35261252D02*
X36735000Y-34738748D01*
%TO.C,C30*%
X50238748Y-30765000D02*
X50761252Y-30765000D01*
X50238748Y-32235000D02*
X50761252Y-32235000D01*
%TO.C,C29*%
X46238748Y-49765000D02*
X46761252Y-49765000D01*
X46238748Y-51235000D02*
X46761252Y-51235000D01*
%TO.C,C28*%
X29738748Y-43265000D02*
X30261252Y-43265000D01*
X29738748Y-44735000D02*
X30261252Y-44735000D01*
%TO.C,C27*%
X41738748Y-37265000D02*
X42261252Y-37265000D01*
X41738748Y-38735000D02*
X42261252Y-38735000D01*
%TO.C,C26*%
X29688748Y-40765000D02*
X30211252Y-40765000D01*
X29688748Y-42235000D02*
X30211252Y-42235000D01*
%TO.C,C25*%
X42735000Y-51238748D02*
X42735000Y-51761252D01*
X41265000Y-51238748D02*
X41265000Y-51761252D01*
%TO.C,C23*%
X57235000Y-39788748D02*
X57235000Y-40311252D01*
X55765000Y-39788748D02*
X55765000Y-40311252D01*
%TO.C,C22*%
X28275000Y-31761252D02*
X28275000Y-31238748D01*
X29745000Y-31761252D02*
X29745000Y-31238748D01*
%TO.C,C21*%
X25265000Y-31761252D02*
X25265000Y-31238748D01*
X26735000Y-31761252D02*
X26735000Y-31238748D01*
%TO.C,C20*%
X33235000Y-31738748D02*
X33235000Y-32261252D01*
X31765000Y-31738748D02*
X31765000Y-32261252D01*
%TO.C,C19*%
X39735000Y-27238748D02*
X39735000Y-27761252D01*
X38265000Y-27238748D02*
X38265000Y-27761252D01*
%TO.C,C5*%
X29678748Y-61967500D02*
X30201252Y-61967500D01*
X29678748Y-63437500D02*
X30201252Y-63437500D01*
%TO.C,C18*%
X60765000Y-25788748D02*
X60765000Y-26311252D01*
X62235000Y-25788748D02*
X62235000Y-26311252D01*
%TO.C,C15*%
X51705000Y-16441248D02*
X51705000Y-16963752D01*
X53175000Y-16441248D02*
X53175000Y-16963752D01*
%TO.C,C3*%
X31678748Y-69467500D02*
X32201252Y-69467500D01*
X31678748Y-70937500D02*
X32201252Y-70937500D01*
%TO.C,C10*%
X44128748Y-68467500D02*
X44651252Y-68467500D01*
X44128748Y-69937500D02*
X44651252Y-69937500D01*
%TO.C,U2*%
X56090000Y-15440000D02*
X57910000Y-15440000D01*
X56090000Y-15490000D02*
X56090000Y-15440000D01*
X56090000Y-18560000D02*
X56090000Y-18510000D01*
X57910000Y-15440000D02*
X57910000Y-15490000D01*
X57910000Y-16610000D02*
X57910000Y-17390000D01*
X57910000Y-18510000D02*
X57910000Y-18560000D01*
X57910000Y-18560000D02*
X56090000Y-18560000D01*
X55550000Y-15490000D02*
X55310000Y-15160000D01*
X55790000Y-15160000D01*
X55550000Y-15490000D01*
G36*
X55550000Y-15490000D02*
G01*
X55310000Y-15160000D01*
X55790000Y-15160000D01*
X55550000Y-15490000D01*
G37*
%TO.C,C11*%
X44128748Y-71967500D02*
X44651252Y-71967500D01*
X44128748Y-73437500D02*
X44651252Y-73437500D01*
%TO.C,C16*%
X60765000Y-16738748D02*
X60765000Y-17261252D01*
X62235000Y-16738748D02*
X62235000Y-17261252D01*
%TO.C,C12*%
X37128748Y-73967500D02*
X37651252Y-73967500D01*
X37128748Y-75437500D02*
X37651252Y-75437500D01*
%TO.C,C1*%
X43145000Y-66513752D02*
X43145000Y-65991248D01*
X44615000Y-66513752D02*
X44615000Y-65991248D01*
%TO.C,C14*%
X40155000Y-69441248D02*
X40155000Y-69963752D01*
X41625000Y-69441248D02*
X41625000Y-69963752D01*
%TO.C,J3*%
X37500000Y-88300000D02*
X49500000Y-88300000D01*
X37500000Y-99300000D02*
X37500000Y-88300000D01*
X39000000Y-99300000D02*
X37500000Y-99300000D01*
X39000000Y-100500000D02*
X39000000Y-99300000D01*
X40500000Y-100500000D02*
X39000000Y-100500000D01*
X40500000Y-102300000D02*
X40500000Y-100500000D01*
X41500000Y-99300000D02*
X41500000Y-102300000D01*
X45500000Y-99300000D02*
X41500000Y-99300000D01*
X45500000Y-102300000D02*
X45500000Y-99300000D01*
X46500000Y-100500000D02*
X46500000Y-102300000D01*
X46500000Y-102300000D02*
X40500000Y-102300000D01*
X48000000Y-99300000D02*
X48000000Y-100500000D01*
X48000000Y-100500000D02*
X46500000Y-100500000D01*
X49500000Y-88300000D02*
X49500000Y-99300000D01*
X49500000Y-99300000D02*
X48000000Y-99300000D01*
%TO.C,U3*%
X55590000Y-24440000D02*
X57410000Y-24440000D01*
X55590000Y-24490000D02*
X55590000Y-24440000D01*
X55590000Y-27560000D02*
X55590000Y-27510000D01*
X57410000Y-24440000D02*
X57410000Y-24490000D01*
X57410000Y-25610000D02*
X57410000Y-26390000D01*
X57410000Y-27510000D02*
X57410000Y-27560000D01*
X57410000Y-27560000D02*
X55590000Y-27560000D01*
X55050000Y-24490000D02*
X54810000Y-24160000D01*
X55290000Y-24160000D01*
X55050000Y-24490000D01*
G36*
X55050000Y-24490000D02*
G01*
X54810000Y-24160000D01*
X55290000Y-24160000D01*
X55050000Y-24490000D01*
G37*
%TO.C,C9*%
X26178748Y-63467500D02*
X26701252Y-63467500D01*
X26178748Y-64937500D02*
X26701252Y-64937500D01*
%TO.C,C7*%
X27678748Y-69967500D02*
X28201252Y-69967500D01*
X27678748Y-71437500D02*
X28201252Y-71437500D01*
%TO.C,C4*%
X39128748Y-59967500D02*
X39651252Y-59967500D01*
X39128748Y-61437500D02*
X39651252Y-61437500D01*
%TO.C,C2*%
X46155000Y-66513752D02*
X46155000Y-65991248D01*
X47625000Y-66513752D02*
X47625000Y-65991248D01*
%TO.C,C8*%
X27628748Y-72467500D02*
X28151252Y-72467500D01*
X27628748Y-73937500D02*
X28151252Y-73937500D01*
%TO.C,CN1*%
D15*
X21060000Y-87332500D02*
X21060000Y-84622500D01*
X21060000Y-100272500D02*
X21060000Y-89772500D01*
X21060000Y-100272500D02*
X29440000Y-100272500D01*
X22000000Y-100302500D02*
X28500000Y-100302500D01*
X22000000Y-103802500D02*
X22000000Y-100302500D01*
X24160000Y-83262500D02*
X25990000Y-83262500D01*
X28500000Y-100302500D02*
X28500000Y-103802500D01*
X28500000Y-103802500D02*
X22000000Y-103802500D01*
X29440000Y-87332500D02*
X29440000Y-84622500D01*
X29440000Y-100272500D02*
X29440000Y-89772500D01*
D13*
X20530000Y-103932500D02*
G75*
G02*
X20470000Y-103932500I-30000J0D01*
G01*
X20470000Y-103932500D02*
G75*
G02*
X20530000Y-103932500I30000J0D01*
G01*
%TO.C,C6*%
D12*
X27155000Y-67413752D02*
X27155000Y-66891248D01*
X28625000Y-67413752D02*
X28625000Y-66891248D01*
%TO.C,C17*%
X51155000Y-25941248D02*
X51155000Y-26463752D01*
X52625000Y-25941248D02*
X52625000Y-26463752D01*
%TO.C,U1*%
D16*
X33261100Y-63573600D02*
X33261100Y-63968161D01*
X33261100Y-68436839D02*
X33261100Y-68831400D01*
X33261100Y-68831400D02*
X33655661Y-68831400D01*
X33655661Y-63573600D02*
X33261100Y-63573600D01*
X38124339Y-68831400D02*
X38518900Y-68831400D01*
X38518900Y-63573600D02*
X38124339Y-63573600D01*
X38518900Y-63968161D02*
X38518900Y-63573600D01*
X38518900Y-68831400D02*
X38518900Y-68436839D01*
D17*
G36*
X32829300Y-68192999D02*
G01*
X32575300Y-68192999D01*
X32575300Y-67811999D01*
X32829300Y-67811999D01*
X32829300Y-68192999D01*
G37*
G36*
X34280501Y-63141800D02*
G01*
X33899501Y-63141800D01*
X33899501Y-62887800D01*
X34280501Y-62887800D01*
X34280501Y-63141800D01*
G37*
G36*
X37880499Y-69517200D02*
G01*
X37499499Y-69517200D01*
X37499499Y-69263200D01*
X37880499Y-69263200D01*
X37880499Y-69517200D01*
G37*
G36*
X39204700Y-64593001D02*
G01*
X38950700Y-64593001D01*
X38950700Y-64212001D01*
X39204700Y-64212001D01*
X39204700Y-64593001D01*
G37*
%TO.C,C13*%
D12*
X40128748Y-71967500D02*
X40651252Y-71967500D01*
X40128748Y-73437500D02*
X40651252Y-73437500D01*
%TD*%
M02*
