%TF.GenerationSoftware,KiCad,Pcbnew,10.0.3*%
%TF.CreationDate,2026-08-16T23:32:36+05:30*%
%TF.ProjectId,Positron,506f7369-7472-46f6-9e2e-6b696361645f,rev?*%
%TF.SameCoordinates,Original*%
%TF.FileFunction,Copper,L1,Top*%
%TF.FilePolarity,Positive*%
%FSLAX46Y46*%
G04 Gerber Fmt 4.6, Leading zero omitted, Abs format (unit mm)*
G04 Created by KiCad (PCBNEW 10.0.3) date 2026-08-16 23:32:36*
%MOMM*%
%LPD*%
G01*
G04 APERTURE LIST*
G04 Aperture macros list*
%AMRoundRect*
0 Rectangle with rounded corners*
0 $1 Rounding radius*
0 $2 $3 $4 $5 $6 $7 $8 $9 X,Y pos of 4 corners*
0 Add a 4 corners polygon primitive as box body*
4,1,4,$2,$3,$4,$5,$6,$7,$8,$9,$2,$3,0*
0 Add four circle primitives for the rounded corners*
1,1,$1+$1,$2,$3*
1,1,$1+$1,$4,$5*
1,1,$1+$1,$6,$7*
1,1,$1+$1,$8,$9*
0 Add four rect primitives between the rounded corners*
20,1,$1+$1,$2,$3,$4,$5,0*
20,1,$1+$1,$4,$5,$6,$7,0*
20,1,$1+$1,$6,$7,$8,$9,0*
20,1,$1+$1,$8,$9,$2,$3,0*%
G04 Aperture macros list end*
%TA.AperFunction,SMDPad,CuDef*%
%ADD10RoundRect,0.250000X-0.475000X0.250000X-0.475000X-0.250000X0.475000X-0.250000X0.475000X0.250000X0*%
%TD*%
%TA.AperFunction,ComponentPad*%
%ADD11O,1.000000X1.800000*%
%TD*%
%TA.AperFunction,ComponentPad*%
%ADD12O,1.000000X2.100000*%
%TD*%
%TA.AperFunction,SMDPad,CuDef*%
%ADD13RoundRect,0.150000X0.150000X0.425000X-0.150000X0.425000X-0.150000X-0.425000X0.150000X-0.425000X0*%
%TD*%
%TA.AperFunction,SMDPad,CuDef*%
%ADD14RoundRect,0.075000X0.075000X0.500000X-0.075000X0.500000X-0.075000X-0.500000X0.075000X-0.500000X0*%
%TD*%
%TA.AperFunction,SMDPad,CuDef*%
%ADD15R,1.200000X1.400000*%
%TD*%
%TA.AperFunction,SMDPad,CuDef*%
%ADD16R,0.280000X0.600000*%
%TD*%
%TA.AperFunction,SMDPad,CuDef*%
%ADD17R,1.700000X0.300000*%
%TD*%
%TA.AperFunction,SMDPad,CuDef*%
%ADD18R,0.280000X0.665000*%
%TD*%
%TA.AperFunction,SMDPad,CuDef*%
%ADD19R,2.475000X1.625000*%
%TD*%
%TA.AperFunction,SMDPad,CuDef*%
%ADD20RoundRect,0.050000X-0.350000X-0.050000X0.350000X-0.050000X0.350000X0.050000X-0.350000X0.050000X0*%
%TD*%
%TA.AperFunction,SMDPad,CuDef*%
%ADD21RoundRect,0.050000X-0.050000X-0.350000X0.050000X-0.350000X0.050000X0.350000X-0.050000X0.350000X0*%
%TD*%
%TA.AperFunction,HeatsinkPad*%
%ADD22R,3.400000X3.400000*%
%TD*%
%TA.AperFunction,SMDPad,CuDef*%
%ADD23R,1.000000X0.750000*%
%TD*%
%TA.AperFunction,SMDPad,CuDef*%
%ADD24RoundRect,0.250000X0.262500X0.450000X-0.262500X0.450000X-0.262500X-0.450000X0.262500X-0.450000X0*%
%TD*%
%TA.AperFunction,SMDPad,CuDef*%
%ADD25RoundRect,0.250000X-0.262500X-0.450000X0.262500X-0.450000X0.262500X0.450000X-0.262500X0.450000X0*%
%TD*%
%TA.AperFunction,SMDPad,CuDef*%
%ADD26RoundRect,0.250000X0.450000X-0.262500X0.450000X0.262500X-0.450000X0.262500X-0.450000X-0.262500X0*%
%TD*%
%TA.AperFunction,SMDPad,CuDef*%
%ADD27RoundRect,0.250000X-0.450000X0.262500X-0.450000X-0.262500X0.450000X-0.262500X0.450000X0.262500X0*%
%TD*%
%TA.AperFunction,SMDPad,CuDef*%
%ADD28RoundRect,0.100000X0.155000X0.100000X-0.155000X0.100000X-0.155000X-0.100000X0.155000X-0.100000X0*%
%TD*%
%TA.AperFunction,SMDPad,CuDef*%
%ADD29RoundRect,0.218750X0.218750X0.381250X-0.218750X0.381250X-0.218750X-0.381250X0.218750X-0.381250X0*%
%TD*%
%TA.AperFunction,SMDPad,CuDef*%
%ADD30RoundRect,0.243750X0.243750X0.456250X-0.243750X0.456250X-0.243750X-0.456250X0.243750X-0.456250X0*%
%TD*%
%TA.AperFunction,SMDPad,CuDef*%
%ADD31RoundRect,0.225000X0.375000X-0.225000X0.375000X0.225000X-0.375000X0.225000X-0.375000X-0.225000X0*%
%TD*%
%TA.AperFunction,SMDPad,CuDef*%
%ADD32RoundRect,0.250000X-0.250000X-0.475000X0.250000X-0.475000X0.250000X0.475000X-0.250000X0.475000X0*%
%TD*%
%TA.AperFunction,SMDPad,CuDef*%
%ADD33RoundRect,0.250000X0.475000X-0.250000X0.475000X0.250000X-0.475000X0.250000X-0.475000X-0.250000X0*%
%TD*%
%TA.AperFunction,SMDPad,CuDef*%
%ADD34RoundRect,0.150000X-0.512500X-0.150000X0.512500X-0.150000X0.512500X0.150000X-0.512500X0.150000X0*%
%TD*%
%TA.AperFunction,ComponentPad*%
%ADD35O,1.200000X2.200000*%
%TD*%
%TA.AperFunction,ComponentPad*%
%ADD36O,1.600000X2.300000*%
%TD*%
%TA.AperFunction,ComponentPad*%
%ADD37O,2.200000X1.200000*%
%TD*%
%TA.AperFunction,ComponentPad*%
%ADD38O,1.600000X2.500000*%
%TD*%
%TA.AperFunction,ComponentPad*%
%ADD39C,1.200000*%
%TD*%
%TA.AperFunction,ComponentPad*%
%ADD40O,1.400000X2.000000*%
%TD*%
%TA.AperFunction,ComponentPad*%
%ADD41O,1.300000X2.000000*%
%TD*%
%TA.AperFunction,SMDPad,CuDef*%
%ADD42R,0.762000X0.203200*%
%TD*%
%TA.AperFunction,SMDPad,CuDef*%
%ADD43R,0.203200X0.762000*%
%TD*%
%TA.AperFunction,SMDPad,CuDef*%
%ADD44R,3.606800X3.606800*%
%TD*%
%TA.AperFunction,ViaPad*%
%ADD45C,0.400000*%
%TD*%
%TA.AperFunction,ViaPad*%
%ADD46C,0.600000*%
%TD*%
%TA.AperFunction,Conductor*%
%ADD47C,0.200000*%
%TD*%
G04 APERTURE END LIST*
D10*
%TO.P,C24,2*%
%TO.N,GND*%
X33500000Y-52450000D03*
%TO.P,C24,1*%
%TO.N,Net-(U4-XIN)*%
X33500000Y-50550000D03*
%TD*%
D11*
%TO.P,J1,SH,SHIELD_SH*%
%TO.N,GND*%
X31966678Y-14613029D03*
D12*
X31966678Y-18793029D03*
D11*
X40606678Y-14613029D03*
D12*
X40606678Y-18793029D03*
D13*
%TO.P,J1,B12,GND_B12*%
X39486678Y-19368029D03*
%TO.P,J1,B9,VBUS_B9*%
%TO.N,Net-(D1-A)*%
X38686678Y-19368029D03*
D14*
%TO.P,J1,B8,SBU2_B8*%
%TO.N,unconnected-(J1-SBU2-PadB8)*%
X38036678Y-19368029D03*
%TO.P,J1,B7,D-_B7*%
%TO.N,Net-(J1-D--PadA7)*%
X37036678Y-19368029D03*
%TO.P,J1,B6,D+_B6*%
%TO.N,Net-(J1-D+-PadA6)*%
X35536678Y-19368029D03*
%TO.P,J1,B5,CC2_B5*%
%TO.N,Net-(J1-CC2)*%
X34536678Y-19368029D03*
D13*
%TO.P,J1,B4,VBUS_B4*%
%TO.N,Net-(D1-A)*%
X33886678Y-19368029D03*
%TO.P,J1,B1,GND_B1*%
%TO.N,GND*%
X33086678Y-19368029D03*
%TO.P,J1,A12,GND_A12*%
X33086678Y-19368029D03*
%TO.P,J1,A9,VBUS_A9*%
%TO.N,Net-(D1-A)*%
X33886678Y-19368029D03*
D14*
%TO.P,J1,A8,SBU1_A8*%
%TO.N,unconnected-(J1-SBU1-PadA8)*%
X35036678Y-19368029D03*
%TO.P,J1,A7,D-_A7*%
%TO.N,Net-(J1-D--PadA7)*%
X36036678Y-19368029D03*
%TO.P,J1,A6,D+_A6*%
%TO.N,Net-(J1-D+-PadA6)*%
X36536678Y-19368029D03*
%TO.P,J1,A5,CC1_A5*%
%TO.N,Net-(J1-CC1)*%
X37536678Y-19368029D03*
D13*
%TO.P,J1,A4,VBUS_A4*%
%TO.N,Net-(D1-A)*%
X38686678Y-19368029D03*
%TO.P,J1,A1,GND_A1*%
%TO.N,GND*%
X39486678Y-19368029D03*
%TD*%
D15*
%TO.P,U7,1,1_1*%
%TO.N,Net-(U4-XIN)*%
X35650000Y-50400000D03*
%TO.P,U7,2,GND_2*%
%TO.N,GND*%
X35650000Y-52600000D03*
%TO.P,U7,3,3_3*%
%TO.N,Net-(R15-Pad1)*%
X37350000Y-52600000D03*
%TO.P,U7,4,GND_4*%
%TO.N,GND*%
X37350000Y-50400000D03*
%TD*%
D16*
%TO.P,U6,1,/CS_1*%
%TO.N,Net-(U4-~{QSPI_SS})*%
X21250000Y-36510000D03*
%TO.P,U6,2,DO(IO1)_2*%
%TO.N,Net-(U4-QSPI_SD1)*%
X21750000Y-36510000D03*
%TO.P,U6,3,/WP(IO2)_3*%
%TO.N,Net-(U4-QSPI_SD2)*%
X22250000Y-36510000D03*
%TO.P,U6,4,VSS_4*%
%TO.N,GND*%
X22750000Y-36510000D03*
%TO.P,U6,8,VCC_8*%
%TO.N,+3V3*%
X21250000Y-33490000D03*
%TO.P,U6,7,/HOLDor/RESET(IO3)_7*%
%TO.N,Net-(U4-QSPI_SD3)*%
X21750000Y-33490000D03*
%TO.P,U6,6,CLK_6*%
%TO.N,Net-(U4-QSPI_SCLK)*%
X22250000Y-33490000D03*
%TO.P,U6,5,DI(IO0)_5*%
%TO.N,Net-(U4-QSPI_SD0)*%
X22750000Y-33490000D03*
D17*
%TO.P,U6,9,EP_9*%
%TO.N,unconnected-(U6-EP-Pad9)*%
X22000000Y-35000000D03*
%TD*%
D18*
%TO.P,U5,1,VOUT_1*%
%TO.N,+3V3*%
X37500000Y-28090000D03*
%TO.P,U5,2,LX2_2*%
%TO.N,Net-(U5-LX2)*%
X37000000Y-28090000D03*
%TO.P,U5,3,GND_3*%
%TO.N,GND*%
X36500000Y-28090000D03*
%TO.P,U5,4,LX1_4*%
%TO.N,Net-(U5-LX1)*%
X36000000Y-28090000D03*
%TO.P,U5,5,VIN_5*%
%TO.N,Net-(D1-K)*%
X35500000Y-28090000D03*
%TO.P,U5,6,EN_6*%
%TO.N,Net-(U5-EN)*%
X35500000Y-30910000D03*
%TO.P,U5,7,PS_7*%
%TO.N,Net-(U4-GPIO23)*%
X36000000Y-30910000D03*
%TO.P,U5,8,VINA_8*%
%TO.N,Net-(D1-K)*%
X36500000Y-30910000D03*
%TO.P,U5,9,GND_9*%
%TO.N,GND*%
X37000000Y-30910000D03*
%TO.P,U5,10,FB_10*%
%TO.N,+3V3*%
X37500000Y-30910000D03*
D19*
%TO.P,U5,11,EP_11*%
%TO.N,GND*%
X36500000Y-29500000D03*
%TD*%
D20*
%TO.P,U4,1,IOVDD_1*%
%TO.N,+3V3*%
X33050000Y-40070000D03*
%TO.P,U4,2,GPIO0_2*%
%TO.N,unconnected-(U4-GPIO0-Pad2)*%
X33050000Y-40470000D03*
%TO.P,U4,3,GPIO1_3*%
%TO.N,unconnected-(U4-GPIO1-Pad3)*%
X33050000Y-40870000D03*
%TO.P,U4,4,GPIO2_4*%
%TO.N,unconnected-(U4-GPIO2-Pad4)*%
X33050000Y-41270000D03*
%TO.P,U4,5,GPIO3_5*%
%TO.N,unconnected-(U4-GPIO3-Pad5)*%
X33050000Y-41670000D03*
%TO.P,U4,6,DVDD_6*%
%TO.N,+1V1*%
X33050000Y-42070000D03*
%TO.P,U4,7,GPIO4_7*%
%TO.N,unconnected-(U4-GPIO4-Pad7)*%
X33050000Y-42470000D03*
%TO.P,U4,8,GPIO5_8*%
%TO.N,unconnected-(U4-GPIO5-Pad8)*%
X33050000Y-42870000D03*
%TO.P,U4,9,GPIO6_9*%
%TO.N,unconnected-(U4-GPIO6-Pad9)*%
X33050000Y-43270000D03*
%TO.P,U4,10,GPIO7_10*%
%TO.N,unconnected-(U4-GPIO7-Pad10)*%
X33050000Y-43670000D03*
%TO.P,U4,11,IOVDD_11*%
%TO.N,+3V3*%
X33050000Y-44070000D03*
%TO.P,U4,12,GPIO8_12*%
%TO.N,unconnected-(U4-GPIO8-Pad12)*%
X33050000Y-44470000D03*
%TO.P,U4,13,GPIO9_13*%
%TO.N,unconnected-(U4-GPIO9-Pad13)*%
X33050000Y-44870000D03*
%TO.P,U4,14,GPIO10_14*%
%TO.N,unconnected-(U4-GPIO10-Pad14)*%
X33050000Y-45270000D03*
%TO.P,U4,15,GPIO11_15*%
%TO.N,Net-(CN1-DET)*%
X33050000Y-45670000D03*
D21*
%TO.P,U4,16,GPIO12_16*%
%TO.N,unconnected-(U4-GPIO12-Pad16)*%
X33700000Y-46320000D03*
%TO.P,U4,17,GPIO13_17*%
%TO.N,Net-(U1-XTI{slash}MCLK)*%
X34100000Y-46320000D03*
%TO.P,U4,18,GPIO14_18*%
%TO.N,Net-(U1-SCLK1)*%
X34500000Y-46320000D03*
%TO.P,U4,19,GPIO15_19*%
%TO.N,Net-(U1-LRCK1)*%
X34900000Y-46320000D03*
%TO.P,U4,20,IOVDD_20*%
%TO.N,+3V3*%
X35300000Y-46320000D03*
%TO.P,U4,21,XIN_21*%
%TO.N,Net-(U4-XIN)*%
X35700000Y-46320000D03*
%TO.P,U4,22,XOUT_22*%
%TO.N,Net-(U4-XOUT)*%
X36100000Y-46320000D03*
%TO.P,U4,23,DVDD_23*%
%TO.N,+1V1*%
X36500000Y-46320000D03*
%TO.P,U4,24,SWCLK_24*%
%TO.N,unconnected-(U4-SWCLK-Pad24)*%
X36900000Y-46320000D03*
%TO.P,U4,25,SWDIO_25*%
%TO.N,unconnected-(U4-SWDIO-Pad25)*%
X37300000Y-46320000D03*
%TO.P,U4,26,RUN_26*%
%TO.N,unconnected-(U4-RUN-Pad26)*%
X37700000Y-46320000D03*
%TO.P,U4,27,GPIO16_27*%
%TO.N,unconnected-(U4-GPIO16-Pad27)*%
X38100000Y-46320000D03*
%TO.P,U4,28,GPIO17_28*%
%TO.N,Net-(U1-\u002AINT)*%
X38500000Y-46320000D03*
%TO.P,U4,29,GPIO18_29*%
%TO.N,Net-(U1-\u002ARESET)*%
X38900000Y-46320000D03*
%TO.P,U4,30,IOVDD_30*%
%TO.N,+3V3*%
X39300000Y-46320000D03*
D20*
%TO.P,U4,31,GPIO19_31*%
%TO.N,unconnected-(U4-GPIO19-Pad31)*%
X39950000Y-45670000D03*
%TO.P,U4,32,GPIO20_32*%
%TO.N,Net-(U1-SDA)*%
X39950000Y-45270000D03*
%TO.P,U4,33,GPIO21_33*%
%TO.N,Net-(U1-SCL)*%
X39950000Y-44870000D03*
%TO.P,U4,34,GPIO22_34*%
%TO.N,unconnected-(U4-GPIO22-Pad34)*%
X39950000Y-44470000D03*
%TO.P,U4,35,GPIO23_35*%
%TO.N,Net-(U4-GPIO23)*%
X39950000Y-44070000D03*
%TO.P,U4,36,GPIO24_36*%
%TO.N,Net-(U4-GPIO24)*%
X39950000Y-43670000D03*
%TO.P,U4,37,GPIO25_37*%
%TO.N,Net-(U4-GPIO25)*%
X39950000Y-43270000D03*
%TO.P,U4,38,IOVDD_38*%
%TO.N,+3V3*%
X39950000Y-42870000D03*
%TO.P,U4,39,DVDD_39*%
%TO.N,+1V1*%
X39950000Y-42470000D03*
%TO.P,U4,40,GPIO26/ADC0_40*%
%TO.N,unconnected-(U4-GPIO26{slash}ADC0-Pad40)*%
X39950000Y-42070000D03*
%TO.P,U4,41,GPIO27/ADC1_41*%
%TO.N,unconnected-(U4-GPIO27{slash}ADC1-Pad41)*%
X39950000Y-41670000D03*
%TO.P,U4,42,GPIO28/ADC2_42*%
%TO.N,unconnected-(U4-GPIO28{slash}ADC2-Pad42)*%
X39950000Y-41270000D03*
%TO.P,U4,43,GPIO29/ADC3_43*%
%TO.N,Net-(Q1-S)*%
X39950000Y-40870000D03*
%TO.P,U4,44,ADC_AVDD_44*%
%TO.N,Net-(U4-ADC_AVDD)*%
X39950000Y-40470000D03*
%TO.P,U4,45,IOVDD_45*%
%TO.N,+3V3*%
X39950000Y-40070000D03*
D21*
%TO.P,U4,46,VREG_AVDD_46*%
%TO.N,Net-(U4-VREG_AVDD)*%
X39300000Y-39420000D03*
%TO.P,U4,47,VREG_PGND_47*%
%TO.N,GND*%
X38900000Y-39420000D03*
%TO.P,U4,48,VREG_LX_48*%
%TO.N,Net-(U4-VREG_LX)*%
X38500000Y-39420000D03*
%TO.P,U4,49,VREG_VIN_49*%
%TO.N,+3V3*%
X38100000Y-39420000D03*
%TO.P,U4,50,VREG_FB_50*%
%TO.N,+1V1*%
X37700000Y-39420000D03*
%TO.P,U4,51,USB_DM_51*%
%TO.N,Net-(U4-USB_DM)*%
X37300000Y-39420000D03*
%TO.P,U4,52,USB_DP_52*%
%TO.N,Net-(U4-USB_DP)*%
X36900000Y-39420000D03*
%TO.P,U4,53,USB_OTP_VDD_53*%
%TO.N,+3V3*%
X36500000Y-39420000D03*
%TO.P,U4,54,QSPI_IOVDD_54*%
X36100000Y-39420000D03*
%TO.P,U4,55,QSPI_SD3_55*%
%TO.N,Net-(U4-QSPI_SD3)*%
X35700000Y-39420000D03*
%TO.P,U4,56,QSPI_SCLK_56*%
%TO.N,Net-(U4-QSPI_SCLK)*%
X35300000Y-39420000D03*
%TO.P,U4,57,QSPI_SD0_57*%
%TO.N,Net-(U4-QSPI_SD0)*%
X34900000Y-39420000D03*
%TO.P,U4,58,QSPI_SD2_58*%
%TO.N,Net-(U4-QSPI_SD2)*%
X34500000Y-39420000D03*
%TO.P,U4,59,QSPI_SD1_59*%
%TO.N,Net-(U4-QSPI_SD1)*%
X34100000Y-39420000D03*
%TO.P,U4,60,~{QSPI_SS}_60*%
%TO.N,Net-(U4-~{QSPI_SS})*%
X33700000Y-39420000D03*
D22*
%TO.P,U4,61,GND_61*%
%TO.N,GND*%
X36500000Y-42870000D03*
%TD*%
D23*
%TO.P,SW1,1,A_1*%
%TO.N,Net-(SW1-A)*%
X25000000Y-28350000D03*
%TO.P,SW1,2,B_2*%
X19000000Y-28350000D03*
%TO.P,SW1,3,C_3*%
%TO.N,GND*%
X25000000Y-24650000D03*
%TO.P,SW1,4,D_4*%
X19000000Y-24650000D03*
%TD*%
D24*
%TO.P,R17,1*%
%TO.N,+3V3*%
X47912500Y-37500000D03*
%TO.P,R17,2*%
%TO.N,Net-(U4-VREG_AVDD)*%
X46087500Y-37500000D03*
%TD*%
D25*
%TO.P,R16,1*%
%TO.N,+3V3*%
X41087500Y-48000000D03*
%TO.P,R16,2*%
%TO.N,Net-(U4-ADC_AVDD)*%
X42912500Y-48000000D03*
%TD*%
D26*
%TO.P,R15,1*%
%TO.N,Net-(R15-Pad1)*%
X40000000Y-52412500D03*
%TO.P,R15,2*%
%TO.N,Net-(U4-XOUT)*%
X40000000Y-50587500D03*
%TD*%
D25*
%TO.P,R14,1*%
%TO.N,Net-(U4-GPIO25)*%
X45087500Y-47000000D03*
%TO.P,R14,2*%
%TO.N,Net-(D2-A)*%
X46912500Y-47000000D03*
%TD*%
%TO.P,R13,1*%
%TO.N,Net-(D1-K)*%
X49087500Y-35500000D03*
%TO.P,R13,2*%
%TO.N,Net-(Q1-D)*%
X50912500Y-35500000D03*
%TD*%
D27*
%TO.P,R12,1*%
%TO.N,Net-(Q1-D)*%
X53000000Y-39087500D03*
%TO.P,R12,2*%
%TO.N,GND*%
X53000000Y-40912500D03*
%TD*%
%TO.P,R11,1*%
%TO.N,Net-(Q1-S)*%
X49500000Y-41087500D03*
%TO.P,R11,2*%
%TO.N,GND*%
X49500000Y-42912500D03*
%TD*%
D26*
%TO.P,R10,1*%
%TO.N,Net-(U4-~{QSPI_SS})*%
X19000000Y-34412500D03*
%TO.P,R10,2*%
%TO.N,Net-(SW1-A)*%
X19000000Y-32587500D03*
%TD*%
D27*
%TO.P,R9,1*%
%TO.N,+3V3*%
X27000000Y-37587500D03*
%TO.P,R9,2*%
%TO.N,Net-(U4-~{QSPI_SS})*%
X27000000Y-39412500D03*
%TD*%
D24*
%TO.P,R8,1*%
%TO.N,Net-(J1-CC2)*%
X32912500Y-22500000D03*
%TO.P,R8,2*%
%TO.N,GND*%
X31087500Y-22500000D03*
%TD*%
%TO.P,R7,1*%
%TO.N,GND*%
X39412500Y-22500000D03*
%TO.P,R7,2*%
%TO.N,Net-(J1-CC1)*%
X37587500Y-22500000D03*
%TD*%
D26*
%TO.P,R6,1*%
%TO.N,Net-(U4-USB_DP)*%
X41000000Y-27412500D03*
%TO.P,R6,2*%
%TO.N,Net-(J1-D+-PadA6)*%
X41000000Y-25587500D03*
%TD*%
%TO.P,R5,1*%
%TO.N,Net-(U4-USB_DM)*%
X44000000Y-27412500D03*
%TO.P,R5,2*%
%TO.N,Net-(J1-D--PadA7)*%
X44000000Y-25587500D03*
%TD*%
D24*
%TO.P,R4,1*%
%TO.N,GND*%
X39912500Y-32500000D03*
%TO.P,R4,2*%
%TO.N,Net-(U4-GPIO23)*%
X38087500Y-32500000D03*
%TD*%
D25*
%TO.P,R3,1*%
%TO.N,Net-(D1-K)*%
X31500000Y-35000000D03*
%TO.P,R3,2*%
%TO.N,Net-(U5-EN)*%
X33325000Y-35000000D03*
%TD*%
%TO.P,R2,1*%
%TO.N,Net-(U4-GPIO24)*%
X45087500Y-43912500D03*
%TO.P,R2,2*%
%TO.N,GND*%
X46912500Y-43912500D03*
%TD*%
%TO.P,R1,1*%
%TO.N,Net-(D1-A)*%
X45087500Y-40962500D03*
%TO.P,R1,2*%
%TO.N,Net-(U4-GPIO24)*%
X46912500Y-40962500D03*
%TD*%
D28*
%TO.P,Q1,1,G_1*%
%TO.N,+3V3*%
X49355000Y-38500000D03*
%TO.P,Q1,2,S_2*%
%TO.N,Net-(Q1-S)*%
X49355000Y-39500000D03*
%TO.P,Q1,3,D_3*%
%TO.N,Net-(Q1-D)*%
X50645000Y-39000000D03*
%TD*%
D29*
%TO.P,L2,1,1_1*%
%TO.N,+1V1*%
X44062500Y-34500000D03*
%TO.P,L2,2,2_2*%
%TO.N,Net-(U4-VREG_LX)*%
X41937500Y-34500000D03*
%TD*%
%TO.P,L1,1,1_1*%
%TO.N,Net-(U5-LX1)*%
X33562500Y-28000000D03*
%TO.P,L1,2,2_2*%
%TO.N,Net-(U5-LX2)*%
X31437500Y-28000000D03*
%TD*%
D30*
%TO.P,D2,1,K_1*%
%TO.N,GND*%
X51437500Y-47000000D03*
%TO.P,D2,2,A_2*%
%TO.N,Net-(D2-A)*%
X49562500Y-47000000D03*
%TD*%
D31*
%TO.P,D1,1,K_1*%
%TO.N,Net-(D1-K)*%
X35500000Y-26150000D03*
%TO.P,D1,2,A_2*%
%TO.N,Net-(D1-A)*%
X35500000Y-22850000D03*
%TD*%
D32*
%TO.P,C32,1*%
%TO.N,+1V1*%
X44050000Y-32500000D03*
%TO.P,C32,2*%
%TO.N,GND*%
X45950000Y-32500000D03*
%TD*%
D33*
%TO.P,C31,1*%
%TO.N,+3V3*%
X36000000Y-35950000D03*
%TO.P,C31,2*%
%TO.N,GND*%
X36000000Y-34050000D03*
%TD*%
D32*
%TO.P,C30,1*%
%TO.N,Net-(U4-VREG_AVDD)*%
X49550000Y-31500000D03*
%TO.P,C30,2*%
%TO.N,GND*%
X51450000Y-31500000D03*
%TD*%
%TO.P,C29,1*%
%TO.N,Net-(U4-ADC_AVDD)*%
X45550000Y-50500000D03*
%TO.P,C29,2*%
%TO.N,GND*%
X47450000Y-50500000D03*
%TD*%
%TO.P,C28,1*%
%TO.N,GND*%
X29050000Y-44000000D03*
%TO.P,C28,2*%
%TO.N,+3V3*%
X30950000Y-44000000D03*
%TD*%
%TO.P,C27,1*%
%TO.N,GND*%
X41050000Y-38000000D03*
%TO.P,C27,2*%
%TO.N,+1V1*%
X42950000Y-38000000D03*
%TD*%
%TO.P,C26,1*%
%TO.N,GND*%
X29000000Y-41500000D03*
%TO.P,C26,2*%
%TO.N,+3V3*%
X30900000Y-41500000D03*
%TD*%
D10*
%TO.P,C25,1*%
%TO.N,Net-(U4-XOUT)*%
X42000000Y-50550000D03*
%TO.P,C25,2*%
%TO.N,GND*%
X42000000Y-52450000D03*
%TD*%
%TO.P,C23,1*%
%TO.N,Net-(Q1-D)*%
X56500000Y-39100000D03*
%TO.P,C23,2*%
%TO.N,GND*%
X56500000Y-41000000D03*
%TD*%
D33*
%TO.P,C22,1*%
%TO.N,+3V3*%
X29010000Y-32450000D03*
%TO.P,C22,2*%
%TO.N,GND*%
X29010000Y-30550000D03*
%TD*%
%TO.P,C21,1*%
%TO.N,+3V3*%
X26000000Y-32450000D03*
%TO.P,C21,2*%
%TO.N,GND*%
X26000000Y-30550000D03*
%TD*%
D10*
%TO.P,C20,1*%
%TO.N,Net-(D1-K)*%
X32500000Y-31050000D03*
%TO.P,C20,2*%
%TO.N,GND*%
X32500000Y-32950000D03*
%TD*%
%TO.P,C19,1*%
%TO.N,GND*%
X39000000Y-26550000D03*
%TO.P,C19,2*%
%TO.N,+3V3*%
X39000000Y-28450000D03*
%TD*%
D32*
%TO.P,C5,1*%
%TO.N,GND*%
X28990000Y-62702500D03*
%TO.P,C5,2*%
%TO.N,Net-(U1-VA)*%
X30890000Y-62702500D03*
%TD*%
D10*
%TO.P,C18,1*%
%TO.N,Net-(U1-VA)*%
X61500000Y-25100000D03*
%TO.P,C18,2*%
%TO.N,GND*%
X61500000Y-27000000D03*
%TD*%
%TO.P,C15,1*%
%TO.N,Net-(D1-A)*%
X52440000Y-15752500D03*
%TO.P,C15,2*%
%TO.N,GND*%
X52440000Y-17652500D03*
%TD*%
D32*
%TO.P,C3,1*%
%TO.N,Net-(U1-FLYP_VA)*%
X30990000Y-70202500D03*
%TO.P,C3,2*%
%TO.N,Net-(U1-FLYN_VA)*%
X32890000Y-70202500D03*
%TD*%
%TO.P,C10,1*%
%TO.N,Net-(U1-VA)*%
X43440000Y-69202500D03*
%TO.P,C10,2*%
%TO.N,GND*%
X45340000Y-69202500D03*
%TD*%
D34*
%TO.P,U2,1,IN_1*%
%TO.N,Net-(D1-A)*%
X55862500Y-16050000D03*
%TO.P,U2,2,GND_2*%
%TO.N,GND*%
X55862500Y-17000000D03*
%TO.P,U2,3,EN_3*%
%TO.N,Net-(D1-A)*%
X55862500Y-17950000D03*
%TO.P,U2,4,NC_4*%
%TO.N,unconnected-(U2-NC-Pad4)*%
X58137500Y-17950000D03*
%TO.P,U2,5,OUT_5*%
%TO.N,Net-(U1-VP)*%
X58137500Y-16050000D03*
%TD*%
D32*
%TO.P,C11,1*%
%TO.N,Net-(U1-VCP_FILT+)*%
X43440000Y-72702500D03*
%TO.P,C11,2*%
%TO.N,GND*%
X45340000Y-72702500D03*
%TD*%
D10*
%TO.P,C16,1*%
%TO.N,Net-(U1-VP)*%
X61500000Y-16050000D03*
%TO.P,C16,2*%
%TO.N,GND*%
X61500000Y-17950000D03*
%TD*%
D32*
%TO.P,C12,1*%
%TO.N,Net-(U1-VCP_FILT-)*%
X36440000Y-74702500D03*
%TO.P,C12,2*%
%TO.N,GND*%
X38340000Y-74702500D03*
%TD*%
D33*
%TO.P,C1,1*%
%TO.N,Net-(U1-VP)*%
X43880000Y-67202500D03*
%TO.P,C1,2*%
%TO.N,GND*%
X43880000Y-65302500D03*
%TD*%
D10*
%TO.P,C14,1*%
%TO.N,Net-(U1-FLYP_VCP)*%
X40890000Y-68752500D03*
%TO.P,C14,2*%
%TO.N,Net-(U1-FLYC_VCP)*%
X40890000Y-70652500D03*
%TD*%
D35*
%TO.P,J3,R*%
%TO.N,Net-(U1-HPOUTB)*%
X38500000Y-91000000D03*
D36*
%TO.P,J3,RN*%
%TO.N,unconnected-(J3-PadRN)*%
X41000000Y-91000000D03*
D37*
%TO.P,J3,S*%
%TO.N,GND*%
X43500000Y-96000000D03*
D35*
%TO.P,J3,T*%
%TO.N,Net-(U1-HPOUTA)*%
X48500000Y-91000000D03*
D38*
%TO.P,J3,TN*%
%TO.N,unconnected-(J3-PadTN)*%
X46000000Y-91000000D03*
%TD*%
D34*
%TO.P,U3,1,IN_1*%
%TO.N,Net-(D1-A)*%
X55362500Y-25050000D03*
%TO.P,U3,2,GND_2*%
%TO.N,GND*%
X55362500Y-26000000D03*
%TO.P,U3,3,EN_3*%
%TO.N,Net-(D1-A)*%
X55362500Y-26950000D03*
%TO.P,U3,4,NC_4*%
%TO.N,unconnected-(U3-NC-Pad4)*%
X57637500Y-26950000D03*
%TO.P,U3,5,OUT_5*%
%TO.N,Net-(U1-VA)*%
X57637500Y-25050000D03*
%TD*%
D32*
%TO.P,C9,1*%
%TO.N,GND*%
X25490000Y-64202500D03*
%TO.P,C9,2*%
%TO.N,Net-(U1-VA)*%
X27390000Y-64202500D03*
%TD*%
%TO.P,C7,1*%
%TO.N,Net-(U1-FILT-)*%
X26990000Y-70702500D03*
%TO.P,C7,2*%
%TO.N,Net-(U1--VA)*%
X28890000Y-70702500D03*
%TD*%
%TO.P,C4,1*%
%TO.N,+3V3*%
X38440000Y-60702500D03*
%TO.P,C4,2*%
%TO.N,GND*%
X40340000Y-60702500D03*
%TD*%
D33*
%TO.P,C2,1*%
%TO.N,Net-(U1-VP)*%
X46890000Y-67202500D03*
%TO.P,C2,2*%
%TO.N,GND*%
X46890000Y-65302500D03*
%TD*%
D32*
%TO.P,C8,1*%
%TO.N,GND*%
X26940000Y-73202500D03*
%TO.P,C8,2*%
%TO.N,Net-(U1--VA)*%
X28840000Y-73202500D03*
%TD*%
D39*
%TO.P,CN1,*%
%TO.N,*%
X25250000Y-94302500D03*
X23700000Y-86802500D03*
D40*
%TO.P,CN1,1,GND_1*%
%TO.N,GND*%
X22000000Y-97702500D03*
%TO.P,CN1,2,R-_2*%
%TO.N,Net-(U1-HPREFB)*%
X28500000Y-97202500D03*
%TO.P,CN1,3,R-_3*%
X22000000Y-95002500D03*
%TO.P,CN1,4,R+_4*%
%TO.N,Net-(U1-HPOUTB)*%
X28500000Y-94502500D03*
%TO.P,CN1,5,R+_5*%
X22000000Y-92302500D03*
%TO.P,CN1,6,L-_6*%
%TO.N,Net-(CN1-L-)*%
X28500000Y-91802500D03*
D41*
%TO.P,CN1,7,L+_7*%
%TO.N,Net-(U1-HPOUTA)*%
X21800000Y-83802500D03*
%TO.P,CN1,8,L+_8*%
X28700000Y-83802500D03*
%TO.P,CN1,9,SW_9*%
%TO.N,GND*%
X26850000Y-83802500D03*
%TO.P,CN1,10,DET_10*%
%TO.N,Net-(CN1-DET)*%
X23300000Y-83802500D03*
D40*
%TO.P,CN1,11,ep_11*%
%TO.N,GND*%
X21200000Y-88552500D03*
%TO.P,CN1,12,ep_12*%
X29300000Y-88552500D03*
%TD*%
D33*
%TO.P,C6,1*%
%TO.N,Net-(U1-VA)*%
X27890000Y-68102500D03*
%TO.P,C6,2*%
%TO.N,Net-(U1-FILT+)*%
X27890000Y-66202500D03*
%TD*%
D10*
%TO.P,C17,1*%
%TO.N,Net-(D1-A)*%
X51890000Y-25252500D03*
%TO.P,C17,2*%
%TO.N,GND*%
X51890000Y-27152500D03*
%TD*%
D42*
%TO.P,U1,1,SCL_1*%
%TO.N,Net-(U1-SCL)*%
X33464300Y-64402501D03*
%TO.P,U1,2,SDIN1_2*%
%TO.N,unconnected-(U1-SDIN1-Pad2)*%
X33464300Y-64802500D03*
%TO.P,U1,3,TSO_3*%
%TO.N,unconnected-(U1-TSO-Pad3)*%
X33464300Y-65202499D03*
%TO.P,U1,4,VD_4*%
%TO.N,Net-(U1-VA)*%
X33464300Y-65602501D03*
%TO.P,U1,5,FILT+_5*%
%TO.N,Net-(U1-FILT+)*%
X33464300Y-66002500D03*
%TO.P,U1,6,FILT-_6*%
%TO.N,Net-(U1-FILT-)*%
X33464300Y-66402500D03*
%TO.P,U1,7,VA_7*%
%TO.N,Net-(U1-VA)*%
X33464300Y-66802499D03*
%TO.P,U1,8,GNDA_8*%
%TO.N,GND*%
X33464300Y-67202501D03*
%TO.P,U1,9,-VA_9*%
%TO.N,Net-(U1--VA)*%
X33464300Y-67602500D03*
%TO.P,U1,10,FLYP_VA_10*%
%TO.N,Net-(U1-FLYP_VA)*%
X33464300Y-68002499D03*
D43*
%TO.P,U1,11,FLYN_VA_11*%
%TO.N,Net-(U1-FLYN_VA)*%
X34090001Y-68628200D03*
%TO.P,U1,12,HPINA_12*%
%TO.N,unconnected-(U1-HPINA-Pad12)*%
X34490000Y-68628200D03*
%TO.P,U1,13,HPREFA_13*%
%TO.N,Net-(CN1-L-)*%
X34889999Y-68628200D03*
%TO.P,U1,14,HPOUTA_14*%
%TO.N,Net-(U1-HPOUTA)*%
X35290001Y-68628200D03*
%TO.P,U1,15,HPINB_15*%
%TO.N,unconnected-(U1-HPINB-Pad15)*%
X35690000Y-68628200D03*
%TO.P,U1,16,HPOUTB_16*%
%TO.N,Net-(U1-HPOUTB)*%
X36090000Y-68628200D03*
%TO.P,U1,17,HPREFB_17*%
%TO.N,Net-(U1-HPREFB)*%
X36489999Y-68628200D03*
%TO.P,U1,18,VCP_FILT-_18*%
%TO.N,Net-(U1-VCP_FILT-)*%
X36890001Y-68628200D03*
%TO.P,U1,19,GNDCP_19*%
%TO.N,GND*%
X37290000Y-68628200D03*
%TO.P,U1,20,FLYN_VCP_20*%
%TO.N,Net-(U1-FLYN_VCP)*%
X37689999Y-68628200D03*
D42*
%TO.P,U1,21,VCP_FILT+_21*%
%TO.N,Net-(U1-VCP_FILT+)*%
X38315700Y-68002499D03*
%TO.P,U1,22,HP_DETECT_22*%
%TO.N,GND*%
X38315700Y-67602500D03*
%TO.P,U1,23,FLYC_VCP_23*%
%TO.N,Net-(U1-FLYC_VCP)*%
X38315700Y-67202501D03*
%TO.P,U1,24,FLYP_VCP_24*%
%TO.N,Net-(U1-FLYP_VCP)*%
X38315700Y-66802499D03*
%TO.P,U1,25,VCP_25*%
%TO.N,Net-(U1-VA)*%
X38315700Y-66402500D03*
%TO.P,U1,26,VP_26*%
%TO.N,Net-(U1-VP)*%
X38315700Y-66002500D03*
%TO.P,U1,27,\u002AINT_27*%
%TO.N,Net-(U1-\u002AINT)*%
X38315700Y-65602501D03*
%TO.P,U1,28,\u002ARESET_28*%
%TO.N,Net-(U1-\u002ARESET)*%
X38315700Y-65202499D03*
%TO.P,U1,29,DSDB/LRCK2_29*%
%TO.N,unconnected-(U1-DSDB{slash}LRCK2-Pad29)*%
X38315700Y-64802500D03*
%TO.P,U1,30,ADR_30*%
%TO.N,GND*%
X38315700Y-64402501D03*
D43*
%TO.P,U1,31,VL_31*%
%TO.N,+3V3*%
X37689999Y-63776800D03*
%TO.P,U1,32,DSDCLK/SCLK2_32*%
%TO.N,unconnected-(U1-DSDCLK{slash}SCLK2-Pad32)*%
X37290000Y-63776800D03*
%TO.P,U1,33,CLKOUT_33*%
%TO.N,unconnected-(U1-CLKOUT-Pad33)*%
X36890001Y-63776800D03*
%TO.P,U1,34,SCLK1_34*%
%TO.N,Net-(U1-SCLK1)*%
X36489999Y-63776800D03*
%TO.P,U1,35,GNDD_35*%
%TO.N,GND*%
X36090000Y-63776800D03*
%TO.P,U1,36,XTO_36*%
X35690000Y-63776800D03*
%TO.P,U1,37,XTI/MCLK_37*%
%TO.N,Net-(U1-XTI{slash}MCLK)*%
X35290001Y-63776800D03*
%TO.P,U1,38,LRCK1_38*%
%TO.N,Net-(U1-LRCK1)*%
X34889999Y-63776800D03*
%TO.P,U1,39,SDA_39*%
%TO.N,Net-(U1-SDA)*%
X34490000Y-63776800D03*
%TO.P,U1,40,DSDA/SDIN2_40*%
%TO.N,unconnected-(U1-DSDA{slash}SDIN2-Pad40)*%
X34090001Y-63776800D03*
D44*
%TO.P,U1,41,EPAD_41*%
%TO.N,unconnected-(U1-EPAD-Pad41)*%
X35890000Y-66202500D03*
%TD*%
D32*
%TO.P,C13,1*%
%TO.N,Net-(U1-FLYN_VCP)*%
X39440000Y-72702500D03*
%TO.P,C13,2*%
%TO.N,Net-(U1-FLYC_VCP)*%
X41340000Y-72702500D03*
%TD*%
D45*
%TO.N,+3V3*%
X40293750Y-47206250D03*
X38500000Y-53500000D03*
%TO.N,Net-(U1-\u002AINT)*%
X40000000Y-65500000D03*
X40500000Y-62500000D03*
X40000000Y-56500000D03*
X39500000Y-49000000D03*
%TO.N,Net-(U1-SCL)*%
X42000000Y-45000000D03*
%TO.N,Net-(U1-SDA)*%
X41500000Y-45500000D03*
%TO.N,Net-(U1-XTI{slash}MCLK)*%
X35500000Y-62000000D03*
X33500000Y-62000000D03*
%TO.N,Net-(U1-SCLK1)*%
X36000000Y-61500000D03*
X33000000Y-61500000D03*
%TO.N,Net-(U4-VREG_AVDD)*%
X46000000Y-39000000D03*
X42500000Y-36500000D03*
%TO.N,GND*%
X47500000Y-50500000D03*
%TO.N,Net-(U4-ADC_AVDD)*%
X42912500Y-48000000D03*
X42500000Y-42500000D03*
X41500000Y-40000000D03*
X41500000Y-41500000D03*
%TO.N,+3V3*%
X41000000Y-39500000D03*
%TO.N,+1V1*%
X43000000Y-39500000D03*
%TO.N,GND*%
X37500000Y-34000000D03*
X28500000Y-40000000D03*
%TO.N,+3V3*%
X31500000Y-40000000D03*
X38000000Y-45500000D03*
X35500000Y-45000000D03*
%TO.N,+1V1*%
X38000000Y-40500000D03*
X41000000Y-42500000D03*
%TO.N,+3V3*%
X36000000Y-38500000D03*
X38000000Y-38500000D03*
%TO.N,GND*%
X37500000Y-49000000D03*
%TO.N,Net-(U4-GPIO25)*%
X43000000Y-43000000D03*
X44000000Y-46000000D03*
%TO.N,GND*%
X39000000Y-38000000D03*
%TO.N,Net-(D1-K)*%
X47500000Y-35500000D03*
%TO.N,+3V3*%
X47000000Y-38500000D03*
%TO.N,Net-(Q1-S)*%
X44500000Y-39000000D03*
X48500000Y-39500000D03*
%TO.N,+3V3*%
X21500000Y-32500000D03*
%TO.N,GND*%
X23000000Y-37000000D03*
%TO.N,+3V3*%
X37100003Y-32000000D03*
X28500000Y-37500000D03*
%TO.N,GND*%
X37750000Y-26250000D03*
%TO.N,Net-(U4-GPIO23)*%
X38500000Y-34000000D03*
X44000000Y-44500000D03*
%TO.N,GND*%
X39500000Y-31000000D03*
%TO.N,Net-(D1-K)*%
X36500000Y-32000000D03*
%TO.N,GND*%
X32500000Y-32000000D03*
%TO.N,Net-(D1-K)*%
X34500000Y-28500000D03*
X35500000Y-26150000D03*
%TO.N,GND*%
X36500000Y-27500000D03*
%TO.N,Net-(J1-D--PadA7)*%
X43000000Y-24500000D03*
X37000000Y-20500000D03*
%TO.N,Net-(J1-CC2)*%
X34500000Y-20500000D03*
X33000000Y-21500000D03*
%TO.N,GND*%
X48000000Y-43962500D03*
X39500000Y-20500000D03*
X25890000Y-72702500D03*
X40890000Y-59202500D03*
X39390000Y-75702500D03*
X46390000Y-69202500D03*
D46*
X50890000Y-17702500D03*
D45*
X46890000Y-64202500D03*
X60000000Y-18000000D03*
X39390000Y-67702500D03*
X35890000Y-62702500D03*
X31390000Y-67202500D03*
X28390000Y-62702500D03*
X25890000Y-62702500D03*
X39390000Y-63702500D03*
D46*
X49890000Y-26702500D03*
D45*
X60000000Y-27000000D03*
%TO.N,Net-(U1-VA)*%
X32390000Y-66702500D03*
X28890000Y-68202500D03*
X40390000Y-66702500D03*
X31390000Y-64702500D03*
X59000000Y-25500000D03*
%TO.N,Net-(U1-VCP_FILT+)*%
X38890000Y-69702500D03*
X43390000Y-74202500D03*
%TO.N,Net-(U1-HPOUTB)*%
X36000000Y-70000000D03*
%TO.N,Net-(U1-HPOUTA)*%
X35390000Y-69702500D03*
%TO.N,Net-(U1-SDA)*%
X34390000Y-62702500D03*
%TO.N,Net-(U1-SCL)*%
X32390000Y-63702500D03*
%TO.N,Net-(U1-HPREFB)*%
X30390000Y-73202500D03*
%TO.N,Net-(CN1-L-)*%
X34296250Y-71796250D03*
%TD*%
%TO.N,+3V3*%
D47*
X38440000Y-53560000D02*
X38500000Y-53500000D01*
X38440000Y-60702500D02*
X38440000Y-53560000D01*
%TO.N,Net-(U1-\u002AINT)*%
X39897499Y-65602501D02*
X38315700Y-65602501D01*
X40000000Y-65500000D02*
X39897499Y-65602501D01*
X41390000Y-57890000D02*
X41390000Y-61610000D01*
X40000000Y-56500000D02*
X41390000Y-57890000D01*
X38500000Y-46320000D02*
X38500000Y-48000000D01*
X41390000Y-61610000D02*
X40500000Y-62500000D01*
X38500000Y-48000000D02*
X39500000Y-49000000D01*
%TO.N,Net-(U1-\u002ARESET)*%
X40731676Y-49000000D02*
X38900000Y-47168324D01*
X41818324Y-49000000D02*
X40731676Y-49000000D01*
X38900000Y-47168324D02*
X38900000Y-46320000D01*
X42925000Y-50106676D02*
X41818324Y-49000000D01*
X42925000Y-61075000D02*
X42925000Y-50106676D01*
X38797501Y-65202499D02*
X42925000Y-61075000D01*
X38315700Y-65202499D02*
X38797501Y-65202499D01*
%TO.N,Net-(U1-SCL)*%
X41870000Y-44870000D02*
X42000000Y-45000000D01*
X39950000Y-44870000D02*
X41870000Y-44870000D01*
%TO.N,Net-(U1-SDA)*%
X41270000Y-45270000D02*
X41500000Y-45500000D01*
X39950000Y-45270000D02*
X41270000Y-45270000D01*
%TO.N,Net-(U1-XTI{slash}MCLK)*%
X35290001Y-62209999D02*
X35290001Y-63776800D01*
X35500000Y-62000000D02*
X35290001Y-62209999D01*
X34100000Y-47733148D02*
X31975000Y-49858148D01*
X31975000Y-61182107D02*
X32792893Y-62000000D01*
X32792893Y-62000000D02*
X33500000Y-62000000D01*
X34100000Y-46320000D02*
X34100000Y-47733148D01*
X31975000Y-49858148D02*
X31975000Y-61182107D01*
%TO.N,Net-(U1-SCLK1)*%
X36489999Y-61989999D02*
X36489999Y-63776800D01*
X36000000Y-61500000D02*
X36489999Y-61989999D01*
X32275000Y-60775000D02*
X33000000Y-61500000D01*
X32275000Y-49982412D02*
X32275000Y-60775000D01*
X34500000Y-47757412D02*
X32275000Y-49982412D01*
X34500000Y-46320000D02*
X34500000Y-47757412D01*
%TO.N,Net-(U1-LRCK1)*%
X34889999Y-62495392D02*
X34889999Y-63776800D01*
X32575000Y-60180393D02*
X34889999Y-62495392D01*
X32575000Y-50106676D02*
X32575000Y-60180393D01*
X34900000Y-47781676D02*
X32575000Y-50106676D01*
X34900000Y-46320000D02*
X34900000Y-47781676D01*
%TO.N,Net-(CN1-DET)*%
X33050000Y-45670000D02*
X23300000Y-55420000D01*
X23300000Y-55420000D02*
X23300000Y-83802500D01*
%TO.N,Net-(U1-VP)*%
X62425000Y-45075000D02*
X62425000Y-16975000D01*
X42500000Y-65000000D02*
X62425000Y-45075000D01*
X42500000Y-66002500D02*
X42500000Y-65000000D01*
X42500000Y-66002500D02*
X42680000Y-66002500D01*
X62425000Y-16975000D02*
X61500000Y-16050000D01*
%TO.N,GND*%
X51450000Y-28262500D02*
X49890000Y-26702500D01*
X51450000Y-31500000D02*
X51450000Y-28262500D01*
%TO.N,Net-(U4-VREG_AVDD)*%
X46087500Y-34962500D02*
X46087500Y-37500000D01*
X49550000Y-31500000D02*
X46087500Y-34962500D01*
%TO.N,+3V3*%
X47912500Y-37587500D02*
X47000000Y-38500000D01*
X47912500Y-37500000D02*
X47912500Y-37587500D01*
%TO.N,Net-(U4-VREG_AVDD)*%
X46000000Y-37587500D02*
X46087500Y-37500000D01*
X46000000Y-39000000D02*
X46000000Y-37587500D01*
X41493324Y-38925000D02*
X42000000Y-38418324D01*
X39795000Y-38925000D02*
X41493324Y-38925000D01*
X42000000Y-37000000D02*
X42500000Y-36500000D01*
X39300000Y-39420000D02*
X39795000Y-38925000D01*
X42000000Y-38418324D02*
X42000000Y-37000000D01*
%TO.N,GND*%
X47450000Y-50500000D02*
X47500000Y-50500000D01*
%TO.N,Net-(U4-ADC_AVDD)*%
X43050000Y-48000000D02*
X45550000Y-50500000D01*
X42912500Y-48000000D02*
X43050000Y-48000000D01*
X41500000Y-41500000D02*
X42500000Y-42500000D01*
X41030000Y-40470000D02*
X41500000Y-40000000D01*
X39950000Y-40470000D02*
X41030000Y-40470000D01*
%TO.N,+3V3*%
X40430000Y-40070000D02*
X41000000Y-39500000D01*
X39950000Y-40070000D02*
X40430000Y-40070000D01*
X39407500Y-46320000D02*
X41087500Y-48000000D01*
X39300000Y-46320000D02*
X39407500Y-46320000D01*
%TO.N,GND*%
X29050000Y-41550000D02*
X29000000Y-41500000D01*
X29050000Y-44000000D02*
X29050000Y-41550000D01*
%TO.N,+3V3*%
X30950000Y-41550000D02*
X30900000Y-41500000D01*
X30950000Y-44000000D02*
X30950000Y-41550000D01*
%TO.N,GND*%
X45950000Y-30642500D02*
X49890000Y-26702500D01*
X45950000Y-32500000D02*
X45950000Y-30642500D01*
%TO.N,+1V1*%
X44050000Y-34487500D02*
X44062500Y-34500000D01*
X44050000Y-32500000D02*
X44050000Y-34487500D01*
X44062500Y-34500000D02*
X44062500Y-36887500D01*
X44062500Y-36887500D02*
X42950000Y-38000000D01*
%TO.N,Net-(U4-VREG_LX)*%
X38500000Y-37500001D02*
X38500000Y-39420000D01*
X41500001Y-34500000D02*
X38500000Y-37500001D01*
X41937500Y-34500000D02*
X41500001Y-34500000D01*
%TO.N,+1V1*%
X42950000Y-39450000D02*
X43000000Y-39500000D01*
X42950000Y-38000000D02*
X42950000Y-39450000D01*
%TO.N,GND*%
X41050000Y-38000000D02*
X39000000Y-38000000D01*
X37450000Y-34050000D02*
X37500000Y-34000000D01*
X36000000Y-34050000D02*
X37450000Y-34050000D01*
%TO.N,+3V3*%
X36000000Y-35950000D02*
X36000000Y-38500000D01*
%TO.N,GND*%
X29000000Y-40500000D02*
X28500000Y-40000000D01*
X29000000Y-41500000D02*
X29000000Y-40500000D01*
%TO.N,+3V3*%
X30900000Y-40600000D02*
X31500000Y-40000000D01*
X30900000Y-41500000D02*
X30900000Y-40600000D01*
X31570000Y-40070000D02*
X31500000Y-40000000D01*
X33050000Y-40070000D02*
X31570000Y-40070000D01*
X39300000Y-45920000D02*
X39300000Y-46320000D01*
X38000000Y-45500000D02*
X38880000Y-45500000D01*
X38880000Y-45500000D02*
X39300000Y-45920000D01*
X35300000Y-45200000D02*
X35500000Y-45000000D01*
X35300000Y-46320000D02*
X35300000Y-45200000D01*
X39300000Y-43165060D02*
X39300000Y-46320000D01*
X39950000Y-42870000D02*
X39595060Y-42870000D01*
X39595060Y-42870000D02*
X39300000Y-43165060D01*
%TO.N,+1V1*%
X37695060Y-44770000D02*
X36500000Y-45965060D01*
X36500000Y-45965060D02*
X36500000Y-46320000D01*
X38400000Y-43620000D02*
X38400000Y-44770000D01*
X39550000Y-42470000D02*
X38400000Y-43620000D01*
X38400000Y-44770000D02*
X37695060Y-44770000D01*
X39950000Y-42470000D02*
X39550000Y-42470000D01*
X39980000Y-42500000D02*
X39950000Y-42470000D01*
X41000000Y-42500000D02*
X39980000Y-42500000D01*
X37700000Y-40200000D02*
X38000000Y-40500000D01*
X37700000Y-39420000D02*
X37700000Y-40200000D01*
%TO.N,+3V3*%
X35300000Y-45920000D02*
X35300000Y-46320000D01*
X33450000Y-44070000D02*
X35300000Y-45920000D01*
X33050000Y-44070000D02*
X33450000Y-44070000D01*
X32650000Y-40070000D02*
X33050000Y-40070000D01*
X32450000Y-43870000D02*
X32450000Y-40270000D01*
X32650000Y-44070000D02*
X32450000Y-43870000D01*
X33050000Y-44070000D02*
X32650000Y-44070000D01*
X32450000Y-40270000D02*
X32650000Y-40070000D01*
X38000000Y-39320000D02*
X38100000Y-39420000D01*
X38000000Y-38500000D02*
X38000000Y-39320000D01*
X36100000Y-38600000D02*
X36000000Y-38500000D01*
X36100000Y-39420000D02*
X36100000Y-38600000D01*
%TO.N,+1V1*%
X37104940Y-40370000D02*
X37700000Y-39774940D01*
X37700000Y-39774940D02*
X37700000Y-39420000D01*
X33500000Y-42070000D02*
X35200000Y-40370000D01*
X35200000Y-40370000D02*
X37104940Y-40370000D01*
X33050000Y-42070000D02*
X33500000Y-42070000D01*
%TO.N,+3V3*%
X35850000Y-40070000D02*
X36500000Y-39420000D01*
X33050000Y-40070000D02*
X35850000Y-40070000D01*
X36100000Y-39820000D02*
X36100000Y-39420000D01*
X35850000Y-40070000D02*
X36100000Y-39820000D01*
%TO.N,GND*%
X38250000Y-51300000D02*
X37350000Y-50400000D01*
X42000000Y-52450000D02*
X40850000Y-51300000D01*
X40850000Y-51300000D02*
X38250000Y-51300000D01*
%TO.N,Net-(U4-XOUT)*%
X40000000Y-50587500D02*
X41962500Y-50587500D01*
X41962500Y-50587500D02*
X42000000Y-50550000D01*
X36500000Y-48500000D02*
X36100000Y-48100000D01*
X37912500Y-48500000D02*
X36500000Y-48500000D01*
X40000000Y-50587500D02*
X37912500Y-48500000D01*
X36100000Y-48100000D02*
X36100000Y-46320000D01*
%TO.N,Net-(R15-Pad1)*%
X37350000Y-52600000D02*
X39812500Y-52600000D01*
X39812500Y-52600000D02*
X40000000Y-52412500D01*
%TO.N,GND*%
X37350000Y-49150000D02*
X37500000Y-49000000D01*
X37350000Y-50400000D02*
X37350000Y-49150000D01*
X37350000Y-50400000D02*
X35650000Y-52100000D01*
X35650000Y-52100000D02*
X35650000Y-52600000D01*
X35500000Y-52450000D02*
X35650000Y-52600000D01*
X33500000Y-52450000D02*
X35500000Y-52450000D01*
%TO.N,Net-(U4-XIN)*%
X35500000Y-50550000D02*
X35650000Y-50400000D01*
X33500000Y-50550000D02*
X35500000Y-50550000D01*
X35700000Y-50350000D02*
X35650000Y-50400000D01*
X35700000Y-46320000D02*
X35700000Y-50350000D01*
%TO.N,GND*%
X51437500Y-47000000D02*
X48400000Y-43962500D01*
X48400000Y-43962500D02*
X48000000Y-43962500D01*
%TO.N,Net-(U4-GPIO25)*%
X42730000Y-43270000D02*
X39950000Y-43270000D01*
X43000000Y-43000000D02*
X42730000Y-43270000D01*
X45000000Y-47000000D02*
X44000000Y-46000000D01*
X45087500Y-47000000D02*
X45000000Y-47000000D01*
%TO.N,Net-(D2-A)*%
X46912500Y-47000000D02*
X49562500Y-47000000D01*
%TO.N,GND*%
X38900000Y-38100000D02*
X39000000Y-38000000D01*
X38900000Y-39420000D02*
X38900000Y-38100000D01*
X38900000Y-40470000D02*
X36500000Y-42870000D01*
X38900000Y-39420000D02*
X38900000Y-40470000D01*
%TO.N,Net-(Q1-D)*%
X50912500Y-35500000D02*
X50912500Y-38732500D01*
X50912500Y-38732500D02*
X50645000Y-39000000D01*
%TO.N,Net-(D1-K)*%
X49087500Y-35500000D02*
X47500000Y-35500000D01*
%TO.N,GND*%
X53500000Y-41000000D02*
X56500000Y-41000000D01*
X53000000Y-40912500D02*
X53412500Y-40912500D01*
X53412500Y-40912500D02*
X53500000Y-41000000D01*
X51000000Y-42912500D02*
X53000000Y-40912500D01*
X49500000Y-42912500D02*
X51000000Y-42912500D01*
%TO.N,Net-(Q1-D)*%
X56487500Y-39087500D02*
X56500000Y-39100000D01*
X53000000Y-39087500D02*
X56487500Y-39087500D01*
X52912500Y-39000000D02*
X53000000Y-39087500D01*
X50645000Y-39000000D02*
X52912500Y-39000000D01*
%TO.N,GND*%
X49050000Y-42912500D02*
X48000000Y-43962500D01*
X49500000Y-42912500D02*
X49050000Y-42912500D01*
%TO.N,Net-(Q1-S)*%
X49355000Y-40942500D02*
X49500000Y-41087500D01*
X49355000Y-39500000D02*
X49355000Y-40942500D01*
%TO.N,+3V3*%
X49355000Y-38500000D02*
X47000000Y-38500000D01*
%TO.N,Net-(Q1-S)*%
X48500000Y-39500000D02*
X49355000Y-39500000D01*
X42630000Y-40870000D02*
X44500000Y-39000000D01*
X39950000Y-40870000D02*
X42630000Y-40870000D01*
%TO.N,GND*%
X29010000Y-24577500D02*
X31087500Y-22500000D01*
X29010000Y-30550000D02*
X29010000Y-24577500D01*
X26000000Y-30550000D02*
X29010000Y-30550000D01*
%TO.N,+3V3*%
X28950000Y-32390000D02*
X29010000Y-32450000D01*
X21610000Y-32390000D02*
X28950000Y-32390000D01*
X21500000Y-32500000D02*
X21610000Y-32390000D01*
X21250000Y-32750000D02*
X21500000Y-32500000D01*
X21250000Y-33490000D02*
X21250000Y-32750000D01*
%TO.N,Net-(U4-QSPI_SD3)*%
X33052056Y-36275000D02*
X35700000Y-38922944D01*
X23140000Y-32690000D02*
X26725000Y-36275000D01*
X22210000Y-32690000D02*
X23140000Y-32690000D01*
X35700000Y-38922944D02*
X35700000Y-39420000D01*
X21750000Y-33150000D02*
X22210000Y-32690000D01*
X26725000Y-36275000D02*
X33052056Y-36275000D01*
X21750000Y-33490000D02*
X21750000Y-33150000D01*
%TO.N,Net-(U4-QSPI_SCLK)*%
X35300000Y-38947208D02*
X35300000Y-39420000D01*
X32927792Y-36575000D02*
X35300000Y-38947208D01*
X26575000Y-36575000D02*
X32927792Y-36575000D01*
X22990000Y-32990000D02*
X26575000Y-36575000D01*
X22410000Y-32990000D02*
X22990000Y-32990000D01*
X22250000Y-33150000D02*
X22410000Y-32990000D01*
X22250000Y-33490000D02*
X22250000Y-33150000D01*
%TO.N,Net-(U4-QSPI_SD0)*%
X32803528Y-36875000D02*
X34900000Y-38971472D01*
X26375000Y-36875000D02*
X32803528Y-36875000D01*
X22990000Y-33490000D02*
X26375000Y-36875000D01*
X22750000Y-33490000D02*
X22990000Y-33490000D01*
X34900000Y-38971472D02*
X34900000Y-39420000D01*
%TO.N,GND*%
X22750000Y-36750000D02*
X23000000Y-37000000D01*
X22750000Y-36510000D02*
X22750000Y-36750000D01*
%TO.N,Net-(U4-QSPI_SD2)*%
X33904264Y-38400000D02*
X34500000Y-38995736D01*
X34500000Y-38995736D02*
X34500000Y-39420000D01*
X22250000Y-37010000D02*
X23640000Y-38400000D01*
X23640000Y-38400000D02*
X33904264Y-38400000D01*
X22250000Y-36510000D02*
X22250000Y-37010000D01*
%TO.N,Net-(U4-QSPI_SD1)*%
X34100000Y-39020000D02*
X34100000Y-39420000D01*
X23440000Y-38700000D02*
X33780000Y-38700000D01*
X33780000Y-38700000D02*
X34100000Y-39020000D01*
X21750000Y-36510000D02*
X21750000Y-37010000D01*
X21750000Y-37010000D02*
X23440000Y-38700000D01*
%TO.N,GND*%
X27500000Y-22500000D02*
X31087500Y-22500000D01*
X25350000Y-24650000D02*
X27500000Y-22500000D01*
X25000000Y-24650000D02*
X25350000Y-24650000D01*
X19000000Y-24650000D02*
X25000000Y-24650000D01*
%TO.N,Net-(SW1-A)*%
X25000000Y-28350000D02*
X19000000Y-28350000D01*
%TO.N,Net-(U4-~{QSPI_SS})*%
X19152500Y-34412500D02*
X21250000Y-36510000D01*
X19000000Y-34412500D02*
X19152500Y-34412500D01*
%TO.N,Net-(SW1-A)*%
X19000000Y-28350000D02*
X19000000Y-32587500D01*
%TO.N,+3V3*%
X37500000Y-31600003D02*
X37500000Y-30910000D01*
X37100003Y-32000000D02*
X37500000Y-31600003D01*
X28412500Y-37587500D02*
X28500000Y-37500000D01*
X27000000Y-37587500D02*
X28412500Y-37587500D01*
%TO.N,Net-(U4-~{QSPI_SS})*%
X23660000Y-39420000D02*
X33700000Y-39420000D01*
X21250000Y-37010000D02*
X23660000Y-39420000D01*
X21250000Y-36510000D02*
X21250000Y-37010000D01*
%TO.N,GND*%
X38050000Y-26550000D02*
X37750000Y-26250000D01*
X39000000Y-26550000D02*
X38050000Y-26550000D01*
%TO.N,+3V3*%
X38640000Y-28090000D02*
X39000000Y-28450000D01*
X37500000Y-28090000D02*
X38640000Y-28090000D01*
%TO.N,Net-(D1-A)*%
X50632893Y-25252500D02*
X51890000Y-25252500D01*
X45087500Y-30797893D02*
X50632893Y-25252500D01*
X45087500Y-40962500D02*
X45087500Y-30797893D01*
%TO.N,Net-(U4-GPIO23)*%
X43570000Y-44070000D02*
X39950000Y-44070000D01*
X44000000Y-44500000D02*
X43570000Y-44070000D01*
X38087500Y-33587500D02*
X38500000Y-34000000D01*
X38087500Y-32500000D02*
X38087500Y-33587500D01*
%TO.N,GND*%
X39912500Y-31412500D02*
X39500000Y-31000000D01*
X39912500Y-32500000D02*
X39912500Y-31412500D01*
X37000000Y-30000000D02*
X36500000Y-29500000D01*
X37000000Y-30910000D02*
X37000000Y-30000000D01*
%TO.N,Net-(U4-GPIO23)*%
X36292893Y-32500000D02*
X38087500Y-32500000D01*
X36000000Y-30910000D02*
X36000000Y-32207107D01*
X36000000Y-32207107D02*
X36292893Y-32500000D01*
%TO.N,Net-(D1-K)*%
X36500000Y-30910000D02*
X36500000Y-32000000D01*
X31500000Y-32050000D02*
X32500000Y-31050000D01*
X31500000Y-35000000D02*
X31500000Y-32050000D01*
%TO.N,Net-(U5-EN)*%
X35500000Y-32825000D02*
X35500000Y-30910000D01*
X33325000Y-35000000D02*
X35500000Y-32825000D01*
%TO.N,GND*%
X32500000Y-32950000D02*
X32500000Y-32000000D01*
%TO.N,Net-(D1-K)*%
X32500000Y-31050000D02*
X34500000Y-29050000D01*
X34500000Y-29050000D02*
X34500000Y-28500000D01*
X34910000Y-28090000D02*
X34500000Y-28500000D01*
X35500000Y-28090000D02*
X34910000Y-28090000D01*
%TO.N,Net-(U5-LX2)*%
X37000000Y-27292893D02*
X37000000Y-28090000D01*
X32437500Y-27000000D02*
X36707107Y-27000000D01*
X36707107Y-27000000D02*
X37000000Y-27292893D01*
X31437500Y-28000000D02*
X32437500Y-27000000D01*
%TO.N,Net-(U5-LX1)*%
X36000000Y-27717500D02*
X36000000Y-28090000D01*
X35840000Y-27557500D02*
X36000000Y-27717500D01*
X34005000Y-27557500D02*
X35840000Y-27557500D01*
X33562500Y-28000000D02*
X34005000Y-27557500D01*
%TO.N,GND*%
X32511678Y-18793029D02*
X33086678Y-19368029D01*
X31966678Y-18793029D02*
X32511678Y-18793029D01*
X40031678Y-19368029D02*
X40606678Y-18793029D01*
X39486678Y-19368029D02*
X40031678Y-19368029D01*
X36500000Y-28090000D02*
X36500000Y-27500000D01*
X36500000Y-29500000D02*
X36500000Y-28090000D01*
%TO.N,+3V3*%
X37937500Y-30472500D02*
X37500000Y-30910000D01*
X37937500Y-28527500D02*
X37937500Y-30472500D01*
X37500000Y-28090000D02*
X37937500Y-28527500D01*
%TO.N,Net-(J1-D+-PadA6)*%
X39319176Y-25587500D02*
X41000000Y-25587500D01*
X36500000Y-19979706D02*
X36500000Y-22768324D01*
X36500000Y-22768324D02*
X39319176Y-25587500D01*
X36536678Y-19943028D02*
X36500000Y-19979706D01*
%TO.N,Net-(J1-D--PadA7)*%
X43000000Y-24587500D02*
X44000000Y-25587500D01*
X43000000Y-24500000D02*
X43000000Y-24587500D01*
X37036678Y-20463322D02*
X37000000Y-20500000D01*
X37036678Y-19368029D02*
X37036678Y-20463322D01*
X36836677Y-18593029D02*
X37036678Y-18793030D01*
X36236679Y-18593029D02*
X36836677Y-18593029D01*
X36036678Y-18793030D02*
X36236679Y-18593029D01*
X36036678Y-19368029D02*
X36036678Y-18793030D01*
X37036678Y-18793030D02*
X37036678Y-19368029D01*
%TO.N,Net-(J1-D+-PadA6)*%
X36336677Y-20143029D02*
X36536678Y-19943028D01*
X36536678Y-19943028D02*
X36536678Y-19368029D01*
X35845690Y-20143029D02*
X36336677Y-20143029D01*
X35536678Y-19368029D02*
X35536678Y-19834017D01*
X35536678Y-19834017D02*
X35845690Y-20143029D01*
%TO.N,Net-(U4-USB_DP)*%
X41000000Y-33000000D02*
X41000000Y-27412500D01*
X36900000Y-37100000D02*
X41000000Y-33000000D01*
X36900000Y-39420000D02*
X36900000Y-37100000D01*
%TO.N,Net-(U4-USB_DM)*%
X37300000Y-37700000D02*
X37300000Y-39420000D01*
X44000000Y-31000000D02*
X37300000Y-37700000D01*
X44000000Y-27412500D02*
X44000000Y-31000000D01*
%TO.N,Net-(J1-CC1)*%
X37587500Y-19418851D02*
X37536678Y-19368029D01*
X37587500Y-22500000D02*
X37587500Y-19418851D01*
%TO.N,Net-(J1-CC2)*%
X34500000Y-19404707D02*
X34536678Y-19368029D01*
X34500000Y-20500000D02*
X34500000Y-19404707D01*
X32912500Y-21587500D02*
X33000000Y-21500000D01*
X32912500Y-22500000D02*
X32912500Y-21587500D01*
%TO.N,GND*%
X39412500Y-20587500D02*
X39500000Y-20500000D01*
X39412500Y-22500000D02*
X39412500Y-20587500D01*
X31087500Y-21367207D02*
X33086678Y-19368029D01*
X31087500Y-22500000D02*
X31087500Y-21367207D01*
%TO.N,Net-(U4-GPIO24)*%
X44845000Y-43670000D02*
X39950000Y-43670000D01*
X45087500Y-43912500D02*
X44845000Y-43670000D01*
%TO.N,GND*%
X47950000Y-43912500D02*
X48000000Y-43962500D01*
X46912500Y-43912500D02*
X47950000Y-43912500D01*
%TO.N,Net-(U4-GPIO24)*%
X46912500Y-42087500D02*
X45087500Y-43912500D01*
X46912500Y-40962500D02*
X46912500Y-42087500D01*
%TO.N,Net-(D1-A)*%
X34925284Y-18013435D02*
X38501678Y-18013435D01*
X33886678Y-19368029D02*
X33886678Y-19052041D01*
X33886678Y-19052041D02*
X34925284Y-18013435D01*
X33886678Y-21236678D02*
X35500000Y-22850000D01*
X33886678Y-19368029D02*
X33886678Y-21236678D01*
%TO.N,GND*%
X39486678Y-20486678D02*
X39500000Y-20500000D01*
X39486678Y-19368029D02*
X39486678Y-20486678D01*
%TO.N,Net-(D1-A)*%
X52132893Y-15752500D02*
X52440000Y-15752500D01*
X50390000Y-17495393D02*
X52132893Y-15752500D01*
X50390000Y-23752500D02*
X50390000Y-17495393D01*
X51890000Y-25252500D02*
X50390000Y-23752500D01*
X40762613Y-15752500D02*
X52440000Y-15752500D01*
X38501678Y-18013435D02*
X40762613Y-15752500D01*
X38501678Y-19183029D02*
X38501678Y-18013435D01*
X38686678Y-19368029D02*
X38501678Y-19183029D01*
%TO.N,GND*%
X35690000Y-62902500D02*
X35890000Y-62702500D01*
X39290000Y-67602500D02*
X39390000Y-67702500D01*
X25490000Y-64202500D02*
X25490000Y-63102500D01*
X61500000Y-17950000D02*
X60050000Y-17950000D01*
X38315700Y-67602500D02*
X39290000Y-67602500D01*
X43880000Y-65302500D02*
X46890000Y-65302500D01*
X37290000Y-68628200D02*
X37290000Y-69053974D01*
X38689999Y-64402501D02*
X39390000Y-63702500D01*
X45340000Y-69202500D02*
X46390000Y-69202500D01*
X38315700Y-64402501D02*
X38689999Y-64402501D01*
X50940000Y-17652500D02*
X50890000Y-17702500D01*
X40340000Y-59752500D02*
X40890000Y-59202500D01*
X53092500Y-17000000D02*
X52440000Y-17652500D01*
X35690000Y-63776800D02*
X36090000Y-63776800D01*
X26940000Y-73202500D02*
X26390000Y-73202500D01*
X37290000Y-69053974D02*
X37490000Y-69253974D01*
X25490000Y-63102500D02*
X25890000Y-62702500D01*
X55362500Y-26000000D02*
X53042500Y-26000000D01*
X55862500Y-17000000D02*
X53092500Y-17000000D01*
X38340000Y-74702500D02*
X38390000Y-74702500D01*
X28990000Y-62702500D02*
X28390000Y-62702500D01*
X50340000Y-27152500D02*
X49890000Y-26702500D01*
X46890000Y-65302500D02*
X46890000Y-64202500D01*
X37490000Y-73852500D02*
X38340000Y-74702500D01*
X26390000Y-73202500D02*
X25890000Y-72702500D01*
X52440000Y-17652500D02*
X50940000Y-17652500D01*
X45340000Y-72702500D02*
X45340000Y-69202500D01*
X35690000Y-63776800D02*
X35690000Y-62902500D01*
X51890000Y-27152500D02*
X50340000Y-27152500D01*
X53042500Y-26000000D02*
X51890000Y-27152500D01*
X60050000Y-17950000D02*
X60000000Y-18000000D01*
X61500000Y-27000000D02*
X60000000Y-27000000D01*
X37490000Y-69253974D02*
X37490000Y-73852500D01*
X40340000Y-60702500D02*
X40340000Y-59752500D01*
X33464300Y-67202501D02*
X31390000Y-67202500D01*
X38390000Y-74702500D02*
X39390000Y-75702500D01*
%TO.N,Net-(U1-VA)*%
X31890000Y-64702500D02*
X32790001Y-65602501D01*
X31390000Y-64702500D02*
X31890000Y-64702500D01*
X27890000Y-68102500D02*
X28790000Y-68102500D01*
X57637500Y-25050000D02*
X58500000Y-25050000D01*
X31390000Y-64702500D02*
X30890000Y-64202500D01*
X28790000Y-68102500D02*
X28890000Y-68202500D01*
X40940000Y-66702500D02*
X43440000Y-69202500D01*
X58500000Y-25050000D02*
X61450000Y-25050000D01*
X32390000Y-66702500D02*
X32489999Y-66802499D01*
X58500000Y-25050000D02*
X58550000Y-25050000D01*
X40390000Y-66702500D02*
X40090000Y-66402500D01*
X30890000Y-64202500D02*
X30890000Y-62702500D01*
X40390000Y-66702500D02*
X40940000Y-66702500D01*
X27890000Y-64702500D02*
X27390000Y-64202500D01*
X58550000Y-25050000D02*
X59000000Y-25500000D01*
X32790001Y-65602501D02*
X33464300Y-65602501D01*
X40090000Y-66402500D02*
X38315700Y-66402500D01*
X31390000Y-64702500D02*
X27890000Y-64702500D01*
X61450000Y-25050000D02*
X61500000Y-25100000D01*
X32489999Y-66802499D02*
X33464300Y-66802499D01*
%TO.N,Net-(D1-A)*%
X56024999Y-25050000D02*
X56225000Y-25250001D01*
X52747500Y-15752500D02*
X53045000Y-16050000D01*
X56524999Y-16050000D02*
X57000000Y-16525001D01*
X52440000Y-15752500D02*
X52747500Y-15752500D01*
X53045000Y-16050000D02*
X55862500Y-16050000D01*
X56550000Y-17950000D02*
X55862500Y-17950000D01*
X51890000Y-25252500D02*
X55160000Y-25252500D01*
X55362500Y-25050000D02*
X56024999Y-25050000D01*
X56024999Y-26950000D02*
X55362500Y-26950000D01*
X55862500Y-16050000D02*
X56524999Y-16050000D01*
X56225000Y-26749999D02*
X56024999Y-26950000D01*
X56225000Y-25250001D02*
X56225000Y-26749999D01*
X57000000Y-16525001D02*
X57000000Y-17500000D01*
X57000000Y-17500000D02*
X56550000Y-17950000D01*
X55160000Y-25252500D02*
X55362500Y-25050000D01*
%TO.N,Net-(U1-FLYP_VA)*%
X33190001Y-68002499D02*
X33464300Y-68002499D01*
X30990000Y-70202500D02*
X33190001Y-68002499D01*
%TO.N,Net-(U1-FLYN_VA)*%
X32890000Y-70202500D02*
X34090001Y-69002499D01*
X34090001Y-69002499D02*
X34090001Y-68628200D01*
%TO.N,Net-(U1-VP)*%
X38315700Y-66002500D02*
X42500000Y-66002500D01*
X42680000Y-66002500D02*
X43880000Y-67202500D01*
X43880000Y-67202500D02*
X46890000Y-67202500D01*
X58137500Y-16050000D02*
X61500000Y-16050000D01*
%TO.N,Net-(U1-VCP_FILT+)*%
X43390000Y-74202500D02*
X43390000Y-72752500D01*
X43390000Y-72752500D02*
X43440000Y-72702500D01*
X38315700Y-68002499D02*
X38315700Y-69128200D01*
X38315700Y-69128200D02*
X38890000Y-69702500D01*
%TO.N,Net-(U1-VCP_FILT-)*%
X37190000Y-69378238D02*
X37190000Y-73952500D01*
X37190000Y-73952500D02*
X36440000Y-74702500D01*
X36890001Y-69078239D02*
X37190000Y-69378238D01*
X36890001Y-68628200D02*
X36890001Y-69078239D01*
%TO.N,Net-(U1-FLYP_VCP)*%
X38315700Y-66802499D02*
X39782892Y-66802499D01*
X40890000Y-67909607D02*
X40890000Y-68752500D01*
X39782892Y-66802499D02*
X40890000Y-67909607D01*
%TO.N,Net-(U1-FLYC_VCP)*%
X39597107Y-67202500D02*
X39965000Y-67570393D01*
X39965000Y-69727500D02*
X40890000Y-70652500D01*
X39965000Y-67570393D02*
X39965000Y-69727500D01*
X41340000Y-71102500D02*
X40890000Y-70652500D01*
X38315700Y-67202501D02*
X39597107Y-67202500D01*
X41340000Y-72702500D02*
X41340000Y-71102500D01*
%TO.N,Net-(U1-HPOUTB)*%
X36090000Y-69910000D02*
X36000000Y-70000000D01*
X36090000Y-68628200D02*
X36090000Y-69910000D01*
%TO.N,Net-(U1-HPOUTA)*%
X35290001Y-69602501D02*
X35390000Y-69702500D01*
X35290001Y-68628200D02*
X35290001Y-69602501D01*
%TO.N,Net-(U1-FILT-)*%
X31682893Y-66202500D02*
X27182893Y-70702500D01*
X32597107Y-66202500D02*
X31682893Y-66202500D01*
X32797107Y-66402500D02*
X32597107Y-66202500D01*
X33464300Y-66402500D02*
X32797107Y-66402500D01*
X27182893Y-70702500D02*
X26990000Y-70702500D01*
%TO.N,Net-(U1--VA)*%
X28840000Y-70752500D02*
X28890000Y-70702500D01*
X28890000Y-70702500D02*
X31990000Y-67602500D01*
X28840000Y-73202500D02*
X28840000Y-70752500D01*
X31990000Y-67602500D02*
X33464300Y-67602500D01*
%TO.N,+3V3*%
X37689999Y-61452501D02*
X38440000Y-60702500D01*
X37689999Y-63776800D02*
X37689999Y-61452501D01*
%TO.N,Net-(U1-SDA)*%
X34490000Y-62802500D02*
X34390000Y-62702500D01*
X34490000Y-63776800D02*
X34490000Y-62802500D01*
%TO.N,Net-(U1-SCL)*%
X33464300Y-64402501D02*
X33090001Y-64402501D01*
X33090001Y-64402501D02*
X32390000Y-63702500D01*
%TO.N,Net-(U1-HPREFB)*%
X35597107Y-73202500D02*
X30390000Y-73202500D01*
X36890000Y-69502502D02*
X36890000Y-71909607D01*
X36890000Y-71909607D02*
X35597107Y-73202500D01*
X36489999Y-69102501D02*
X36890000Y-69502502D01*
X36489999Y-68628200D02*
X36489999Y-69102501D01*
%TO.N,Net-(CN1-L-)*%
X34296250Y-70796248D02*
X34889999Y-70202499D01*
X34889999Y-70202499D02*
X34889999Y-68628200D01*
X34296250Y-71796250D02*
X34296250Y-70796248D01*
%TO.N,Net-(U1-FILT+)*%
X33464300Y-66002500D02*
X32983299Y-66002500D01*
X32983299Y-66002500D02*
X32883300Y-65902501D01*
X28189999Y-65902501D02*
X27890000Y-66202500D01*
X32883300Y-65902501D02*
X28189999Y-65902501D01*
%TO.N,Net-(U1-FLYN_VCP)*%
X37790000Y-71052500D02*
X39440000Y-72702500D01*
X37790000Y-68728201D02*
X37790000Y-71052500D01*
X37689999Y-68628200D02*
X37790000Y-68728201D01*
%TD*%
M02*
